%FSLAX45Y45*%
G04 Gerber Fmt 4.5, Leading zero omitted, Abs format (unit mm)*
G04 Created by KiCad (PCBNEW 5.1.9+dfsg1-1) date 2022-03-28 13:31:43*
%MOMM*%
%LPD*%
G01*
G04 APERTURE LIST*
%TA.AperFunction,Profile*%
%ADD10C,0.050000*%
%TD*%
%ADD11C,0.200000*%
%ADD12C,0.300000*%
G04 APERTURE END LIST*
D10*
X26590625Y-3968750D02*
X4206875Y-3968750D01*
X26828750Y-11350625D02*
X26828750Y-4206875D01*
X4206875Y-11588750D02*
X26590625Y-11588750D01*
X3968750Y-4206875D02*
X3968750Y-11350625D01*
X26590625Y-3968750D02*
G75*
G02*
X26828750Y-4206875I0J-238125D01*
G01*
X26828750Y-11350625D02*
G75*
G02*
X26590625Y-11588750I-238125J0D01*
G01*
X4206875Y-11588750D02*
G75*
G02*
X3968750Y-11350625I0J238125D01*
G01*
X3968750Y-4206875D02*
G75*
G02*
X4206875Y-3968750I238125J0D01*
G01*
D11*
D12*
X4252678Y-12056964D02*
X4252678Y-11756964D01*
X4324107Y-11756964D01*
X4366964Y-11771250D01*
X4395536Y-11799821D01*
X4409821Y-11828393D01*
X4424107Y-11885536D01*
X4424107Y-11928393D01*
X4409821Y-11985536D01*
X4395536Y-12014107D01*
X4366964Y-12042679D01*
X4324107Y-12056964D01*
X4252678Y-12056964D01*
X4552678Y-12056964D02*
X4552678Y-11856964D01*
X4552678Y-11914107D02*
X4566964Y-11885536D01*
X4581250Y-11871250D01*
X4609821Y-11856964D01*
X4638393Y-11856964D01*
X4738393Y-12056964D02*
X4738393Y-11856964D01*
X4738393Y-11756964D02*
X4724107Y-11771250D01*
X4738393Y-11785536D01*
X4752678Y-11771250D01*
X4738393Y-11756964D01*
X4738393Y-11785536D01*
X4924107Y-12056964D02*
X4895536Y-12042679D01*
X4881250Y-12014107D01*
X4881250Y-11756964D01*
X5081250Y-12056964D02*
X5052678Y-12042679D01*
X5038393Y-12014107D01*
X5038393Y-11756964D01*
X5424107Y-12056964D02*
X5424107Y-11756964D01*
X5524107Y-11971250D01*
X5624107Y-11756964D01*
X5624107Y-12056964D01*
X5895536Y-12056964D02*
X5895536Y-11899821D01*
X5881250Y-11871250D01*
X5852678Y-11856964D01*
X5795536Y-11856964D01*
X5766964Y-11871250D01*
X5895536Y-12042679D02*
X5866964Y-12056964D01*
X5795536Y-12056964D01*
X5766964Y-12042679D01*
X5752678Y-12014107D01*
X5752678Y-11985536D01*
X5766964Y-11956964D01*
X5795536Y-11942679D01*
X5866964Y-11942679D01*
X5895536Y-11928393D01*
X6038393Y-11856964D02*
X6038393Y-12156964D01*
X6038393Y-11871250D02*
X6066964Y-11856964D01*
X6124107Y-11856964D01*
X6152678Y-11871250D01*
X6166964Y-11885536D01*
X6181250Y-11914107D01*
X6181250Y-11999821D01*
X6166964Y-12028393D01*
X6152678Y-12042679D01*
X6124107Y-12056964D01*
X6066964Y-12056964D01*
X6038393Y-12042679D01*
X6309821Y-12028393D02*
X6324107Y-12042679D01*
X6309821Y-12056964D01*
X6295536Y-12042679D01*
X6309821Y-12028393D01*
X6309821Y-12056964D01*
X6309821Y-11871250D02*
X6324107Y-11885536D01*
X6309821Y-11899821D01*
X6295536Y-11885536D01*
X6309821Y-11871250D01*
X6309821Y-11899821D01*
M02*
