M48
; DRILL file {KiCad 5.1.9+dfsg1-1} date Mon Mar 28 13:31:43 2022
; FORMAT={-:-/ absolute / metric / decimal}
; #@! TF.CreationDate,2022-03-28T13:31:43+02:00
; #@! TF.GenerationSoftware,Kicad,Pcbnew,5.1.9+dfsg1-1
; #@! TF.FileFunction,Plated,1,2,PTH
FMAT,2
METRIC
T1C0.400
T2C2.300
%
G90
G05
T1
X57.237Y-58.737
X57.237Y-96.837
X57.677Y-57.677
X57.677Y-59.797
X57.677Y-95.777
X57.677Y-97.897
X58.737Y-57.237
X58.737Y-60.237
X58.737Y-95.337
X58.737Y-98.337
X59.797Y-57.677
X59.797Y-59.797
X59.797Y-95.777
X59.797Y-97.897
X60.237Y-58.737
X60.237Y-96.837
X133.438Y-58.737
X133.438Y-96.837
X133.877Y-57.677
X133.877Y-59.797
X133.877Y-95.777
X133.877Y-97.897
X134.938Y-57.237
X134.938Y-60.237
X134.938Y-95.337
X134.938Y-98.337
X135.998Y-57.677
X135.998Y-59.797
X135.998Y-95.777
X135.998Y-97.897
X136.438Y-58.737
X136.438Y-96.837
X171.45Y-58.737
X171.537Y-96.837
X171.89Y-57.677
X171.89Y-59.797
X171.977Y-95.777
X171.977Y-97.897
X172.95Y-57.237
X172.95Y-60.237
X173.037Y-95.337
X173.037Y-98.337
X174.01Y-57.677
X174.01Y-59.797
X174.097Y-95.777
X174.097Y-97.897
X174.45Y-58.737
X174.537Y-96.837
X247.737Y-58.737
X247.737Y-96.837
X248.177Y-57.677
X248.177Y-59.797
X248.177Y-95.777
X248.177Y-97.897
X249.237Y-57.237
X249.237Y-60.237
X249.237Y-95.337
X249.237Y-98.337
X250.297Y-57.677
X250.297Y-59.797
X250.297Y-95.777
X250.297Y-97.897
X250.737Y-58.737
X250.737Y-96.837
T2
X58.737Y-58.737
X58.737Y-96.837
X134.938Y-58.737
X134.938Y-96.837
X172.95Y-58.737
X173.037Y-96.837
X249.237Y-58.737
X249.237Y-96.837
T0
M30
