%TF.GenerationSoftware,KiCad,Pcbnew,5.1.9+dfsg1-1*%
%TF.CreationDate,2022-03-28T13:31:45+02:00*%
%TF.ProjectId,la_nc-bottom-plate,6c615f6e-632d-4626-9f74-746f6d2d706c,rev?*%
%TF.SameCoordinates,Original*%
%TF.FileFunction,Copper,L2,Bot*%
%TF.FilePolarity,Positive*%
%FSLAX46Y46*%
G04 Gerber Fmt 4.6, Leading zero omitted, Abs format (unit mm)*
G04 Created by KiCad (PCBNEW 5.1.9+dfsg1-1) date 2022-03-28 13:31:45*
%MOMM*%
%LPD*%
G01*
G04 APERTURE LIST*
%TA.AperFunction,ComponentPad*%
%ADD10C,0.500000*%
%TD*%
%TA.AperFunction,ComponentPad*%
%ADD11C,4.000000*%
%TD*%
G04 APERTURE END LIST*
D10*
%TO.P,M8,1*%
%TO.N,N/C*%
X250297500Y-97897500D03*
X248177500Y-97897500D03*
X248177500Y-95777500D03*
X250297500Y-95777500D03*
X249237500Y-98337500D03*
X249237500Y-95337500D03*
X247737500Y-96837500D03*
X250737500Y-96837500D03*
D11*
X249237500Y-96837500D03*
%TD*%
D10*
%TO.P,M7,1*%
%TO.N,N/C*%
X250297500Y-59797500D03*
X248177500Y-59797500D03*
X248177500Y-57677500D03*
X250297500Y-57677500D03*
X249237500Y-60237500D03*
X249237500Y-57237500D03*
X247737500Y-58737500D03*
X250737500Y-58737500D03*
D11*
X249237500Y-58737500D03*
%TD*%
D10*
%TO.P,M6,1*%
%TO.N,N/C*%
X174097500Y-97897500D03*
X171977500Y-97897500D03*
X171977500Y-95777500D03*
X174097500Y-95777500D03*
X173037500Y-98337500D03*
X173037500Y-95337500D03*
X171537500Y-96837500D03*
X174537500Y-96837500D03*
D11*
X173037500Y-96837500D03*
%TD*%
D10*
%TO.P,M5,1*%
%TO.N,N/C*%
X174010000Y-59797500D03*
X171890000Y-59797500D03*
X171890000Y-57677500D03*
X174010000Y-57677500D03*
X172950000Y-60237500D03*
X172950000Y-57237500D03*
X171450000Y-58737500D03*
X174450000Y-58737500D03*
D11*
X172950000Y-58737500D03*
%TD*%
D10*
%TO.P,M4,1*%
%TO.N,N/C*%
X135997500Y-97897500D03*
X133877500Y-97897500D03*
X133877500Y-95777500D03*
X135997500Y-95777500D03*
X134937500Y-98337500D03*
X134937500Y-95337500D03*
X133437500Y-96837500D03*
X136437500Y-96837500D03*
D11*
X134937500Y-96837500D03*
%TD*%
D10*
%TO.P,M3,1*%
%TO.N,N/C*%
X135997500Y-59797500D03*
X133877500Y-59797500D03*
X133877500Y-57677500D03*
X135997500Y-57677500D03*
X134937500Y-60237500D03*
X134937500Y-57237500D03*
X133437500Y-58737500D03*
X136437500Y-58737500D03*
D11*
X134937500Y-58737500D03*
%TD*%
D10*
%TO.P,M2,1*%
%TO.N,N/C*%
X59797500Y-97897500D03*
X57677500Y-97897500D03*
X57677500Y-95777500D03*
X59797500Y-95777500D03*
X58737500Y-98337500D03*
X58737500Y-95337500D03*
X57237500Y-96837500D03*
X60237500Y-96837500D03*
D11*
X58737500Y-96837500D03*
%TD*%
D10*
%TO.P,M1,1*%
%TO.N,N/C*%
X59797500Y-59797500D03*
X57677500Y-59797500D03*
X57677500Y-57677500D03*
X59797500Y-57677500D03*
X58737500Y-60237500D03*
X58737500Y-57237500D03*
X57237500Y-58737500D03*
X60237500Y-58737500D03*
D11*
X58737500Y-58737500D03*
%TD*%
M02*
