%TF.GenerationSoftware,KiCad,Pcbnew,5.1.9+dfsg1-1*%
%TF.CreationDate,2022-03-28T15:57:18+02:00*%
%TF.ProjectId,la_nc-plate,6c615f6e-632d-4706-9c61-74652e6b6963,rev?*%
%TF.SameCoordinates,Original*%
%TF.FileFunction,Profile,NP*%
%FSLAX46Y46*%
G04 Gerber Fmt 4.6, Leading zero omitted, Abs format (unit mm)*
G04 Created by KiCad (PCBNEW 5.1.9+dfsg1-1) date 2022-03-28 15:57:18*
%MOMM*%
%LPD*%
G01*
G04 APERTURE LIST*
%TA.AperFunction,Profile*%
%ADD10C,0.050000*%
%TD*%
%TA.AperFunction,Profile*%
%ADD11C,0.120000*%
%TD*%
G04 APERTURE END LIST*
D10*
X171450000Y-31750000D02*
X173037500Y-31750000D01*
X170656250Y-34131250D02*
X170656250Y-32543750D01*
X170656250Y-32543750D02*
G75*
G02*
X171450000Y-31750000I793750J0D01*
G01*
X136525000Y-31750000D02*
X134937500Y-31750000D01*
X137318750Y-34131250D02*
X137318750Y-32543750D01*
X136525000Y-31750000D02*
G75*
G02*
X137318750Y-32543750I0J-793750D01*
G01*
X173037500Y-31750000D02*
X265906250Y-31750000D01*
X170656250Y-84137500D02*
X170656250Y-34131250D01*
X139700000Y-86518750D02*
X168275000Y-86518750D01*
X137318750Y-34131250D02*
X137318750Y-84137500D01*
X42068750Y-31750000D02*
X134937500Y-31750000D01*
X268287500Y-34131250D02*
X268287500Y-105568750D01*
X39687500Y-105568750D02*
X39687500Y-34131250D01*
X265906250Y-107950000D02*
X42068750Y-107950000D01*
X268287500Y-105568750D02*
G75*
G02*
X265906250Y-107950000I-2381250J0D01*
G01*
X265906250Y-31750000D02*
G75*
G02*
X268287500Y-34131250I0J-2381250D01*
G01*
X170656250Y-84137500D02*
G75*
G02*
X168275000Y-86518750I-2381250J0D01*
G01*
X139700000Y-86518750D02*
G75*
G02*
X137318750Y-84137500I0J2381250D01*
G01*
X42068750Y-107950000D02*
G75*
G02*
X39687500Y-105568750I0J2381250D01*
G01*
X39687500Y-34131250D02*
G75*
G02*
X42068750Y-31750000I2381250J0D01*
G01*
D11*
%TO.C,H42*%
X265762500Y-91425000D02*
X251762500Y-91425000D01*
X265762500Y-105425000D02*
X265762500Y-91425000D01*
X251762500Y-105425000D02*
X265762500Y-105425000D01*
X251762500Y-91425000D02*
X251762500Y-105425000D01*
%TO.C,H41*%
X265762500Y-72375000D02*
X251762500Y-72375000D01*
X265762500Y-86375000D02*
X265762500Y-72375000D01*
X251762500Y-86375000D02*
X265762500Y-86375000D01*
X251762500Y-72375000D02*
X251762500Y-86375000D01*
%TO.C,H40*%
X265762500Y-53325000D02*
X251762500Y-53325000D01*
X265762500Y-67325000D02*
X265762500Y-53325000D01*
X251762500Y-67325000D02*
X265762500Y-67325000D01*
X251762500Y-53325000D02*
X251762500Y-67325000D01*
%TO.C,H39*%
X265762500Y-34275000D02*
X251762500Y-34275000D01*
X265762500Y-48275000D02*
X265762500Y-34275000D01*
X251762500Y-48275000D02*
X265762500Y-48275000D01*
X251762500Y-34275000D02*
X251762500Y-48275000D01*
%TO.C,H38*%
X246712500Y-91425000D02*
X232712500Y-91425000D01*
X246712500Y-105425000D02*
X246712500Y-91425000D01*
X232712500Y-105425000D02*
X246712500Y-105425000D01*
X232712500Y-91425000D02*
X232712500Y-105425000D01*
%TO.C,H37*%
X246712500Y-72375000D02*
X232712500Y-72375000D01*
X246712500Y-86375000D02*
X246712500Y-72375000D01*
X232712500Y-86375000D02*
X246712500Y-86375000D01*
X232712500Y-72375000D02*
X232712500Y-86375000D01*
%TO.C,H36*%
X246712500Y-53325000D02*
X232712500Y-53325000D01*
X246712500Y-67325000D02*
X246712500Y-53325000D01*
X232712500Y-67325000D02*
X246712500Y-67325000D01*
X232712500Y-53325000D02*
X232712500Y-67325000D01*
%TO.C,H35*%
X246712500Y-34275000D02*
X232712500Y-34275000D01*
X246712500Y-48275000D02*
X246712500Y-34275000D01*
X232712500Y-48275000D02*
X246712500Y-48275000D01*
X232712500Y-34275000D02*
X232712500Y-48275000D01*
%TO.C,H34*%
X227662500Y-91425000D02*
X213662500Y-91425000D01*
X227662500Y-105425000D02*
X227662500Y-91425000D01*
X213662500Y-105425000D02*
X227662500Y-105425000D01*
X213662500Y-91425000D02*
X213662500Y-105425000D01*
%TO.C,H33*%
X227662500Y-72375000D02*
X213662500Y-72375000D01*
X227662500Y-86375000D02*
X227662500Y-72375000D01*
X213662500Y-86375000D02*
X227662500Y-86375000D01*
X213662500Y-72375000D02*
X213662500Y-86375000D01*
%TO.C,H32*%
X227662500Y-53325000D02*
X213662500Y-53325000D01*
X227662500Y-67325000D02*
X227662500Y-53325000D01*
X213662500Y-67325000D02*
X227662500Y-67325000D01*
X213662500Y-53325000D02*
X213662500Y-67325000D01*
%TO.C,H31*%
X227662500Y-34275000D02*
X213662500Y-34275000D01*
X227662500Y-48275000D02*
X227662500Y-34275000D01*
X213662500Y-48275000D02*
X227662500Y-48275000D01*
X213662500Y-34275000D02*
X213662500Y-48275000D01*
%TO.C,H30*%
X208612500Y-91425000D02*
X194612500Y-91425000D01*
X208612500Y-105425000D02*
X208612500Y-91425000D01*
X194612500Y-105425000D02*
X208612500Y-105425000D01*
X194612500Y-91425000D02*
X194612500Y-105425000D01*
%TO.C,H29*%
X208612500Y-72375000D02*
X194612500Y-72375000D01*
X208612500Y-86375000D02*
X208612500Y-72375000D01*
X194612500Y-86375000D02*
X208612500Y-86375000D01*
X194612500Y-72375000D02*
X194612500Y-86375000D01*
%TO.C,H28*%
X208612500Y-53325000D02*
X194612500Y-53325000D01*
X208612500Y-67325000D02*
X208612500Y-53325000D01*
X194612500Y-67325000D02*
X208612500Y-67325000D01*
X194612500Y-53325000D02*
X194612500Y-67325000D01*
%TO.C,H27*%
X208612500Y-34275000D02*
X194612500Y-34275000D01*
X208612500Y-48275000D02*
X208612500Y-34275000D01*
X194612500Y-48275000D02*
X208612500Y-48275000D01*
X194612500Y-34275000D02*
X194612500Y-48275000D01*
%TO.C,H26*%
X189562500Y-91425000D02*
X175562500Y-91425000D01*
X189562500Y-105425000D02*
X189562500Y-91425000D01*
X175562500Y-105425000D02*
X189562500Y-105425000D01*
X175562500Y-91425000D02*
X175562500Y-105425000D01*
%TO.C,H25*%
X189562500Y-72375000D02*
X175562500Y-72375000D01*
X189562500Y-86375000D02*
X189562500Y-72375000D01*
X175562500Y-86375000D02*
X189562500Y-86375000D01*
X175562500Y-72375000D02*
X175562500Y-86375000D01*
%TO.C,H24*%
X189562500Y-53325000D02*
X175562500Y-53325000D01*
X189562500Y-67325000D02*
X189562500Y-53325000D01*
X175562500Y-67325000D02*
X189562500Y-67325000D01*
X175562500Y-53325000D02*
X175562500Y-67325000D01*
%TO.C,H23*%
X189562500Y-34275000D02*
X175562500Y-34275000D01*
X189562500Y-48275000D02*
X189562500Y-34275000D01*
X175562500Y-48275000D02*
X189562500Y-48275000D01*
X175562500Y-34275000D02*
X175562500Y-48275000D01*
%TO.C,H22*%
X170512500Y-91425000D02*
X156512500Y-91425000D01*
X170512500Y-105425000D02*
X170512500Y-91425000D01*
X156512500Y-105425000D02*
X170512500Y-105425000D01*
X156512500Y-91425000D02*
X156512500Y-105425000D01*
%TO.C,H21*%
X151462500Y-91425000D02*
X137462500Y-91425000D01*
X151462500Y-105425000D02*
X151462500Y-91425000D01*
X137462500Y-105425000D02*
X151462500Y-105425000D01*
X137462500Y-91425000D02*
X137462500Y-105425000D01*
%TO.C,H20*%
X132412500Y-91425000D02*
X118412500Y-91425000D01*
X132412500Y-105425000D02*
X132412500Y-91425000D01*
X118412500Y-105425000D02*
X132412500Y-105425000D01*
X118412500Y-91425000D02*
X118412500Y-105425000D01*
%TO.C,H19*%
X132412500Y-72375000D02*
X118412500Y-72375000D01*
X132412500Y-86375000D02*
X132412500Y-72375000D01*
X118412500Y-86375000D02*
X132412500Y-86375000D01*
X118412500Y-72375000D02*
X118412500Y-86375000D01*
%TO.C,H18*%
X132412500Y-53325000D02*
X118412500Y-53325000D01*
X132412500Y-67325000D02*
X132412500Y-53325000D01*
X118412500Y-67325000D02*
X132412500Y-67325000D01*
X118412500Y-53325000D02*
X118412500Y-67325000D01*
%TO.C,H17*%
X132412500Y-34275000D02*
X118412500Y-34275000D01*
X132412500Y-48275000D02*
X132412500Y-34275000D01*
X118412500Y-48275000D02*
X132412500Y-48275000D01*
X118412500Y-34275000D02*
X118412500Y-48275000D01*
%TO.C,H16*%
X113362500Y-91425000D02*
X99362500Y-91425000D01*
X113362500Y-105425000D02*
X113362500Y-91425000D01*
X99362500Y-105425000D02*
X113362500Y-105425000D01*
X99362500Y-91425000D02*
X99362500Y-105425000D01*
%TO.C,H15*%
X113362500Y-72375000D02*
X99362500Y-72375000D01*
X113362500Y-86375000D02*
X113362500Y-72375000D01*
X99362500Y-86375000D02*
X113362500Y-86375000D01*
X99362500Y-72375000D02*
X99362500Y-86375000D01*
%TO.C,H14*%
X113362500Y-53325000D02*
X99362500Y-53325000D01*
X113362500Y-67325000D02*
X113362500Y-53325000D01*
X99362500Y-67325000D02*
X113362500Y-67325000D01*
X99362500Y-53325000D02*
X99362500Y-67325000D01*
%TO.C,H13*%
X113362500Y-34275000D02*
X99362500Y-34275000D01*
X113362500Y-48275000D02*
X113362500Y-34275000D01*
X99362500Y-48275000D02*
X113362500Y-48275000D01*
X99362500Y-34275000D02*
X99362500Y-48275000D01*
%TO.C,H12*%
X94312500Y-91425000D02*
X80312500Y-91425000D01*
X94312500Y-105425000D02*
X94312500Y-91425000D01*
X80312500Y-105425000D02*
X94312500Y-105425000D01*
X80312500Y-91425000D02*
X80312500Y-105425000D01*
%TO.C,H11*%
X94312500Y-72375000D02*
X80312500Y-72375000D01*
X94312500Y-86375000D02*
X94312500Y-72375000D01*
X80312500Y-86375000D02*
X94312500Y-86375000D01*
X80312500Y-72375000D02*
X80312500Y-86375000D01*
%TO.C,H10*%
X94312500Y-53325000D02*
X80312500Y-53325000D01*
X94312500Y-67325000D02*
X94312500Y-53325000D01*
X80312500Y-67325000D02*
X94312500Y-67325000D01*
X80312500Y-53325000D02*
X80312500Y-67325000D01*
%TO.C,H9*%
X94312500Y-34275000D02*
X80312500Y-34275000D01*
X94312500Y-48275000D02*
X94312500Y-34275000D01*
X80312500Y-48275000D02*
X94312500Y-48275000D01*
X80312500Y-34275000D02*
X80312500Y-48275000D01*
%TO.C,H8*%
X75262500Y-91425000D02*
X61262500Y-91425000D01*
X75262500Y-105425000D02*
X75262500Y-91425000D01*
X61262500Y-105425000D02*
X75262500Y-105425000D01*
X61262500Y-91425000D02*
X61262500Y-105425000D01*
%TO.C,H7*%
X75262500Y-72375000D02*
X61262500Y-72375000D01*
X75262500Y-86375000D02*
X75262500Y-72375000D01*
X61262500Y-86375000D02*
X75262500Y-86375000D01*
X61262500Y-72375000D02*
X61262500Y-86375000D01*
%TO.C,H6*%
X75262500Y-53325000D02*
X61262500Y-53325000D01*
X75262500Y-67325000D02*
X75262500Y-53325000D01*
X61262500Y-67325000D02*
X75262500Y-67325000D01*
X61262500Y-53325000D02*
X61262500Y-67325000D01*
%TO.C,H5*%
X75262500Y-34275000D02*
X61262500Y-34275000D01*
X75262500Y-48275000D02*
X75262500Y-34275000D01*
X61262500Y-48275000D02*
X75262500Y-48275000D01*
X61262500Y-34275000D02*
X61262500Y-48275000D01*
%TO.C,H4*%
X56212500Y-91425000D02*
X42212500Y-91425000D01*
X56212500Y-105425000D02*
X56212500Y-91425000D01*
X42212500Y-105425000D02*
X56212500Y-105425000D01*
X42212500Y-91425000D02*
X42212500Y-105425000D01*
%TO.C,H3*%
X56212500Y-72375000D02*
X42212500Y-72375000D01*
X56212500Y-86375000D02*
X56212500Y-72375000D01*
X42212500Y-86375000D02*
X56212500Y-86375000D01*
X42212500Y-72375000D02*
X42212500Y-86375000D01*
%TO.C,H2*%
X56212500Y-53325000D02*
X42212500Y-53325000D01*
X56212500Y-67325000D02*
X56212500Y-53325000D01*
X42212500Y-67325000D02*
X56212500Y-67325000D01*
X42212500Y-53325000D02*
X42212500Y-67325000D01*
%TO.C,H1*%
X56212500Y-34275000D02*
X42212500Y-34275000D01*
X56212500Y-48275000D02*
X56212500Y-34275000D01*
X42212500Y-48275000D02*
X56212500Y-48275000D01*
X42212500Y-34275000D02*
X42212500Y-48275000D01*
%TD*%
M02*
