%FSLAX45Y45*%
G04 Gerber Fmt 4.5, Leading zero omitted, Abs format (unit mm)*
G04 Created by KiCad (PCBNEW 5.1.9+dfsg1-1) date 2022-03-28 15:57:16*
%MOMM*%
%LPD*%
G01*
G04 APERTURE LIST*
%TA.AperFunction,Profile*%
%ADD10C,0.050000*%
%TD*%
%ADD11C,0.200000*%
%ADD12C,0.300000*%
G04 APERTURE END LIST*
D10*
X17145000Y-3175000D02*
X17303750Y-3175000D01*
X17065625Y-3413125D02*
X17065625Y-3254375D01*
X17065625Y-3254375D02*
G75*
G02*
X17145000Y-3175000I79375J0D01*
G01*
X13652500Y-3175000D02*
X13493750Y-3175000D01*
X13731875Y-3413125D02*
X13731875Y-3254375D01*
X13652500Y-3175000D02*
G75*
G02*
X13731875Y-3254375I0J-79375D01*
G01*
X17303750Y-3175000D02*
X26590625Y-3175000D01*
X17065625Y-8413750D02*
X17065625Y-3413125D01*
X13970000Y-8651875D02*
X16827500Y-8651875D01*
X13731875Y-3413125D02*
X13731875Y-8413750D01*
X4206875Y-3175000D02*
X13493750Y-3175000D01*
X26828750Y-3413125D02*
X26828750Y-10556875D01*
X3968750Y-10556875D02*
X3968750Y-3413125D01*
X26590625Y-10795000D02*
X4206875Y-10795000D01*
X26828750Y-10556875D02*
G75*
G02*
X26590625Y-10795000I-238125J0D01*
G01*
X26590625Y-3175000D02*
G75*
G02*
X26828750Y-3413125I0J-238125D01*
G01*
X17065625Y-8413750D02*
G75*
G02*
X16827500Y-8651875I-238125J0D01*
G01*
X13970000Y-8651875D02*
G75*
G02*
X13731875Y-8413750I0J238125D01*
G01*
X4206875Y-10795000D02*
G75*
G02*
X3968750Y-10556875I0J238125D01*
G01*
X3968750Y-3413125D02*
G75*
G02*
X4206875Y-3175000I238125J0D01*
G01*
D11*
D12*
X4252678Y-11263214D02*
X4252678Y-10963214D01*
X4324107Y-10963214D01*
X4366964Y-10977500D01*
X4395536Y-11006072D01*
X4409821Y-11034643D01*
X4424107Y-11091786D01*
X4424107Y-11134643D01*
X4409821Y-11191786D01*
X4395536Y-11220357D01*
X4366964Y-11248929D01*
X4324107Y-11263214D01*
X4252678Y-11263214D01*
X4552678Y-11263214D02*
X4552678Y-11063214D01*
X4552678Y-11120357D02*
X4566964Y-11091786D01*
X4581250Y-11077500D01*
X4609821Y-11063214D01*
X4638393Y-11063214D01*
X4738393Y-11263214D02*
X4738393Y-11063214D01*
X4738393Y-10963214D02*
X4724107Y-10977500D01*
X4738393Y-10991786D01*
X4752678Y-10977500D01*
X4738393Y-10963214D01*
X4738393Y-10991786D01*
X4924107Y-11263214D02*
X4895536Y-11248929D01*
X4881250Y-11220357D01*
X4881250Y-10963214D01*
X5081250Y-11263214D02*
X5052678Y-11248929D01*
X5038393Y-11220357D01*
X5038393Y-10963214D01*
X5424107Y-11263214D02*
X5424107Y-10963214D01*
X5524107Y-11177500D01*
X5624107Y-10963214D01*
X5624107Y-11263214D01*
X5895536Y-11263214D02*
X5895536Y-11106072D01*
X5881250Y-11077500D01*
X5852678Y-11063214D01*
X5795536Y-11063214D01*
X5766964Y-11077500D01*
X5895536Y-11248929D02*
X5866964Y-11263214D01*
X5795536Y-11263214D01*
X5766964Y-11248929D01*
X5752678Y-11220357D01*
X5752678Y-11191786D01*
X5766964Y-11163214D01*
X5795536Y-11148929D01*
X5866964Y-11148929D01*
X5895536Y-11134643D01*
X6038393Y-11063214D02*
X6038393Y-11363214D01*
X6038393Y-11077500D02*
X6066964Y-11063214D01*
X6124107Y-11063214D01*
X6152678Y-11077500D01*
X6166964Y-11091786D01*
X6181250Y-11120357D01*
X6181250Y-11206071D01*
X6166964Y-11234643D01*
X6152678Y-11248929D01*
X6124107Y-11263214D01*
X6066964Y-11263214D01*
X6038393Y-11248929D01*
X6309821Y-11234643D02*
X6324107Y-11248929D01*
X6309821Y-11263214D01*
X6295536Y-11248929D01*
X6309821Y-11234643D01*
X6309821Y-11263214D01*
X6309821Y-11077500D02*
X6324107Y-11091786D01*
X6309821Y-11106072D01*
X6295536Y-11091786D01*
X6309821Y-11077500D01*
X6309821Y-11106072D01*
M02*
