%TF.GenerationSoftware,KiCad,Pcbnew,5.1.9+dfsg1-1*%
%TF.CreationDate,2022-03-28T15:57:18+02:00*%
%TF.ProjectId,la_nc-plate,6c615f6e-632d-4706-9c61-74652e6b6963,rev?*%
%TF.SameCoordinates,Original*%
%TF.FileFunction,Copper,L1,Top*%
%TF.FilePolarity,Positive*%
%FSLAX46Y46*%
G04 Gerber Fmt 4.6, Leading zero omitted, Abs format (unit mm)*
G04 Created by KiCad (PCBNEW 5.1.9+dfsg1-1) date 2022-03-28 15:57:18*
%MOMM*%
%LPD*%
G01*
G04 APERTURE LIST*
%TA.AperFunction,ComponentPad*%
%ADD10C,0.500000*%
%TD*%
%TA.AperFunction,ComponentPad*%
%ADD11C,4.000000*%
%TD*%
G04 APERTURE END LIST*
D10*
%TO.P,M8,1*%
%TO.N,N/C*%
X250297500Y-89960000D03*
X248177500Y-89960000D03*
X248177500Y-87840000D03*
X250297500Y-87840000D03*
X249237500Y-90400000D03*
X249237500Y-87400000D03*
X247737500Y-88900000D03*
X250737500Y-88900000D03*
D11*
X249237500Y-88900000D03*
%TD*%
D10*
%TO.P,M7,1*%
%TO.N,N/C*%
X250297500Y-51860000D03*
X248177500Y-51860000D03*
X248177500Y-49740000D03*
X250297500Y-49740000D03*
X249237500Y-52300000D03*
X249237500Y-49300000D03*
X247737500Y-50800000D03*
X250737500Y-50800000D03*
D11*
X249237500Y-50800000D03*
%TD*%
D10*
%TO.P,M6,1*%
%TO.N,N/C*%
X174097500Y-89960000D03*
X171977500Y-89960000D03*
X171977500Y-87840000D03*
X174097500Y-87840000D03*
X173037500Y-90400000D03*
X173037500Y-87400000D03*
X171537500Y-88900000D03*
X174537500Y-88900000D03*
D11*
X173037500Y-88900000D03*
%TD*%
D10*
%TO.P,M5,1*%
%TO.N,N/C*%
X174097500Y-51860000D03*
X171977500Y-51860000D03*
X171977500Y-49740000D03*
X174097500Y-49740000D03*
X173037500Y-52300000D03*
X173037500Y-49300000D03*
X171537500Y-50800000D03*
X174537500Y-50800000D03*
D11*
X173037500Y-50800000D03*
%TD*%
D10*
%TO.P,M4,1*%
%TO.N,N/C*%
X135997500Y-89960000D03*
X133877500Y-89960000D03*
X133877500Y-87840000D03*
X135997500Y-87840000D03*
X134937500Y-90400000D03*
X134937500Y-87400000D03*
X133437500Y-88900000D03*
X136437500Y-88900000D03*
D11*
X134937500Y-88900000D03*
%TD*%
D10*
%TO.P,M3,1*%
%TO.N,N/C*%
X135997500Y-51860000D03*
X133877500Y-51860000D03*
X133877500Y-49740000D03*
X135997500Y-49740000D03*
X134937500Y-52300000D03*
X134937500Y-49300000D03*
X133437500Y-50800000D03*
X136437500Y-50800000D03*
D11*
X134937500Y-50800000D03*
%TD*%
D10*
%TO.P,M2,1*%
%TO.N,N/C*%
X59797500Y-89960000D03*
X57677500Y-89960000D03*
X57677500Y-87840000D03*
X59797500Y-87840000D03*
X58737500Y-90400000D03*
X58737500Y-87400000D03*
X57237500Y-88900000D03*
X60237500Y-88900000D03*
D11*
X58737500Y-88900000D03*
%TD*%
D10*
%TO.P,M1,1*%
%TO.N,N/C*%
X59797500Y-51860000D03*
X57677500Y-51860000D03*
X57677500Y-49740000D03*
X59797500Y-49740000D03*
X58737500Y-52300000D03*
X58737500Y-49300000D03*
X57237500Y-50800000D03*
X60237500Y-50800000D03*
D11*
X58737500Y-50800000D03*
%TD*%
M02*
