M48
; DRILL file {KiCad 5.1.9+dfsg1-1} date Mon Mar 28 15:57:17 2022
; FORMAT={-:-/ absolute / metric / decimal}
; #@! TF.CreationDate,2022-03-28T15:57:17+02:00
; #@! TF.GenerationSoftware,Kicad,Pcbnew,5.1.9+dfsg1-1
; #@! TF.FileFunction,Plated,1,2,PTH
FMAT,2
METRIC
T1C0.400
T2C2.300
%
G90
G05
T1
X57.237Y-50.8
X57.237Y-88.9
X57.677Y-49.74
X57.677Y-51.86
X57.677Y-87.84
X57.677Y-89.96
X58.737Y-49.3
X58.737Y-52.3
X58.737Y-87.4
X58.737Y-90.4
X59.797Y-49.74
X59.797Y-51.86
X59.797Y-87.84
X59.797Y-89.96
X60.237Y-50.8
X60.237Y-88.9
X133.438Y-50.8
X133.438Y-88.9
X133.877Y-49.74
X133.877Y-51.86
X133.877Y-87.84
X133.877Y-89.96
X134.938Y-49.3
X134.938Y-52.3
X134.938Y-87.4
X134.938Y-90.4
X135.998Y-49.74
X135.998Y-51.86
X135.998Y-87.84
X135.998Y-89.96
X136.438Y-50.8
X136.438Y-88.9
X171.537Y-50.8
X171.537Y-88.9
X171.977Y-49.74
X171.977Y-51.86
X171.977Y-87.84
X171.977Y-89.96
X173.037Y-49.3
X173.037Y-52.3
X173.037Y-87.4
X173.037Y-90.4
X174.097Y-49.74
X174.097Y-51.86
X174.097Y-87.84
X174.097Y-89.96
X174.537Y-50.8
X174.537Y-88.9
X247.737Y-50.8
X247.737Y-88.9
X248.177Y-49.74
X248.177Y-51.86
X248.177Y-87.84
X248.177Y-89.96
X249.237Y-49.3
X249.237Y-52.3
X249.237Y-87.4
X249.237Y-90.4
X250.297Y-49.74
X250.297Y-51.86
X250.297Y-87.84
X250.297Y-89.96
X250.737Y-50.8
X250.737Y-88.9
T2
X58.737Y-50.8
X58.737Y-88.9
X134.938Y-50.8
X134.938Y-88.9
X173.037Y-50.8
X173.037Y-88.9
X249.237Y-50.8
X249.237Y-88.9
T0
M30
