%FSLAX45Y45*%
G04 Gerber Fmt 4.5, Leading zero omitted, Abs format (unit mm)*
G04 Created by KiCad (PCBNEW 5.1.9+dfsg1-1) date 2022-03-28 16:07:04*
%MOMM*%
%LPD*%
G01*
G04 APERTURE LIST*
%TA.AperFunction,Profile*%
%ADD10C,0.050000*%
%TD*%
%ADD11C,0.200000*%
%ADD12C,0.300000*%
G04 APERTURE END LIST*
D10*
X3413125Y-10795000D02*
X25796875Y-10795000D01*
X3175000Y-3413125D02*
X3175000Y-10556875D01*
X25796875Y-3175000D02*
X3413125Y-3175000D01*
X26035000Y-10556875D02*
X26035000Y-3413125D01*
X26035000Y-10556875D02*
G75*
G02*
X25796875Y-10795000I-238125J0D01*
G01*
X3413125Y-10795000D02*
G75*
G02*
X3175000Y-10556875I0J238125D01*
G01*
X3175000Y-3413125D02*
G75*
G02*
X3413125Y-3175000I238125J0D01*
G01*
X25796875Y-3175000D02*
G75*
G02*
X26035000Y-3413125I0J-238125D01*
G01*
D11*
X3218500Y-3777300D02*
X3258500Y-3817300D01*
X3258500Y-3777300D02*
X3218500Y-3817300D01*
X3218500Y-3929700D02*
X3258500Y-3969700D01*
X3258500Y-3929700D02*
X3218500Y-3969700D01*
X3218500Y-5682300D02*
X3258500Y-5722300D01*
X3258500Y-5682300D02*
X3218500Y-5722300D01*
X3218500Y-5834700D02*
X3258500Y-5874700D01*
X3258500Y-5834700D02*
X3218500Y-5874700D01*
X3218500Y-7587300D02*
X3258500Y-7627300D01*
X3258500Y-7587300D02*
X3218500Y-7627300D01*
X3218500Y-7739700D02*
X3258500Y-7779700D01*
X3258500Y-7739700D02*
X3218500Y-7779700D01*
X3218500Y-9492300D02*
X3258500Y-9532300D01*
X3258500Y-9492300D02*
X3218500Y-9532300D01*
X3218500Y-9644700D02*
X3258500Y-9684700D01*
X3258500Y-9644700D02*
X3218500Y-9684700D01*
X3710625Y-7123750D02*
X3750625Y-7163750D01*
X3750625Y-7123750D02*
X3710625Y-7163750D01*
X4869500Y-3523300D02*
X4909500Y-3563300D01*
X4909500Y-3523300D02*
X4869500Y-3563300D01*
X4869500Y-3675700D02*
X4909500Y-3715700D01*
X4909500Y-3675700D02*
X4869500Y-3715700D01*
X4869500Y-5428300D02*
X4909500Y-5468300D01*
X4909500Y-5428300D02*
X4869500Y-5468300D01*
X4869500Y-5580700D02*
X4909500Y-5620700D01*
X4909500Y-5580700D02*
X4869500Y-5620700D01*
X4869500Y-7333300D02*
X4909500Y-7373300D01*
X4909500Y-7333300D02*
X4869500Y-7373300D01*
X4869500Y-7485700D02*
X4909500Y-7525700D01*
X4909500Y-7485700D02*
X4869500Y-7525700D01*
X4869500Y-9238300D02*
X4909500Y-9278300D01*
X4909500Y-9238300D02*
X4869500Y-9278300D01*
X4869500Y-9390700D02*
X4909500Y-9430700D01*
X4909500Y-9390700D02*
X4869500Y-9430700D01*
X5123500Y-3777300D02*
X5163500Y-3817300D01*
X5163500Y-3777300D02*
X5123500Y-3817300D01*
X5123500Y-3929700D02*
X5163500Y-3969700D01*
X5163500Y-3929700D02*
X5123500Y-3969700D01*
X5123500Y-5682300D02*
X5163500Y-5722300D01*
X5163500Y-5682300D02*
X5123500Y-5722300D01*
X5123500Y-5834700D02*
X5163500Y-5874700D01*
X5163500Y-5834700D02*
X5123500Y-5874700D01*
X5123500Y-7587300D02*
X5163500Y-7627300D01*
X5163500Y-7587300D02*
X5123500Y-7627300D01*
X5123500Y-7739700D02*
X5163500Y-7779700D01*
X5163500Y-7739700D02*
X5123500Y-7779700D01*
X5123500Y-9492300D02*
X5163500Y-9532300D01*
X5163500Y-9492300D02*
X5123500Y-9532300D01*
X5123500Y-9644700D02*
X5163500Y-9684700D01*
X5163500Y-9644700D02*
X5123500Y-9684700D01*
X5615625Y-6965000D02*
X5655625Y-7005000D01*
X5655625Y-6965000D02*
X5615625Y-7005000D01*
X6774500Y-3523300D02*
X6814500Y-3563300D01*
X6814500Y-3523300D02*
X6774500Y-3563300D01*
X6774500Y-3675700D02*
X6814500Y-3715700D01*
X6814500Y-3675700D02*
X6774500Y-3715700D01*
X6774500Y-5428300D02*
X6814500Y-5468300D01*
X6814500Y-5428300D02*
X6774500Y-5468300D01*
X6774500Y-5580700D02*
X6814500Y-5620700D01*
X6814500Y-5580700D02*
X6774500Y-5620700D01*
X6774500Y-7333300D02*
X6814500Y-7373300D01*
X6814500Y-7333300D02*
X6774500Y-7373300D01*
X6774500Y-7485700D02*
X6814500Y-7525700D01*
X6814500Y-7485700D02*
X6774500Y-7525700D01*
X6774500Y-9238300D02*
X6814500Y-9278300D01*
X6814500Y-9238300D02*
X6774500Y-9278300D01*
X6774500Y-9390700D02*
X6814500Y-9430700D01*
X6814500Y-9390700D02*
X6774500Y-9430700D01*
X7028500Y-3777300D02*
X7068500Y-3817300D01*
X7068500Y-3777300D02*
X7028500Y-3817300D01*
X7028500Y-3929700D02*
X7068500Y-3969700D01*
X7068500Y-3929700D02*
X7028500Y-3969700D01*
X7028500Y-5682300D02*
X7068500Y-5722300D01*
X7068500Y-5682300D02*
X7028500Y-5722300D01*
X7028500Y-5834700D02*
X7068500Y-5874700D01*
X7068500Y-5834700D02*
X7028500Y-5874700D01*
X7028500Y-7587300D02*
X7068500Y-7627300D01*
X7068500Y-7587300D02*
X7028500Y-7627300D01*
X7028500Y-7739700D02*
X7068500Y-7779700D01*
X7068500Y-7739700D02*
X7028500Y-7779700D01*
X7028500Y-9492300D02*
X7068500Y-9532300D01*
X7068500Y-9492300D02*
X7028500Y-9532300D01*
X7028500Y-9644700D02*
X7068500Y-9684700D01*
X7068500Y-9644700D02*
X7028500Y-9684700D01*
X7520625Y-6806250D02*
X7560625Y-6846250D01*
X7560625Y-6806250D02*
X7520625Y-6846250D01*
X8679500Y-3523300D02*
X8719500Y-3563300D01*
X8719500Y-3523300D02*
X8679500Y-3563300D01*
X8679500Y-3675700D02*
X8719500Y-3715700D01*
X8719500Y-3675700D02*
X8679500Y-3715700D01*
X8679500Y-5428300D02*
X8719500Y-5468300D01*
X8719500Y-5428300D02*
X8679500Y-5468300D01*
X8679500Y-5580700D02*
X8719500Y-5620700D01*
X8719500Y-5580700D02*
X8679500Y-5620700D01*
X8679500Y-7333300D02*
X8719500Y-7373300D01*
X8719500Y-7333300D02*
X8679500Y-7373300D01*
X8679500Y-7485700D02*
X8719500Y-7525700D01*
X8719500Y-7485700D02*
X8679500Y-7525700D01*
X8679500Y-9238300D02*
X8719500Y-9278300D01*
X8719500Y-9238300D02*
X8679500Y-9278300D01*
X8679500Y-9390700D02*
X8719500Y-9430700D01*
X8719500Y-9390700D02*
X8679500Y-9430700D01*
X8933500Y-3777300D02*
X8973500Y-3817300D01*
X8973500Y-3777300D02*
X8933500Y-3817300D01*
X8933500Y-3929700D02*
X8973500Y-3969700D01*
X8973500Y-3929700D02*
X8933500Y-3969700D01*
X8933500Y-5682300D02*
X8973500Y-5722300D01*
X8973500Y-5682300D02*
X8933500Y-5722300D01*
X8933500Y-5834700D02*
X8973500Y-5874700D01*
X8973500Y-5834700D02*
X8933500Y-5874700D01*
X8933500Y-7587300D02*
X8973500Y-7627300D01*
X8973500Y-7587300D02*
X8933500Y-7627300D01*
X8933500Y-7739700D02*
X8973500Y-7779700D01*
X8973500Y-7739700D02*
X8933500Y-7779700D01*
X8933500Y-9492300D02*
X8973500Y-9532300D01*
X8973500Y-9492300D02*
X8933500Y-9532300D01*
X8933500Y-9644700D02*
X8973500Y-9684700D01*
X8973500Y-9644700D02*
X8933500Y-9684700D01*
X9425625Y-6647500D02*
X9465625Y-6687500D01*
X9465625Y-6647500D02*
X9425625Y-6687500D01*
X10584500Y-3523300D02*
X10624500Y-3563300D01*
X10624500Y-3523300D02*
X10584500Y-3563300D01*
X10584500Y-3675700D02*
X10624500Y-3715700D01*
X10624500Y-3675700D02*
X10584500Y-3715700D01*
X10584500Y-5428300D02*
X10624500Y-5468300D01*
X10624500Y-5428300D02*
X10584500Y-5468300D01*
X10584500Y-5580700D02*
X10624500Y-5620700D01*
X10624500Y-5580700D02*
X10584500Y-5620700D01*
X10584500Y-7333300D02*
X10624500Y-7373300D01*
X10624500Y-7333300D02*
X10584500Y-7373300D01*
X10584500Y-7485700D02*
X10624500Y-7525700D01*
X10624500Y-7485700D02*
X10584500Y-7525700D01*
X10584500Y-9238300D02*
X10624500Y-9278300D01*
X10624500Y-9238300D02*
X10584500Y-9278300D01*
X10584500Y-9390700D02*
X10624500Y-9430700D01*
X10624500Y-9390700D02*
X10584500Y-9430700D01*
X10838500Y-3777300D02*
X10878500Y-3817300D01*
X10878500Y-3777300D02*
X10838500Y-3817300D01*
X10838500Y-3929700D02*
X10878500Y-3969700D01*
X10878500Y-3929700D02*
X10838500Y-3969700D01*
X10838500Y-5682300D02*
X10878500Y-5722300D01*
X10878500Y-5682300D02*
X10838500Y-5722300D01*
X10838500Y-5834700D02*
X10878500Y-5874700D01*
X10878500Y-5834700D02*
X10838500Y-5874700D01*
X10838500Y-7587300D02*
X10878500Y-7627300D01*
X10878500Y-7587300D02*
X10838500Y-7627300D01*
X10838500Y-7739700D02*
X10878500Y-7779700D01*
X10878500Y-7739700D02*
X10838500Y-7779700D01*
X10838500Y-9492300D02*
X10878500Y-9532300D01*
X10878500Y-9492300D02*
X10838500Y-9532300D01*
X10838500Y-9644700D02*
X10878500Y-9684700D01*
X10878500Y-9644700D02*
X10838500Y-9684700D01*
X11013125Y-9187500D02*
X11053125Y-9227500D01*
X11053125Y-9187500D02*
X11013125Y-9227500D01*
X11013125Y-10060625D02*
X11053125Y-10100625D01*
X11053125Y-10060625D02*
X11013125Y-10100625D01*
X11330625Y-6488750D02*
X11370625Y-6528750D01*
X11370625Y-6488750D02*
X11330625Y-6528750D01*
X12489500Y-3523300D02*
X12529500Y-3563300D01*
X12529500Y-3523300D02*
X12489500Y-3563300D01*
X12489500Y-3675700D02*
X12529500Y-3715700D01*
X12529500Y-3675700D02*
X12489500Y-3715700D01*
X12489500Y-5428300D02*
X12529500Y-5468300D01*
X12529500Y-5428300D02*
X12489500Y-5468300D01*
X12489500Y-5580700D02*
X12529500Y-5620700D01*
X12529500Y-5580700D02*
X12489500Y-5620700D01*
X12489500Y-7333300D02*
X12529500Y-7373300D01*
X12529500Y-7333300D02*
X12489500Y-7373300D01*
X12489500Y-7485700D02*
X12529500Y-7525700D01*
X12529500Y-7485700D02*
X12489500Y-7525700D01*
X12489500Y-9238300D02*
X12529500Y-9278300D01*
X12529500Y-9238300D02*
X12489500Y-9278300D01*
X12489500Y-9390700D02*
X12529500Y-9430700D01*
X12529500Y-9390700D02*
X12489500Y-9430700D01*
X12600625Y-8235000D02*
X12640625Y-8275000D01*
X12640625Y-8235000D02*
X12600625Y-8275000D01*
X12743500Y-9492300D02*
X12783500Y-9532300D01*
X12783500Y-9492300D02*
X12743500Y-9532300D01*
X12743500Y-9644700D02*
X12783500Y-9684700D01*
X12783500Y-9644700D02*
X12743500Y-9684700D01*
X12918125Y-10060625D02*
X12958125Y-10100625D01*
X12958125Y-10060625D02*
X12918125Y-10100625D01*
X14394500Y-9238300D02*
X14434500Y-9278300D01*
X14434500Y-9238300D02*
X14394500Y-9278300D01*
X14394500Y-9390700D02*
X14434500Y-9430700D01*
X14434500Y-9390700D02*
X14394500Y-9430700D01*
X14648500Y-9492300D02*
X14688500Y-9532300D01*
X14688500Y-9492300D02*
X14648500Y-9532300D01*
X14648500Y-9644700D02*
X14688500Y-9684700D01*
X14688500Y-9644700D02*
X14648500Y-9684700D01*
X16299500Y-9238300D02*
X16339500Y-9278300D01*
X16339500Y-9238300D02*
X16299500Y-9278300D01*
X16299500Y-9390700D02*
X16339500Y-9430700D01*
X16339500Y-9390700D02*
X16299500Y-9430700D01*
X16553500Y-3777300D02*
X16593500Y-3817300D01*
X16593500Y-3777300D02*
X16553500Y-3817300D01*
X16553500Y-3929700D02*
X16593500Y-3969700D01*
X16593500Y-3929700D02*
X16553500Y-3969700D01*
X16553500Y-5682300D02*
X16593500Y-5722300D01*
X16593500Y-5682300D02*
X16553500Y-5722300D01*
X16553500Y-5834700D02*
X16593500Y-5874700D01*
X16593500Y-5834700D02*
X16553500Y-5874700D01*
X16553500Y-7587300D02*
X16593500Y-7627300D01*
X16593500Y-7587300D02*
X16553500Y-7627300D01*
X16553500Y-7739700D02*
X16593500Y-7779700D01*
X16593500Y-7739700D02*
X16553500Y-7779700D01*
X16553500Y-9492300D02*
X16593500Y-9532300D01*
X16593500Y-9492300D02*
X16553500Y-9532300D01*
X16553500Y-9644700D02*
X16593500Y-9684700D01*
X16593500Y-9644700D02*
X16553500Y-9684700D01*
X16728125Y-8235000D02*
X16768125Y-8275000D01*
X16768125Y-8235000D02*
X16728125Y-8275000D01*
X16728125Y-10060625D02*
X16768125Y-10100625D01*
X16768125Y-10060625D02*
X16728125Y-10100625D01*
X17045625Y-6488750D02*
X17085625Y-6528750D01*
X17085625Y-6488750D02*
X17045625Y-6528750D01*
X17061500Y-8457250D02*
X17101500Y-8497250D01*
X17101500Y-8457250D02*
X17061500Y-8497250D01*
X18204500Y-3523300D02*
X18244500Y-3563300D01*
X18244500Y-3523300D02*
X18204500Y-3563300D01*
X18204500Y-3675700D02*
X18244500Y-3715700D01*
X18244500Y-3675700D02*
X18204500Y-3715700D01*
X18204500Y-5428300D02*
X18244500Y-5468300D01*
X18244500Y-5428300D02*
X18204500Y-5468300D01*
X18204500Y-5580700D02*
X18244500Y-5620700D01*
X18244500Y-5580700D02*
X18204500Y-5620700D01*
X18204500Y-7333300D02*
X18244500Y-7373300D01*
X18244500Y-7333300D02*
X18204500Y-7373300D01*
X18204500Y-7485700D02*
X18244500Y-7525700D01*
X18244500Y-7485700D02*
X18204500Y-7525700D01*
X18204500Y-9238300D02*
X18244500Y-9278300D01*
X18244500Y-9238300D02*
X18204500Y-9278300D01*
X18204500Y-9390700D02*
X18244500Y-9430700D01*
X18244500Y-9390700D02*
X18204500Y-9430700D01*
X18458500Y-3777300D02*
X18498500Y-3817300D01*
X18498500Y-3777300D02*
X18458500Y-3817300D01*
X18458500Y-3929700D02*
X18498500Y-3969700D01*
X18498500Y-3929700D02*
X18458500Y-3969700D01*
X18458500Y-5682300D02*
X18498500Y-5722300D01*
X18498500Y-5682300D02*
X18458500Y-5722300D01*
X18458500Y-5834700D02*
X18498500Y-5874700D01*
X18498500Y-5834700D02*
X18458500Y-5874700D01*
X18458500Y-7587300D02*
X18498500Y-7627300D01*
X18498500Y-7587300D02*
X18458500Y-7627300D01*
X18458500Y-7739700D02*
X18498500Y-7779700D01*
X18498500Y-7739700D02*
X18458500Y-7779700D01*
X18458500Y-9492300D02*
X18498500Y-9532300D01*
X18498500Y-9492300D02*
X18458500Y-9532300D01*
X18458500Y-9644700D02*
X18498500Y-9684700D01*
X18498500Y-9644700D02*
X18458500Y-9684700D01*
X18950625Y-6647500D02*
X18990625Y-6687500D01*
X18990625Y-6647500D02*
X18950625Y-6687500D01*
X20109500Y-3523300D02*
X20149500Y-3563300D01*
X20149500Y-3523300D02*
X20109500Y-3563300D01*
X20109500Y-3675700D02*
X20149500Y-3715700D01*
X20149500Y-3675700D02*
X20109500Y-3715700D01*
X20109500Y-5428300D02*
X20149500Y-5468300D01*
X20149500Y-5428300D02*
X20109500Y-5468300D01*
X20109500Y-5580700D02*
X20149500Y-5620700D01*
X20149500Y-5580700D02*
X20109500Y-5620700D01*
X20109500Y-7333300D02*
X20149500Y-7373300D01*
X20149500Y-7333300D02*
X20109500Y-7373300D01*
X20109500Y-7485700D02*
X20149500Y-7525700D01*
X20149500Y-7485700D02*
X20109500Y-7525700D01*
X20109500Y-9238300D02*
X20149500Y-9278300D01*
X20149500Y-9238300D02*
X20109500Y-9278300D01*
X20109500Y-9390700D02*
X20149500Y-9430700D01*
X20149500Y-9390700D02*
X20109500Y-9430700D01*
X20363500Y-3777300D02*
X20403500Y-3817300D01*
X20403500Y-3777300D02*
X20363500Y-3817300D01*
X20363500Y-3929700D02*
X20403500Y-3969700D01*
X20403500Y-3929700D02*
X20363500Y-3969700D01*
X20363500Y-5682300D02*
X20403500Y-5722300D01*
X20403500Y-5682300D02*
X20363500Y-5722300D01*
X20363500Y-5834700D02*
X20403500Y-5874700D01*
X20403500Y-5834700D02*
X20363500Y-5874700D01*
X20363500Y-7587300D02*
X20403500Y-7627300D01*
X20403500Y-7587300D02*
X20363500Y-7627300D01*
X20363500Y-7739700D02*
X20403500Y-7779700D01*
X20403500Y-7739700D02*
X20363500Y-7779700D01*
X20363500Y-9492300D02*
X20403500Y-9532300D01*
X20403500Y-9492300D02*
X20363500Y-9532300D01*
X20363500Y-9644700D02*
X20403500Y-9684700D01*
X20403500Y-9644700D02*
X20363500Y-9684700D01*
X20855625Y-6806250D02*
X20895625Y-6846250D01*
X20895625Y-6806250D02*
X20855625Y-6846250D01*
X22014500Y-3523300D02*
X22054500Y-3563300D01*
X22054500Y-3523300D02*
X22014500Y-3563300D01*
X22014500Y-3675700D02*
X22054500Y-3715700D01*
X22054500Y-3675700D02*
X22014500Y-3715700D01*
X22014500Y-5428300D02*
X22054500Y-5468300D01*
X22054500Y-5428300D02*
X22014500Y-5468300D01*
X22014500Y-5580700D02*
X22054500Y-5620700D01*
X22054500Y-5580700D02*
X22014500Y-5620700D01*
X22014500Y-7333300D02*
X22054500Y-7373300D01*
X22054500Y-7333300D02*
X22014500Y-7373300D01*
X22014500Y-7485700D02*
X22054500Y-7525700D01*
X22054500Y-7485700D02*
X22014500Y-7525700D01*
X22014500Y-9238300D02*
X22054500Y-9278300D01*
X22054500Y-9238300D02*
X22014500Y-9278300D01*
X22014500Y-9390700D02*
X22054500Y-9430700D01*
X22054500Y-9390700D02*
X22014500Y-9430700D01*
X22268500Y-3777300D02*
X22308500Y-3817300D01*
X22308500Y-3777300D02*
X22268500Y-3817300D01*
X22268500Y-3929700D02*
X22308500Y-3969700D01*
X22308500Y-3929700D02*
X22268500Y-3969700D01*
X22268500Y-5682300D02*
X22308500Y-5722300D01*
X22308500Y-5682300D02*
X22268500Y-5722300D01*
X22268500Y-5834700D02*
X22308500Y-5874700D01*
X22308500Y-5834700D02*
X22268500Y-5874700D01*
X22268500Y-7587300D02*
X22308500Y-7627300D01*
X22308500Y-7587300D02*
X22268500Y-7627300D01*
X22268500Y-7739700D02*
X22308500Y-7779700D01*
X22308500Y-7739700D02*
X22268500Y-7779700D01*
X22268500Y-9492300D02*
X22308500Y-9532300D01*
X22308500Y-9492300D02*
X22268500Y-9532300D01*
X22268500Y-9644700D02*
X22308500Y-9684700D01*
X22308500Y-9644700D02*
X22268500Y-9684700D01*
X22760625Y-6965000D02*
X22800625Y-7005000D01*
X22800625Y-6965000D02*
X22760625Y-7005000D01*
X23919500Y-3523300D02*
X23959500Y-3563300D01*
X23959500Y-3523300D02*
X23919500Y-3563300D01*
X23919500Y-3675700D02*
X23959500Y-3715700D01*
X23959500Y-3675700D02*
X23919500Y-3715700D01*
X23919500Y-5428300D02*
X23959500Y-5468300D01*
X23959500Y-5428300D02*
X23919500Y-5468300D01*
X23919500Y-5580700D02*
X23959500Y-5620700D01*
X23959500Y-5580700D02*
X23919500Y-5620700D01*
X23919500Y-7333300D02*
X23959500Y-7373300D01*
X23959500Y-7333300D02*
X23919500Y-7373300D01*
X23919500Y-7485700D02*
X23959500Y-7525700D01*
X23959500Y-7485700D02*
X23919500Y-7525700D01*
X23919500Y-9238300D02*
X23959500Y-9278300D01*
X23959500Y-9238300D02*
X23919500Y-9278300D01*
X23919500Y-9390700D02*
X23959500Y-9430700D01*
X23959500Y-9390700D02*
X23919500Y-9430700D01*
X24173500Y-3777300D02*
X24213500Y-3817300D01*
X24213500Y-3777300D02*
X24173500Y-3817300D01*
X24173500Y-3929700D02*
X24213500Y-3969700D01*
X24213500Y-3929700D02*
X24173500Y-3969700D01*
X24173500Y-5682300D02*
X24213500Y-5722300D01*
X24213500Y-5682300D02*
X24173500Y-5722300D01*
X24173500Y-5834700D02*
X24213500Y-5874700D01*
X24213500Y-5834700D02*
X24173500Y-5874700D01*
X24173500Y-7587300D02*
X24213500Y-7627300D01*
X24213500Y-7587300D02*
X24173500Y-7627300D01*
X24173500Y-7739700D02*
X24213500Y-7779700D01*
X24213500Y-7739700D02*
X24173500Y-7779700D01*
X24173500Y-9492300D02*
X24213500Y-9532300D01*
X24213500Y-9492300D02*
X24173500Y-9532300D01*
X24173500Y-9644700D02*
X24213500Y-9684700D01*
X24213500Y-9644700D02*
X24173500Y-9684700D01*
X24665625Y-7123750D02*
X24705625Y-7163750D01*
X24705625Y-7123750D02*
X24665625Y-7163750D01*
X25824500Y-3523300D02*
X25864500Y-3563300D01*
X25864500Y-3523300D02*
X25824500Y-3563300D01*
X25824500Y-3675700D02*
X25864500Y-3715700D01*
X25864500Y-3675700D02*
X25824500Y-3715700D01*
X25824500Y-5428300D02*
X25864500Y-5468300D01*
X25864500Y-5428300D02*
X25824500Y-5468300D01*
X25824500Y-5580700D02*
X25864500Y-5620700D01*
X25864500Y-5580700D02*
X25824500Y-5620700D01*
X25824500Y-7333300D02*
X25864500Y-7373300D01*
X25864500Y-7333300D02*
X25824500Y-7373300D01*
X25824500Y-7485700D02*
X25864500Y-7525700D01*
X25864500Y-7485700D02*
X25824500Y-7525700D01*
X25824500Y-9238300D02*
X25864500Y-9278300D01*
X25864500Y-9238300D02*
X25824500Y-9278300D01*
X25824500Y-9390700D02*
X25864500Y-9430700D01*
X25864500Y-9390700D02*
X25824500Y-9430700D01*
X13884780Y-3870325D02*
G75*
G03*
X13884780Y-3870325I-40640J0D01*
G01*
X13884780Y-4124325D02*
G75*
G03*
X13884780Y-4124325I-40640J0D01*
G01*
X13884780Y-4378325D02*
G75*
G03*
X13884780Y-4378325I-40640J0D01*
G01*
X13884780Y-4632325D02*
G75*
G03*
X13884780Y-4632325I-40640J0D01*
G01*
X13884780Y-4886325D02*
G75*
G03*
X13884780Y-4886325I-40640J0D01*
G01*
X13884780Y-5140325D02*
G75*
G03*
X13884780Y-5140325I-40640J0D01*
G01*
X13884780Y-5394325D02*
G75*
G03*
X13884780Y-5394325I-40640J0D01*
G01*
X13884780Y-5648325D02*
G75*
G03*
X13884780Y-5648325I-40640J0D01*
G01*
X13884780Y-5902325D02*
G75*
G03*
X13884780Y-5902325I-40640J0D01*
G01*
X13884780Y-6156325D02*
G75*
G03*
X13884780Y-6156325I-40640J0D01*
G01*
X13884780Y-6410325D02*
G75*
G03*
X13884780Y-6410325I-40640J0D01*
G01*
X13884780Y-6664325D02*
G75*
G03*
X13884780Y-6664325I-40640J0D01*
G01*
X14264640Y-7064375D02*
G75*
G03*
X14264640Y-7064375I-40640J0D01*
G01*
X14518640Y-7064375D02*
G75*
G03*
X14518640Y-7064375I-40640J0D01*
G01*
X14772640Y-7064375D02*
G75*
G03*
X14772640Y-7064375I-40640J0D01*
G01*
X15026640Y-7064375D02*
G75*
G03*
X15026640Y-7064375I-40640J0D01*
G01*
X15406780Y-3870325D02*
G75*
G03*
X15406780Y-3870325I-40640J0D01*
G01*
X15406780Y-4124325D02*
G75*
G03*
X15406780Y-4124325I-40640J0D01*
G01*
X15406780Y-4378325D02*
G75*
G03*
X15406780Y-4378325I-40640J0D01*
G01*
X15406780Y-4632325D02*
G75*
G03*
X15406780Y-4632325I-40640J0D01*
G01*
X15406780Y-4886325D02*
G75*
G03*
X15406780Y-4886325I-40640J0D01*
G01*
X15406780Y-5140325D02*
G75*
G03*
X15406780Y-5140325I-40640J0D01*
G01*
X15406780Y-5394325D02*
G75*
G03*
X15406780Y-5394325I-40640J0D01*
G01*
X15406780Y-5648325D02*
G75*
G03*
X15406780Y-5648325I-40640J0D01*
G01*
X15406780Y-5902325D02*
G75*
G03*
X15406780Y-5902325I-40640J0D01*
G01*
X15406780Y-6156325D02*
G75*
G03*
X15406780Y-6156325I-40640J0D01*
G01*
X15406780Y-6410325D02*
G75*
G03*
X15406780Y-6410325I-40640J0D01*
G01*
X15406780Y-6664325D02*
G75*
G03*
X15406780Y-6664325I-40640J0D01*
G01*
X14280000Y-7396250D02*
X14280000Y-7526250D01*
X14215000Y-7461250D02*
X14345000Y-7461250D01*
X14930000Y-7396250D02*
X14930000Y-7526250D01*
X14865000Y-7461250D02*
X14995000Y-7461250D01*
X3852567Y-3979567D02*
X3852567Y-3767433D01*
X3640433Y-3767433D01*
X3640433Y-3979567D01*
X3852567Y-3979567D01*
X3852567Y-5884567D02*
X3852567Y-5672433D01*
X3640433Y-5672433D01*
X3640433Y-5884567D01*
X3852567Y-5884567D01*
X3852567Y-7789567D02*
X3852567Y-7577433D01*
X3640433Y-7577433D01*
X3640433Y-7789567D01*
X3852567Y-7789567D01*
X3852567Y-9694567D02*
X3852567Y-9482433D01*
X3640433Y-9482433D01*
X3640433Y-9694567D01*
X3852567Y-9694567D01*
X4487567Y-3725567D02*
X4487567Y-3513433D01*
X4275433Y-3513433D01*
X4275433Y-3725567D01*
X4487567Y-3725567D01*
X4487567Y-5630567D02*
X4487567Y-5418433D01*
X4275433Y-5418433D01*
X4275433Y-5630567D01*
X4487567Y-5630567D01*
X4487567Y-7535567D02*
X4487567Y-7323433D01*
X4275433Y-7323433D01*
X4275433Y-7535567D01*
X4487567Y-7535567D01*
X4487567Y-9440567D02*
X4487567Y-9228433D01*
X4275433Y-9228433D01*
X4275433Y-9440567D01*
X4487567Y-9440567D01*
X5757567Y-3979567D02*
X5757567Y-3767433D01*
X5545433Y-3767433D01*
X5545433Y-3979567D01*
X5757567Y-3979567D01*
X5757567Y-5884567D02*
X5757567Y-5672433D01*
X5545433Y-5672433D01*
X5545433Y-5884567D01*
X5757567Y-5884567D01*
X5757567Y-7789567D02*
X5757567Y-7577433D01*
X5545433Y-7577433D01*
X5545433Y-7789567D01*
X5757567Y-7789567D01*
X5757567Y-9694567D02*
X5757567Y-9482433D01*
X5545433Y-9482433D01*
X5545433Y-9694567D01*
X5757567Y-9694567D01*
X6392567Y-3725567D02*
X6392567Y-3513433D01*
X6180433Y-3513433D01*
X6180433Y-3725567D01*
X6392567Y-3725567D01*
X6392567Y-5630567D02*
X6392567Y-5418433D01*
X6180433Y-5418433D01*
X6180433Y-5630567D01*
X6392567Y-5630567D01*
X6392567Y-7535567D02*
X6392567Y-7323433D01*
X6180433Y-7323433D01*
X6180433Y-7535567D01*
X6392567Y-7535567D01*
X6392567Y-9440567D02*
X6392567Y-9228433D01*
X6180433Y-9228433D01*
X6180433Y-9440567D01*
X6392567Y-9440567D01*
X7662567Y-3979567D02*
X7662567Y-3767433D01*
X7450433Y-3767433D01*
X7450433Y-3979567D01*
X7662567Y-3979567D01*
X7662567Y-5884567D02*
X7662567Y-5672433D01*
X7450433Y-5672433D01*
X7450433Y-5884567D01*
X7662567Y-5884567D01*
X7662567Y-7789567D02*
X7662567Y-7577433D01*
X7450433Y-7577433D01*
X7450433Y-7789567D01*
X7662567Y-7789567D01*
X7662567Y-9694567D02*
X7662567Y-9482433D01*
X7450433Y-9482433D01*
X7450433Y-9694567D01*
X7662567Y-9694567D01*
X8297567Y-3725567D02*
X8297567Y-3513433D01*
X8085433Y-3513433D01*
X8085433Y-3725567D01*
X8297567Y-3725567D01*
X8297567Y-5630567D02*
X8297567Y-5418433D01*
X8085433Y-5418433D01*
X8085433Y-5630567D01*
X8297567Y-5630567D01*
X8297567Y-7535567D02*
X8297567Y-7323433D01*
X8085433Y-7323433D01*
X8085433Y-7535567D01*
X8297567Y-7535567D01*
X8297567Y-9440567D02*
X8297567Y-9228433D01*
X8085433Y-9228433D01*
X8085433Y-9440567D01*
X8297567Y-9440567D01*
X9567567Y-3979567D02*
X9567567Y-3767433D01*
X9355433Y-3767433D01*
X9355433Y-3979567D01*
X9567567Y-3979567D01*
X9567567Y-5884567D02*
X9567567Y-5672433D01*
X9355433Y-5672433D01*
X9355433Y-5884567D01*
X9567567Y-5884567D01*
X9567567Y-7789567D02*
X9567567Y-7577433D01*
X9355433Y-7577433D01*
X9355433Y-7789567D01*
X9567567Y-7789567D01*
X9567567Y-9694567D02*
X9567567Y-9482433D01*
X9355433Y-9482433D01*
X9355433Y-9694567D01*
X9567567Y-9694567D01*
X10202567Y-3725567D02*
X10202567Y-3513433D01*
X9990433Y-3513433D01*
X9990433Y-3725567D01*
X10202567Y-3725567D01*
X10202567Y-5630567D02*
X10202567Y-5418433D01*
X9990433Y-5418433D01*
X9990433Y-5630567D01*
X10202567Y-5630567D01*
X10202567Y-7535567D02*
X10202567Y-7323433D01*
X9990433Y-7323433D01*
X9990433Y-7535567D01*
X10202567Y-7535567D01*
X10202567Y-9440567D02*
X10202567Y-9228433D01*
X9990433Y-9228433D01*
X9990433Y-9440567D01*
X10202567Y-9440567D01*
X11472567Y-3979567D02*
X11472567Y-3767433D01*
X11260433Y-3767433D01*
X11260433Y-3979567D01*
X11472567Y-3979567D01*
X11472567Y-5884567D02*
X11472567Y-5672433D01*
X11260433Y-5672433D01*
X11260433Y-5884567D01*
X11472567Y-5884567D01*
X11472567Y-7789567D02*
X11472567Y-7577433D01*
X11260433Y-7577433D01*
X11260433Y-7789567D01*
X11472567Y-7789567D01*
X11472567Y-9694567D02*
X11472567Y-9482433D01*
X11260433Y-9482433D01*
X11260433Y-9694567D01*
X11472567Y-9694567D01*
X12107567Y-3725567D02*
X12107567Y-3513433D01*
X11895433Y-3513433D01*
X11895433Y-3725567D01*
X12107567Y-3725567D01*
X12107567Y-5630567D02*
X12107567Y-5418433D01*
X11895433Y-5418433D01*
X11895433Y-5630567D01*
X12107567Y-5630567D01*
X12107567Y-7535567D02*
X12107567Y-7323433D01*
X11895433Y-7323433D01*
X11895433Y-7535567D01*
X12107567Y-7535567D01*
X12107567Y-9440567D02*
X12107567Y-9228433D01*
X11895433Y-9228433D01*
X11895433Y-9440567D01*
X12107567Y-9440567D01*
X13377567Y-9694567D02*
X13377567Y-9482433D01*
X13165433Y-9482433D01*
X13165433Y-9694567D01*
X13377567Y-9694567D01*
X14012567Y-9440567D02*
X14012567Y-9228433D01*
X13800433Y-9228433D01*
X13800433Y-9440567D01*
X14012567Y-9440567D01*
X15282567Y-9694567D02*
X15282567Y-9482433D01*
X15070433Y-9482433D01*
X15070433Y-9694567D01*
X15282567Y-9694567D01*
X15917567Y-9440567D02*
X15917567Y-9228433D01*
X15705433Y-9228433D01*
X15705433Y-9440567D01*
X15917567Y-9440567D01*
X17187567Y-3979567D02*
X17187567Y-3767433D01*
X16975433Y-3767433D01*
X16975433Y-3979567D01*
X17187567Y-3979567D01*
X17187567Y-5884567D02*
X17187567Y-5672433D01*
X16975433Y-5672433D01*
X16975433Y-5884567D01*
X17187567Y-5884567D01*
X17187567Y-7789567D02*
X17187567Y-7577433D01*
X16975433Y-7577433D01*
X16975433Y-7789567D01*
X17187567Y-7789567D01*
X17187567Y-9694567D02*
X17187567Y-9482433D01*
X16975433Y-9482433D01*
X16975433Y-9694567D01*
X17187567Y-9694567D01*
X17822567Y-3725567D02*
X17822567Y-3513433D01*
X17610433Y-3513433D01*
X17610433Y-3725567D01*
X17822567Y-3725567D01*
X17822567Y-5630567D02*
X17822567Y-5418433D01*
X17610433Y-5418433D01*
X17610433Y-5630567D01*
X17822567Y-5630567D01*
X17822567Y-7535567D02*
X17822567Y-7323433D01*
X17610433Y-7323433D01*
X17610433Y-7535567D01*
X17822567Y-7535567D01*
X17822567Y-9440567D02*
X17822567Y-9228433D01*
X17610433Y-9228433D01*
X17610433Y-9440567D01*
X17822567Y-9440567D01*
X19092567Y-3979567D02*
X19092567Y-3767433D01*
X18880433Y-3767433D01*
X18880433Y-3979567D01*
X19092567Y-3979567D01*
X19092567Y-5884567D02*
X19092567Y-5672433D01*
X18880433Y-5672433D01*
X18880433Y-5884567D01*
X19092567Y-5884567D01*
X19092567Y-7789567D02*
X19092567Y-7577433D01*
X18880433Y-7577433D01*
X18880433Y-7789567D01*
X19092567Y-7789567D01*
X19092567Y-9694567D02*
X19092567Y-9482433D01*
X18880433Y-9482433D01*
X18880433Y-9694567D01*
X19092567Y-9694567D01*
X19727567Y-3725567D02*
X19727567Y-3513433D01*
X19515433Y-3513433D01*
X19515433Y-3725567D01*
X19727567Y-3725567D01*
X19727567Y-5630567D02*
X19727567Y-5418433D01*
X19515433Y-5418433D01*
X19515433Y-5630567D01*
X19727567Y-5630567D01*
X19727567Y-7535567D02*
X19727567Y-7323433D01*
X19515433Y-7323433D01*
X19515433Y-7535567D01*
X19727567Y-7535567D01*
X19727567Y-9440567D02*
X19727567Y-9228433D01*
X19515433Y-9228433D01*
X19515433Y-9440567D01*
X19727567Y-9440567D01*
X20997567Y-3979567D02*
X20997567Y-3767433D01*
X20785433Y-3767433D01*
X20785433Y-3979567D01*
X20997567Y-3979567D01*
X20997567Y-5884567D02*
X20997567Y-5672433D01*
X20785433Y-5672433D01*
X20785433Y-5884567D01*
X20997567Y-5884567D01*
X20997567Y-7789567D02*
X20997567Y-7577433D01*
X20785433Y-7577433D01*
X20785433Y-7789567D01*
X20997567Y-7789567D01*
X20997567Y-9694567D02*
X20997567Y-9482433D01*
X20785433Y-9482433D01*
X20785433Y-9694567D01*
X20997567Y-9694567D01*
X21632567Y-3725567D02*
X21632567Y-3513433D01*
X21420433Y-3513433D01*
X21420433Y-3725567D01*
X21632567Y-3725567D01*
X21632567Y-5630567D02*
X21632567Y-5418433D01*
X21420433Y-5418433D01*
X21420433Y-5630567D01*
X21632567Y-5630567D01*
X21632567Y-7535567D02*
X21632567Y-7323433D01*
X21420433Y-7323433D01*
X21420433Y-7535567D01*
X21632567Y-7535567D01*
X21632567Y-9440567D02*
X21632567Y-9228433D01*
X21420433Y-9228433D01*
X21420433Y-9440567D01*
X21632567Y-9440567D01*
X22902567Y-3979567D02*
X22902567Y-3767433D01*
X22690433Y-3767433D01*
X22690433Y-3979567D01*
X22902567Y-3979567D01*
X22902567Y-5884567D02*
X22902567Y-5672433D01*
X22690433Y-5672433D01*
X22690433Y-5884567D01*
X22902567Y-5884567D01*
X22902567Y-7789567D02*
X22902567Y-7577433D01*
X22690433Y-7577433D01*
X22690433Y-7789567D01*
X22902567Y-7789567D01*
X22902567Y-9694567D02*
X22902567Y-9482433D01*
X22690433Y-9482433D01*
X22690433Y-9694567D01*
X22902567Y-9694567D01*
X23537567Y-3725567D02*
X23537567Y-3513433D01*
X23325433Y-3513433D01*
X23325433Y-3725567D01*
X23537567Y-3725567D01*
X23537567Y-5630567D02*
X23537567Y-5418433D01*
X23325433Y-5418433D01*
X23325433Y-5630567D01*
X23537567Y-5630567D01*
X23537567Y-7535567D02*
X23537567Y-7323433D01*
X23325433Y-7323433D01*
X23325433Y-7535567D01*
X23537567Y-7535567D01*
X23537567Y-9440567D02*
X23537567Y-9228433D01*
X23325433Y-9228433D01*
X23325433Y-9440567D01*
X23537567Y-9440567D01*
X24807567Y-3979567D02*
X24807567Y-3767433D01*
X24595433Y-3767433D01*
X24595433Y-3979567D01*
X24807567Y-3979567D01*
X24807567Y-5884567D02*
X24807567Y-5672433D01*
X24595433Y-5672433D01*
X24595433Y-5884567D01*
X24807567Y-5884567D01*
X24807567Y-7789567D02*
X24807567Y-7577433D01*
X24595433Y-7577433D01*
X24595433Y-7789567D01*
X24807567Y-7789567D01*
X24807567Y-9694567D02*
X24807567Y-9482433D01*
X24595433Y-9482433D01*
X24595433Y-9694567D01*
X24807567Y-9694567D01*
X25442567Y-3725567D02*
X25442567Y-3513433D01*
X25230433Y-3513433D01*
X25230433Y-3725567D01*
X25442567Y-3725567D01*
X25442567Y-5630567D02*
X25442567Y-5418433D01*
X25230433Y-5418433D01*
X25230433Y-5630567D01*
X25442567Y-5630567D01*
X25442567Y-7535567D02*
X25442567Y-7323433D01*
X25230433Y-7323433D01*
X25230433Y-7535567D01*
X25442567Y-7535567D01*
X25442567Y-9440567D02*
X25442567Y-9228433D01*
X25230433Y-9228433D01*
X25230433Y-9440567D01*
X25442567Y-9440567D01*
D12*
X3458928Y-11263214D02*
X3458928Y-10963214D01*
X3530357Y-10963214D01*
X3573214Y-10977500D01*
X3601786Y-11006072D01*
X3616071Y-11034643D01*
X3630357Y-11091786D01*
X3630357Y-11134643D01*
X3616071Y-11191786D01*
X3601786Y-11220357D01*
X3573214Y-11248929D01*
X3530357Y-11263214D01*
X3458928Y-11263214D01*
X3758928Y-11263214D02*
X3758928Y-11063214D01*
X3758928Y-11120357D02*
X3773214Y-11091786D01*
X3787500Y-11077500D01*
X3816071Y-11063214D01*
X3844643Y-11063214D01*
X3944643Y-11263214D02*
X3944643Y-11063214D01*
X3944643Y-10963214D02*
X3930357Y-10977500D01*
X3944643Y-10991786D01*
X3958928Y-10977500D01*
X3944643Y-10963214D01*
X3944643Y-10991786D01*
X4130357Y-11263214D02*
X4101786Y-11248929D01*
X4087500Y-11220357D01*
X4087500Y-10963214D01*
X4287500Y-11263214D02*
X4258928Y-11248929D01*
X4244643Y-11220357D01*
X4244643Y-10963214D01*
X4630357Y-11263214D02*
X4630357Y-10963214D01*
X4730357Y-11177500D01*
X4830357Y-10963214D01*
X4830357Y-11263214D01*
X5101786Y-11263214D02*
X5101786Y-11106072D01*
X5087500Y-11077500D01*
X5058928Y-11063214D01*
X5001786Y-11063214D01*
X4973214Y-11077500D01*
X5101786Y-11248929D02*
X5073214Y-11263214D01*
X5001786Y-11263214D01*
X4973214Y-11248929D01*
X4958928Y-11220357D01*
X4958928Y-11191786D01*
X4973214Y-11163214D01*
X5001786Y-11148929D01*
X5073214Y-11148929D01*
X5101786Y-11134643D01*
X5244643Y-11063214D02*
X5244643Y-11363214D01*
X5244643Y-11077500D02*
X5273214Y-11063214D01*
X5330357Y-11063214D01*
X5358928Y-11077500D01*
X5373214Y-11091786D01*
X5387500Y-11120357D01*
X5387500Y-11206071D01*
X5373214Y-11234643D01*
X5358928Y-11248929D01*
X5330357Y-11263214D01*
X5273214Y-11263214D01*
X5244643Y-11248929D01*
X5516071Y-11234643D02*
X5530357Y-11248929D01*
X5516071Y-11263214D01*
X5501786Y-11248929D01*
X5516071Y-11234643D01*
X5516071Y-11263214D01*
X5516071Y-11077500D02*
X5530357Y-11091786D01*
X5516071Y-11106072D01*
X5501786Y-11091786D01*
X5516071Y-11077500D01*
X5516071Y-11106072D01*
X3132500Y-11737500D02*
X3172500Y-11777500D01*
X3172500Y-11737500D02*
X3132500Y-11777500D01*
X3516071Y-11593214D02*
X3544643Y-11593214D01*
X3573214Y-11607500D01*
X3587500Y-11621786D01*
X3601786Y-11650357D01*
X3616071Y-11707500D01*
X3616071Y-11778929D01*
X3601786Y-11836071D01*
X3587500Y-11864643D01*
X3573214Y-11878929D01*
X3544643Y-11893214D01*
X3516071Y-11893214D01*
X3487500Y-11878929D01*
X3473214Y-11864643D01*
X3458928Y-11836071D01*
X3444643Y-11778929D01*
X3444643Y-11707500D01*
X3458928Y-11650357D01*
X3473214Y-11621786D01*
X3487500Y-11607500D01*
X3516071Y-11593214D01*
X3744643Y-11864643D02*
X3758928Y-11878929D01*
X3744643Y-11893214D01*
X3730357Y-11878929D01*
X3744643Y-11864643D01*
X3744643Y-11893214D01*
X4016071Y-11693214D02*
X4016071Y-11893214D01*
X3944643Y-11578929D02*
X3873214Y-11793214D01*
X4058928Y-11793214D01*
X4230357Y-11593214D02*
X4258928Y-11593214D01*
X4287500Y-11607500D01*
X4301786Y-11621786D01*
X4316071Y-11650357D01*
X4330357Y-11707500D01*
X4330357Y-11778929D01*
X4316071Y-11836071D01*
X4301786Y-11864643D01*
X4287500Y-11878929D01*
X4258928Y-11893214D01*
X4230357Y-11893214D01*
X4201786Y-11878929D01*
X4187500Y-11864643D01*
X4173214Y-11836071D01*
X4158928Y-11778929D01*
X4158928Y-11707500D01*
X4173214Y-11650357D01*
X4187500Y-11621786D01*
X4201786Y-11607500D01*
X4230357Y-11593214D01*
X4458928Y-11893214D02*
X4458928Y-11693214D01*
X4458928Y-11721786D02*
X4473214Y-11707500D01*
X4501786Y-11693214D01*
X4544643Y-11693214D01*
X4573214Y-11707500D01*
X4587500Y-11736071D01*
X4587500Y-11893214D01*
X4587500Y-11736071D02*
X4601786Y-11707500D01*
X4630357Y-11693214D01*
X4673214Y-11693214D01*
X4701786Y-11707500D01*
X4716071Y-11736071D01*
X4716071Y-11893214D01*
X4858928Y-11893214D02*
X4858928Y-11693214D01*
X4858928Y-11721786D02*
X4873214Y-11707500D01*
X4901786Y-11693214D01*
X4944643Y-11693214D01*
X4973214Y-11707500D01*
X4987500Y-11736071D01*
X4987500Y-11893214D01*
X4987500Y-11736071D02*
X5001786Y-11707500D01*
X5030357Y-11693214D01*
X5073214Y-11693214D01*
X5101786Y-11707500D01*
X5116071Y-11736071D01*
X5116071Y-11893214D01*
X5701786Y-11578929D02*
X5444643Y-11964643D01*
X6087500Y-11593214D02*
X6116071Y-11593214D01*
X6144643Y-11607500D01*
X6158928Y-11621786D01*
X6173214Y-11650357D01*
X6187500Y-11707500D01*
X6187500Y-11778929D01*
X6173214Y-11836071D01*
X6158928Y-11864643D01*
X6144643Y-11878929D01*
X6116071Y-11893214D01*
X6087500Y-11893214D01*
X6058928Y-11878929D01*
X6044643Y-11864643D01*
X6030357Y-11836071D01*
X6016071Y-11778929D01*
X6016071Y-11707500D01*
X6030357Y-11650357D01*
X6044643Y-11621786D01*
X6058928Y-11607500D01*
X6087500Y-11593214D01*
X6316071Y-11864643D02*
X6330357Y-11878929D01*
X6316071Y-11893214D01*
X6301786Y-11878929D01*
X6316071Y-11864643D01*
X6316071Y-11893214D01*
X6516071Y-11593214D02*
X6544643Y-11593214D01*
X6573214Y-11607500D01*
X6587500Y-11621786D01*
X6601786Y-11650357D01*
X6616071Y-11707500D01*
X6616071Y-11778929D01*
X6601786Y-11836071D01*
X6587500Y-11864643D01*
X6573214Y-11878929D01*
X6544643Y-11893214D01*
X6516071Y-11893214D01*
X6487500Y-11878929D01*
X6473214Y-11864643D01*
X6458928Y-11836071D01*
X6444643Y-11778929D01*
X6444643Y-11707500D01*
X6458928Y-11650357D01*
X6473214Y-11621786D01*
X6487500Y-11607500D01*
X6516071Y-11593214D01*
X6901786Y-11893214D02*
X6730357Y-11893214D01*
X6816071Y-11893214D02*
X6816071Y-11593214D01*
X6787500Y-11636071D01*
X6758928Y-11664643D01*
X6730357Y-11678929D01*
X7158928Y-11593214D02*
X7101786Y-11593214D01*
X7073214Y-11607500D01*
X7058928Y-11621786D01*
X7030357Y-11664643D01*
X7016071Y-11721786D01*
X7016071Y-11836071D01*
X7030357Y-11864643D01*
X7044643Y-11878929D01*
X7073214Y-11893214D01*
X7130357Y-11893214D01*
X7158928Y-11878929D01*
X7173214Y-11864643D01*
X7187500Y-11836071D01*
X7187500Y-11764643D01*
X7173214Y-11736071D01*
X7158928Y-11721786D01*
X7130357Y-11707500D01*
X7073214Y-11707500D01*
X7044643Y-11721786D01*
X7030357Y-11736071D01*
X7016071Y-11764643D01*
X7301786Y-11593214D02*
X7301786Y-11650357D01*
X7416071Y-11593214D02*
X7416071Y-11650357D01*
X7858928Y-12007500D02*
X7844643Y-11993214D01*
X7816071Y-11950357D01*
X7801786Y-11921786D01*
X7787500Y-11878929D01*
X7773214Y-11807500D01*
X7773214Y-11750357D01*
X7787500Y-11678929D01*
X7801786Y-11636071D01*
X7816071Y-11607500D01*
X7844643Y-11564643D01*
X7858928Y-11550357D01*
X8130357Y-11893214D02*
X7958928Y-11893214D01*
X8044643Y-11893214D02*
X8044643Y-11593214D01*
X8016071Y-11636071D01*
X7987500Y-11664643D01*
X7958928Y-11678929D01*
X8301786Y-11721786D02*
X8273214Y-11707500D01*
X8258928Y-11693214D01*
X8244643Y-11664643D01*
X8244643Y-11650357D01*
X8258928Y-11621786D01*
X8273214Y-11607500D01*
X8301786Y-11593214D01*
X8358928Y-11593214D01*
X8387500Y-11607500D01*
X8401786Y-11621786D01*
X8416071Y-11650357D01*
X8416071Y-11664643D01*
X8401786Y-11693214D01*
X8387500Y-11707500D01*
X8358928Y-11721786D01*
X8301786Y-11721786D01*
X8273214Y-11736071D01*
X8258928Y-11750357D01*
X8244643Y-11778929D01*
X8244643Y-11836071D01*
X8258928Y-11864643D01*
X8273214Y-11878929D01*
X8301786Y-11893214D01*
X8358928Y-11893214D01*
X8387500Y-11878929D01*
X8401786Y-11864643D01*
X8416071Y-11836071D01*
X8416071Y-11778929D01*
X8401786Y-11750357D01*
X8387500Y-11736071D01*
X8358928Y-11721786D01*
X8687500Y-11593214D02*
X8544643Y-11593214D01*
X8530357Y-11736071D01*
X8544643Y-11721786D01*
X8573214Y-11707500D01*
X8644643Y-11707500D01*
X8673214Y-11721786D01*
X8687500Y-11736071D01*
X8701786Y-11764643D01*
X8701786Y-11836071D01*
X8687500Y-11864643D01*
X8673214Y-11878929D01*
X8644643Y-11893214D01*
X8573214Y-11893214D01*
X8544643Y-11878929D01*
X8530357Y-11864643D01*
X9058928Y-11893214D02*
X9058928Y-11593214D01*
X9187500Y-11893214D02*
X9187500Y-11736071D01*
X9173214Y-11707500D01*
X9144643Y-11693214D01*
X9101786Y-11693214D01*
X9073214Y-11707500D01*
X9058928Y-11721786D01*
X9373214Y-11893214D02*
X9344643Y-11878929D01*
X9330357Y-11864643D01*
X9316071Y-11836071D01*
X9316071Y-11750357D01*
X9330357Y-11721786D01*
X9344643Y-11707500D01*
X9373214Y-11693214D01*
X9416071Y-11693214D01*
X9444643Y-11707500D01*
X9458928Y-11721786D01*
X9473214Y-11750357D01*
X9473214Y-11836071D01*
X9458928Y-11864643D01*
X9444643Y-11878929D01*
X9416071Y-11893214D01*
X9373214Y-11893214D01*
X9644643Y-11893214D02*
X9616071Y-11878929D01*
X9601786Y-11850357D01*
X9601786Y-11593214D01*
X9873214Y-11878929D02*
X9844643Y-11893214D01*
X9787500Y-11893214D01*
X9758928Y-11878929D01*
X9744643Y-11850357D01*
X9744643Y-11736071D01*
X9758928Y-11707500D01*
X9787500Y-11693214D01*
X9844643Y-11693214D01*
X9873214Y-11707500D01*
X9887500Y-11736071D01*
X9887500Y-11764643D01*
X9744643Y-11793214D01*
X10001786Y-11878929D02*
X10030357Y-11893214D01*
X10087500Y-11893214D01*
X10116071Y-11878929D01*
X10130357Y-11850357D01*
X10130357Y-11836071D01*
X10116071Y-11807500D01*
X10087500Y-11793214D01*
X10044643Y-11793214D01*
X10016071Y-11778929D01*
X10001786Y-11750357D01*
X10001786Y-11736071D01*
X10016071Y-11707500D01*
X10044643Y-11693214D01*
X10087500Y-11693214D01*
X10116071Y-11707500D01*
X10230357Y-12007500D02*
X10244643Y-11993214D01*
X10273214Y-11950357D01*
X10287500Y-11921786D01*
X10301786Y-11878929D01*
X10316071Y-11807500D01*
X10316071Y-11750357D01*
X10301786Y-11678929D01*
X10287500Y-11636071D01*
X10273214Y-11607500D01*
X10244643Y-11564643D01*
X10230357Y-11550357D01*
X3172500Y-12153500D02*
G75*
G03*
X3172500Y-12153500I-40640J0D01*
G01*
X3516071Y-11989214D02*
X3544643Y-11989214D01*
X3573214Y-12003500D01*
X3587500Y-12017786D01*
X3601786Y-12046357D01*
X3616071Y-12103500D01*
X3616071Y-12174929D01*
X3601786Y-12232071D01*
X3587500Y-12260643D01*
X3573214Y-12274929D01*
X3544643Y-12289214D01*
X3516071Y-12289214D01*
X3487500Y-12274929D01*
X3473214Y-12260643D01*
X3458928Y-12232071D01*
X3444643Y-12174929D01*
X3444643Y-12103500D01*
X3458928Y-12046357D01*
X3473214Y-12017786D01*
X3487500Y-12003500D01*
X3516071Y-11989214D01*
X3744643Y-12260643D02*
X3758928Y-12274929D01*
X3744643Y-12289214D01*
X3730357Y-12274929D01*
X3744643Y-12260643D01*
X3744643Y-12289214D01*
X3930357Y-12117786D02*
X3901786Y-12103500D01*
X3887500Y-12089214D01*
X3873214Y-12060643D01*
X3873214Y-12046357D01*
X3887500Y-12017786D01*
X3901786Y-12003500D01*
X3930357Y-11989214D01*
X3987500Y-11989214D01*
X4016071Y-12003500D01*
X4030357Y-12017786D01*
X4044643Y-12046357D01*
X4044643Y-12060643D01*
X4030357Y-12089214D01*
X4016071Y-12103500D01*
X3987500Y-12117786D01*
X3930357Y-12117786D01*
X3901786Y-12132071D01*
X3887500Y-12146357D01*
X3873214Y-12174929D01*
X3873214Y-12232071D01*
X3887500Y-12260643D01*
X3901786Y-12274929D01*
X3930357Y-12289214D01*
X3987500Y-12289214D01*
X4016071Y-12274929D01*
X4030357Y-12260643D01*
X4044643Y-12232071D01*
X4044643Y-12174929D01*
X4030357Y-12146357D01*
X4016071Y-12132071D01*
X3987500Y-12117786D01*
X4330357Y-12289214D02*
X4158928Y-12289214D01*
X4244643Y-12289214D02*
X4244643Y-11989214D01*
X4216071Y-12032071D01*
X4187500Y-12060643D01*
X4158928Y-12074929D01*
X4458928Y-12289214D02*
X4458928Y-12089214D01*
X4458928Y-12117786D02*
X4473214Y-12103500D01*
X4501786Y-12089214D01*
X4544643Y-12089214D01*
X4573214Y-12103500D01*
X4587500Y-12132071D01*
X4587500Y-12289214D01*
X4587500Y-12132071D02*
X4601786Y-12103500D01*
X4630357Y-12089214D01*
X4673214Y-12089214D01*
X4701786Y-12103500D01*
X4716071Y-12132071D01*
X4716071Y-12289214D01*
X4858928Y-12289214D02*
X4858928Y-12089214D01*
X4858928Y-12117786D02*
X4873214Y-12103500D01*
X4901786Y-12089214D01*
X4944643Y-12089214D01*
X4973214Y-12103500D01*
X4987500Y-12132071D01*
X4987500Y-12289214D01*
X4987500Y-12132071D02*
X5001786Y-12103500D01*
X5030357Y-12089214D01*
X5073214Y-12089214D01*
X5101786Y-12103500D01*
X5116071Y-12132071D01*
X5116071Y-12289214D01*
X5701786Y-11974929D02*
X5444643Y-12360643D01*
X6087500Y-11989214D02*
X6116071Y-11989214D01*
X6144643Y-12003500D01*
X6158928Y-12017786D01*
X6173214Y-12046357D01*
X6187500Y-12103500D01*
X6187500Y-12174929D01*
X6173214Y-12232071D01*
X6158928Y-12260643D01*
X6144643Y-12274929D01*
X6116071Y-12289214D01*
X6087500Y-12289214D01*
X6058928Y-12274929D01*
X6044643Y-12260643D01*
X6030357Y-12232071D01*
X6016071Y-12174929D01*
X6016071Y-12103500D01*
X6030357Y-12046357D01*
X6044643Y-12017786D01*
X6058928Y-12003500D01*
X6087500Y-11989214D01*
X6316071Y-12260643D02*
X6330357Y-12274929D01*
X6316071Y-12289214D01*
X6301786Y-12274929D01*
X6316071Y-12260643D01*
X6316071Y-12289214D01*
X6516071Y-11989214D02*
X6544643Y-11989214D01*
X6573214Y-12003500D01*
X6587500Y-12017786D01*
X6601786Y-12046357D01*
X6616071Y-12103500D01*
X6616071Y-12174929D01*
X6601786Y-12232071D01*
X6587500Y-12260643D01*
X6573214Y-12274929D01*
X6544643Y-12289214D01*
X6516071Y-12289214D01*
X6487500Y-12274929D01*
X6473214Y-12260643D01*
X6458928Y-12232071D01*
X6444643Y-12174929D01*
X6444643Y-12103500D01*
X6458928Y-12046357D01*
X6473214Y-12017786D01*
X6487500Y-12003500D01*
X6516071Y-11989214D01*
X6716071Y-11989214D02*
X6901786Y-11989214D01*
X6801786Y-12103500D01*
X6844643Y-12103500D01*
X6873214Y-12117786D01*
X6887500Y-12132071D01*
X6901786Y-12160643D01*
X6901786Y-12232071D01*
X6887500Y-12260643D01*
X6873214Y-12274929D01*
X6844643Y-12289214D01*
X6758928Y-12289214D01*
X6730357Y-12274929D01*
X6716071Y-12260643D01*
X7016071Y-12017786D02*
X7030357Y-12003500D01*
X7058928Y-11989214D01*
X7130357Y-11989214D01*
X7158928Y-12003500D01*
X7173214Y-12017786D01*
X7187500Y-12046357D01*
X7187500Y-12074929D01*
X7173214Y-12117786D01*
X7001786Y-12289214D01*
X7187500Y-12289214D01*
X7301786Y-11989214D02*
X7301786Y-12046357D01*
X7416071Y-11989214D02*
X7416071Y-12046357D01*
X7858928Y-12403500D02*
X7844643Y-12389214D01*
X7816071Y-12346357D01*
X7801786Y-12317786D01*
X7787500Y-12274929D01*
X7773214Y-12203500D01*
X7773214Y-12146357D01*
X7787500Y-12074929D01*
X7801786Y-12032071D01*
X7816071Y-12003500D01*
X7844643Y-11960643D01*
X7858928Y-11946357D01*
X7958928Y-12017786D02*
X7973214Y-12003500D01*
X8001786Y-11989214D01*
X8073214Y-11989214D01*
X8101786Y-12003500D01*
X8116071Y-12017786D01*
X8130357Y-12046357D01*
X8130357Y-12074929D01*
X8116071Y-12117786D01*
X7944643Y-12289214D01*
X8130357Y-12289214D01*
X8301786Y-12117786D02*
X8273214Y-12103500D01*
X8258928Y-12089214D01*
X8244643Y-12060643D01*
X8244643Y-12046357D01*
X8258928Y-12017786D01*
X8273214Y-12003500D01*
X8301786Y-11989214D01*
X8358928Y-11989214D01*
X8387500Y-12003500D01*
X8401786Y-12017786D01*
X8416071Y-12046357D01*
X8416071Y-12060643D01*
X8401786Y-12089214D01*
X8387500Y-12103500D01*
X8358928Y-12117786D01*
X8301786Y-12117786D01*
X8273214Y-12132071D01*
X8258928Y-12146357D01*
X8244643Y-12174929D01*
X8244643Y-12232071D01*
X8258928Y-12260643D01*
X8273214Y-12274929D01*
X8301786Y-12289214D01*
X8358928Y-12289214D01*
X8387500Y-12274929D01*
X8401786Y-12260643D01*
X8416071Y-12232071D01*
X8416071Y-12174929D01*
X8401786Y-12146357D01*
X8387500Y-12132071D01*
X8358928Y-12117786D01*
X8773214Y-12289214D02*
X8773214Y-11989214D01*
X8901786Y-12289214D02*
X8901786Y-12132071D01*
X8887500Y-12103500D01*
X8858928Y-12089214D01*
X8816071Y-12089214D01*
X8787500Y-12103500D01*
X8773214Y-12117786D01*
X9087500Y-12289214D02*
X9058928Y-12274929D01*
X9044643Y-12260643D01*
X9030357Y-12232071D01*
X9030357Y-12146357D01*
X9044643Y-12117786D01*
X9058928Y-12103500D01*
X9087500Y-12089214D01*
X9130357Y-12089214D01*
X9158928Y-12103500D01*
X9173214Y-12117786D01*
X9187500Y-12146357D01*
X9187500Y-12232071D01*
X9173214Y-12260643D01*
X9158928Y-12274929D01*
X9130357Y-12289214D01*
X9087500Y-12289214D01*
X9358928Y-12289214D02*
X9330357Y-12274929D01*
X9316071Y-12246357D01*
X9316071Y-11989214D01*
X9587500Y-12274929D02*
X9558928Y-12289214D01*
X9501786Y-12289214D01*
X9473214Y-12274929D01*
X9458928Y-12246357D01*
X9458928Y-12132071D01*
X9473214Y-12103500D01*
X9501786Y-12089214D01*
X9558928Y-12089214D01*
X9587500Y-12103500D01*
X9601786Y-12132071D01*
X9601786Y-12160643D01*
X9458928Y-12189214D01*
X9716071Y-12274929D02*
X9744643Y-12289214D01*
X9801786Y-12289214D01*
X9830357Y-12274929D01*
X9844643Y-12246357D01*
X9844643Y-12232071D01*
X9830357Y-12203500D01*
X9801786Y-12189214D01*
X9758928Y-12189214D01*
X9730357Y-12174929D01*
X9716071Y-12146357D01*
X9716071Y-12132071D01*
X9730357Y-12103500D01*
X9758928Y-12089214D01*
X9801786Y-12089214D01*
X9830357Y-12103500D01*
X9944643Y-12403500D02*
X9958928Y-12389214D01*
X9987500Y-12346357D01*
X10001786Y-12317786D01*
X10016071Y-12274929D01*
X10030357Y-12203500D01*
X10030357Y-12146357D01*
X10016071Y-12074929D01*
X10001786Y-12032071D01*
X9987500Y-12003500D01*
X9958928Y-11960643D01*
X9944643Y-11946357D01*
X3107500Y-12484500D02*
X3107500Y-12614500D01*
X3042500Y-12549500D02*
X3172500Y-12549500D01*
X3616071Y-12685214D02*
X3444643Y-12685214D01*
X3530357Y-12685214D02*
X3530357Y-12385214D01*
X3501786Y-12428071D01*
X3473214Y-12456643D01*
X3444643Y-12470929D01*
X3744643Y-12656643D02*
X3758928Y-12670929D01*
X3744643Y-12685214D01*
X3730357Y-12670929D01*
X3744643Y-12656643D01*
X3744643Y-12685214D01*
X3858928Y-12385214D02*
X4044643Y-12385214D01*
X3944643Y-12499500D01*
X3987500Y-12499500D01*
X4016071Y-12513786D01*
X4030357Y-12528071D01*
X4044643Y-12556643D01*
X4044643Y-12628071D01*
X4030357Y-12656643D01*
X4016071Y-12670929D01*
X3987500Y-12685214D01*
X3901786Y-12685214D01*
X3873214Y-12670929D01*
X3858928Y-12656643D01*
X4230357Y-12385214D02*
X4258928Y-12385214D01*
X4287500Y-12399500D01*
X4301786Y-12413786D01*
X4316071Y-12442357D01*
X4330357Y-12499500D01*
X4330357Y-12570929D01*
X4316071Y-12628071D01*
X4301786Y-12656643D01*
X4287500Y-12670929D01*
X4258928Y-12685214D01*
X4230357Y-12685214D01*
X4201786Y-12670929D01*
X4187500Y-12656643D01*
X4173214Y-12628071D01*
X4158928Y-12570929D01*
X4158928Y-12499500D01*
X4173214Y-12442357D01*
X4187500Y-12413786D01*
X4201786Y-12399500D01*
X4230357Y-12385214D01*
X4458928Y-12685214D02*
X4458928Y-12485214D01*
X4458928Y-12513786D02*
X4473214Y-12499500D01*
X4501786Y-12485214D01*
X4544643Y-12485214D01*
X4573214Y-12499500D01*
X4587500Y-12528071D01*
X4587500Y-12685214D01*
X4587500Y-12528071D02*
X4601786Y-12499500D01*
X4630357Y-12485214D01*
X4673214Y-12485214D01*
X4701786Y-12499500D01*
X4716071Y-12528071D01*
X4716071Y-12685214D01*
X4858928Y-12685214D02*
X4858928Y-12485214D01*
X4858928Y-12513786D02*
X4873214Y-12499500D01*
X4901786Y-12485214D01*
X4944643Y-12485214D01*
X4973214Y-12499500D01*
X4987500Y-12528071D01*
X4987500Y-12685214D01*
X4987500Y-12528071D02*
X5001786Y-12499500D01*
X5030357Y-12485214D01*
X5073214Y-12485214D01*
X5101786Y-12499500D01*
X5116071Y-12528071D01*
X5116071Y-12685214D01*
X5701786Y-12370929D02*
X5444643Y-12756643D01*
X6087500Y-12385214D02*
X6116071Y-12385214D01*
X6144643Y-12399500D01*
X6158928Y-12413786D01*
X6173214Y-12442357D01*
X6187500Y-12499500D01*
X6187500Y-12570929D01*
X6173214Y-12628071D01*
X6158928Y-12656643D01*
X6144643Y-12670929D01*
X6116071Y-12685214D01*
X6087500Y-12685214D01*
X6058928Y-12670929D01*
X6044643Y-12656643D01*
X6030357Y-12628071D01*
X6016071Y-12570929D01*
X6016071Y-12499500D01*
X6030357Y-12442357D01*
X6044643Y-12413786D01*
X6058928Y-12399500D01*
X6087500Y-12385214D01*
X6316071Y-12656643D02*
X6330357Y-12670929D01*
X6316071Y-12685214D01*
X6301786Y-12670929D01*
X6316071Y-12656643D01*
X6316071Y-12685214D01*
X6516071Y-12385214D02*
X6544643Y-12385214D01*
X6573214Y-12399500D01*
X6587500Y-12413786D01*
X6601786Y-12442357D01*
X6616071Y-12499500D01*
X6616071Y-12570929D01*
X6601786Y-12628071D01*
X6587500Y-12656643D01*
X6573214Y-12670929D01*
X6544643Y-12685214D01*
X6516071Y-12685214D01*
X6487500Y-12670929D01*
X6473214Y-12656643D01*
X6458928Y-12628071D01*
X6444643Y-12570929D01*
X6444643Y-12499500D01*
X6458928Y-12442357D01*
X6473214Y-12413786D01*
X6487500Y-12399500D01*
X6516071Y-12385214D01*
X6887500Y-12385214D02*
X6744643Y-12385214D01*
X6730357Y-12528071D01*
X6744643Y-12513786D01*
X6773214Y-12499500D01*
X6844643Y-12499500D01*
X6873214Y-12513786D01*
X6887500Y-12528071D01*
X6901786Y-12556643D01*
X6901786Y-12628071D01*
X6887500Y-12656643D01*
X6873214Y-12670929D01*
X6844643Y-12685214D01*
X6773214Y-12685214D01*
X6744643Y-12670929D01*
X6730357Y-12656643D01*
X7187500Y-12685214D02*
X7016071Y-12685214D01*
X7101786Y-12685214D02*
X7101786Y-12385214D01*
X7073214Y-12428071D01*
X7044643Y-12456643D01*
X7016071Y-12470929D01*
X7301786Y-12385214D02*
X7301786Y-12442357D01*
X7416071Y-12385214D02*
X7416071Y-12442357D01*
X7858928Y-12799500D02*
X7844643Y-12785214D01*
X7816071Y-12742357D01*
X7801786Y-12713786D01*
X7787500Y-12670929D01*
X7773214Y-12599500D01*
X7773214Y-12542357D01*
X7787500Y-12470929D01*
X7801786Y-12428071D01*
X7816071Y-12399500D01*
X7844643Y-12356643D01*
X7858928Y-12342357D01*
X7958928Y-12413786D02*
X7973214Y-12399500D01*
X8001786Y-12385214D01*
X8073214Y-12385214D01*
X8101786Y-12399500D01*
X8116071Y-12413786D01*
X8130357Y-12442357D01*
X8130357Y-12470929D01*
X8116071Y-12513786D01*
X7944643Y-12685214D01*
X8130357Y-12685214D01*
X8487500Y-12685214D02*
X8487500Y-12385214D01*
X8616071Y-12685214D02*
X8616071Y-12528071D01*
X8601786Y-12499500D01*
X8573214Y-12485214D01*
X8530357Y-12485214D01*
X8501786Y-12499500D01*
X8487500Y-12513786D01*
X8801786Y-12685214D02*
X8773214Y-12670929D01*
X8758928Y-12656643D01*
X8744643Y-12628071D01*
X8744643Y-12542357D01*
X8758928Y-12513786D01*
X8773214Y-12499500D01*
X8801786Y-12485214D01*
X8844643Y-12485214D01*
X8873214Y-12499500D01*
X8887500Y-12513786D01*
X8901786Y-12542357D01*
X8901786Y-12628071D01*
X8887500Y-12656643D01*
X8873214Y-12670929D01*
X8844643Y-12685214D01*
X8801786Y-12685214D01*
X9073214Y-12685214D02*
X9044643Y-12670929D01*
X9030357Y-12642357D01*
X9030357Y-12385214D01*
X9301786Y-12670929D02*
X9273214Y-12685214D01*
X9216071Y-12685214D01*
X9187500Y-12670929D01*
X9173214Y-12642357D01*
X9173214Y-12528071D01*
X9187500Y-12499500D01*
X9216071Y-12485214D01*
X9273214Y-12485214D01*
X9301786Y-12499500D01*
X9316071Y-12528071D01*
X9316071Y-12556643D01*
X9173214Y-12585214D01*
X9430357Y-12670929D02*
X9458928Y-12685214D01*
X9516071Y-12685214D01*
X9544643Y-12670929D01*
X9558928Y-12642357D01*
X9558928Y-12628071D01*
X9544643Y-12599500D01*
X9516071Y-12585214D01*
X9473214Y-12585214D01*
X9444643Y-12570929D01*
X9430357Y-12542357D01*
X9430357Y-12528071D01*
X9444643Y-12499500D01*
X9473214Y-12485214D01*
X9516071Y-12485214D01*
X9544643Y-12499500D01*
X9658928Y-12799500D02*
X9673214Y-12785214D01*
X9701786Y-12742357D01*
X9716071Y-12713786D01*
X9730357Y-12670929D01*
X9744643Y-12599500D01*
X9744643Y-12542357D01*
X9730357Y-12470929D01*
X9716071Y-12428071D01*
X9701786Y-12399500D01*
X9673214Y-12356643D01*
X9658928Y-12342357D01*
X3128567Y-13051567D02*
X3128567Y-12839433D01*
X2916433Y-12839433D01*
X2916433Y-13051567D01*
X3128567Y-13051567D01*
X3430357Y-12781214D02*
X3616071Y-12781214D01*
X3516071Y-12895500D01*
X3558928Y-12895500D01*
X3587500Y-12909786D01*
X3601786Y-12924071D01*
X3616071Y-12952643D01*
X3616071Y-13024071D01*
X3601786Y-13052643D01*
X3587500Y-13066929D01*
X3558928Y-13081214D01*
X3473214Y-13081214D01*
X3444643Y-13066929D01*
X3430357Y-13052643D01*
X3744643Y-13052643D02*
X3758928Y-13066929D01*
X3744643Y-13081214D01*
X3730357Y-13066929D01*
X3744643Y-13052643D01*
X3744643Y-13081214D01*
X3944643Y-12781214D02*
X3973214Y-12781214D01*
X4001786Y-12795500D01*
X4016071Y-12809786D01*
X4030357Y-12838357D01*
X4044643Y-12895500D01*
X4044643Y-12966929D01*
X4030357Y-13024071D01*
X4016071Y-13052643D01*
X4001786Y-13066929D01*
X3973214Y-13081214D01*
X3944643Y-13081214D01*
X3916071Y-13066929D01*
X3901786Y-13052643D01*
X3887500Y-13024071D01*
X3873214Y-12966929D01*
X3873214Y-12895500D01*
X3887500Y-12838357D01*
X3901786Y-12809786D01*
X3916071Y-12795500D01*
X3944643Y-12781214D01*
X4230357Y-12781214D02*
X4258928Y-12781214D01*
X4287500Y-12795500D01*
X4301786Y-12809786D01*
X4316071Y-12838357D01*
X4330357Y-12895500D01*
X4330357Y-12966929D01*
X4316071Y-13024071D01*
X4301786Y-13052643D01*
X4287500Y-13066929D01*
X4258928Y-13081214D01*
X4230357Y-13081214D01*
X4201786Y-13066929D01*
X4187500Y-13052643D01*
X4173214Y-13024071D01*
X4158928Y-12966929D01*
X4158928Y-12895500D01*
X4173214Y-12838357D01*
X4187500Y-12809786D01*
X4201786Y-12795500D01*
X4230357Y-12781214D01*
X4458928Y-13081214D02*
X4458928Y-12881214D01*
X4458928Y-12909786D02*
X4473214Y-12895500D01*
X4501786Y-12881214D01*
X4544643Y-12881214D01*
X4573214Y-12895500D01*
X4587500Y-12924071D01*
X4587500Y-13081214D01*
X4587500Y-12924071D02*
X4601786Y-12895500D01*
X4630357Y-12881214D01*
X4673214Y-12881214D01*
X4701786Y-12895500D01*
X4716071Y-12924071D01*
X4716071Y-13081214D01*
X4858928Y-13081214D02*
X4858928Y-12881214D01*
X4858928Y-12909786D02*
X4873214Y-12895500D01*
X4901786Y-12881214D01*
X4944643Y-12881214D01*
X4973214Y-12895500D01*
X4987500Y-12924071D01*
X4987500Y-13081214D01*
X4987500Y-12924071D02*
X5001786Y-12895500D01*
X5030357Y-12881214D01*
X5073214Y-12881214D01*
X5101786Y-12895500D01*
X5116071Y-12924071D01*
X5116071Y-13081214D01*
X5701786Y-12766929D02*
X5444643Y-13152643D01*
X6087500Y-12781214D02*
X6116071Y-12781214D01*
X6144643Y-12795500D01*
X6158928Y-12809786D01*
X6173214Y-12838357D01*
X6187500Y-12895500D01*
X6187500Y-12966929D01*
X6173214Y-13024071D01*
X6158928Y-13052643D01*
X6144643Y-13066929D01*
X6116071Y-13081214D01*
X6087500Y-13081214D01*
X6058928Y-13066929D01*
X6044643Y-13052643D01*
X6030357Y-13024071D01*
X6016071Y-12966929D01*
X6016071Y-12895500D01*
X6030357Y-12838357D01*
X6044643Y-12809786D01*
X6058928Y-12795500D01*
X6087500Y-12781214D01*
X6316071Y-13052643D02*
X6330357Y-13066929D01*
X6316071Y-13081214D01*
X6301786Y-13066929D01*
X6316071Y-13052643D01*
X6316071Y-13081214D01*
X6616071Y-13081214D02*
X6444643Y-13081214D01*
X6530357Y-13081214D02*
X6530357Y-12781214D01*
X6501786Y-12824071D01*
X6473214Y-12852643D01*
X6444643Y-12866929D01*
X6901786Y-13081214D02*
X6730357Y-13081214D01*
X6816071Y-13081214D02*
X6816071Y-12781214D01*
X6787500Y-12824071D01*
X6758928Y-12852643D01*
X6730357Y-12866929D01*
X7073214Y-12909786D02*
X7044643Y-12895500D01*
X7030357Y-12881214D01*
X7016071Y-12852643D01*
X7016071Y-12838357D01*
X7030357Y-12809786D01*
X7044643Y-12795500D01*
X7073214Y-12781214D01*
X7130357Y-12781214D01*
X7158928Y-12795500D01*
X7173214Y-12809786D01*
X7187500Y-12838357D01*
X7187500Y-12852643D01*
X7173214Y-12881214D01*
X7158928Y-12895500D01*
X7130357Y-12909786D01*
X7073214Y-12909786D01*
X7044643Y-12924071D01*
X7030357Y-12938357D01*
X7016071Y-12966929D01*
X7016071Y-13024071D01*
X7030357Y-13052643D01*
X7044643Y-13066929D01*
X7073214Y-13081214D01*
X7130357Y-13081214D01*
X7158928Y-13066929D01*
X7173214Y-13052643D01*
X7187500Y-13024071D01*
X7187500Y-12966929D01*
X7173214Y-12938357D01*
X7158928Y-12924071D01*
X7130357Y-12909786D01*
X7301786Y-12781214D02*
X7301786Y-12838357D01*
X7416071Y-12781214D02*
X7416071Y-12838357D01*
X7858928Y-13195500D02*
X7844643Y-13181214D01*
X7816071Y-13138357D01*
X7801786Y-13109786D01*
X7787500Y-13066929D01*
X7773214Y-12995500D01*
X7773214Y-12938357D01*
X7787500Y-12866929D01*
X7801786Y-12824071D01*
X7816071Y-12795500D01*
X7844643Y-12752643D01*
X7858928Y-12738357D01*
X8016071Y-12909786D02*
X7987500Y-12895500D01*
X7973214Y-12881214D01*
X7958928Y-12852643D01*
X7958928Y-12838357D01*
X7973214Y-12809786D01*
X7987500Y-12795500D01*
X8016071Y-12781214D01*
X8073214Y-12781214D01*
X8101786Y-12795500D01*
X8116071Y-12809786D01*
X8130357Y-12838357D01*
X8130357Y-12852643D01*
X8116071Y-12881214D01*
X8101786Y-12895500D01*
X8073214Y-12909786D01*
X8016071Y-12909786D01*
X7987500Y-12924071D01*
X7973214Y-12938357D01*
X7958928Y-12966929D01*
X7958928Y-13024071D01*
X7973214Y-13052643D01*
X7987500Y-13066929D01*
X8016071Y-13081214D01*
X8073214Y-13081214D01*
X8101786Y-13066929D01*
X8116071Y-13052643D01*
X8130357Y-13024071D01*
X8130357Y-12966929D01*
X8116071Y-12938357D01*
X8101786Y-12924071D01*
X8073214Y-12909786D01*
X8387500Y-12881214D02*
X8387500Y-13081214D01*
X8316071Y-12766929D02*
X8244643Y-12981214D01*
X8430357Y-12981214D01*
X8773214Y-13081214D02*
X8773214Y-12781214D01*
X8901786Y-13081214D02*
X8901786Y-12924071D01*
X8887500Y-12895500D01*
X8858928Y-12881214D01*
X8816071Y-12881214D01*
X8787500Y-12895500D01*
X8773214Y-12909786D01*
X9087500Y-13081214D02*
X9058928Y-13066929D01*
X9044643Y-13052643D01*
X9030357Y-13024071D01*
X9030357Y-12938357D01*
X9044643Y-12909786D01*
X9058928Y-12895500D01*
X9087500Y-12881214D01*
X9130357Y-12881214D01*
X9158928Y-12895500D01*
X9173214Y-12909786D01*
X9187500Y-12938357D01*
X9187500Y-13024071D01*
X9173214Y-13052643D01*
X9158928Y-13066929D01*
X9130357Y-13081214D01*
X9087500Y-13081214D01*
X9358928Y-13081214D02*
X9330357Y-13066929D01*
X9316071Y-13038357D01*
X9316071Y-12781214D01*
X9587500Y-13066929D02*
X9558928Y-13081214D01*
X9501786Y-13081214D01*
X9473214Y-13066929D01*
X9458928Y-13038357D01*
X9458928Y-12924071D01*
X9473214Y-12895500D01*
X9501786Y-12881214D01*
X9558928Y-12881214D01*
X9587500Y-12895500D01*
X9601786Y-12924071D01*
X9601786Y-12952643D01*
X9458928Y-12981214D01*
X9716071Y-13066929D02*
X9744643Y-13081214D01*
X9801786Y-13081214D01*
X9830357Y-13066929D01*
X9844643Y-13038357D01*
X9844643Y-13024071D01*
X9830357Y-12995500D01*
X9801786Y-12981214D01*
X9758928Y-12981214D01*
X9730357Y-12966929D01*
X9716071Y-12938357D01*
X9716071Y-12924071D01*
X9730357Y-12895500D01*
X9758928Y-12881214D01*
X9801786Y-12881214D01*
X9830357Y-12895500D01*
X9944643Y-13195500D02*
X9958928Y-13181214D01*
X9987500Y-13138357D01*
X10001786Y-13109786D01*
X10016071Y-13066929D01*
X10030357Y-12995500D01*
X10030357Y-12938357D01*
X10016071Y-12866929D01*
X10001786Y-12824071D01*
X9987500Y-12795500D01*
X9958928Y-12752643D01*
X9944643Y-12738357D01*
M02*
