G04 #@! TF.GenerationSoftware,KiCad,Pcbnew,5.1.9+dfsg1-1*
G04 #@! TF.CreationDate,2022-03-28T16:06:31+02:00*
G04 #@! TF.ProjectId,la_nc,6c615f6e-632e-46b6-9963-61645f706362,rev?*
G04 #@! TF.SameCoordinates,Original*
G04 #@! TF.FileFunction,Legend,Bot*
G04 #@! TF.FilePolarity,Positive*
%FSLAX46Y46*%
G04 Gerber Fmt 4.6, Leading zero omitted, Abs format (unit mm)*
G04 Created by KiCad (PCBNEW 5.1.9+dfsg1-1) date 2022-03-28 16:06:31*
%MOMM*%
%LPD*%
G01*
G04 APERTURE LIST*
%ADD10C,0.150000*%
%ADD11R,2.550000X2.500000*%
%ADD12C,1.750000*%
%ADD13C,3.987800*%
%ADD14R,1.000000X1.400000*%
%ADD15C,2.000000*%
%ADD16C,5.000000*%
%ADD17C,1.397000*%
%ADD18C,1.524000*%
G04 APERTURE END LIST*
D10*
X162445000Y-101125000D02*
X162445000Y-95725000D01*
X163945000Y-95725000D02*
X163945000Y-101125000D01*
X163945000Y-101125000D02*
X162445000Y-101125000D01*
X163945000Y-95725000D02*
X162445000Y-95725000D01*
X163695000Y-97925000D02*
X162695000Y-97925000D01*
X162695000Y-97925000D02*
X163195000Y-98825000D01*
X163195000Y-98825000D02*
X163695000Y-97925000D01*
X163695000Y-98925000D02*
X162695000Y-98925000D01*
X143395000Y-101125000D02*
X143395000Y-95725000D01*
X144895000Y-95725000D02*
X144895000Y-101125000D01*
X144895000Y-101125000D02*
X143395000Y-101125000D01*
X144895000Y-95725000D02*
X143395000Y-95725000D01*
X144645000Y-97925000D02*
X143645000Y-97925000D01*
X143645000Y-97925000D02*
X144145000Y-98825000D01*
X144145000Y-98825000D02*
X144645000Y-97925000D01*
X144645000Y-98925000D02*
X143645000Y-98925000D01*
X257695000Y-101125000D02*
X257695000Y-95725000D01*
X259195000Y-95725000D02*
X259195000Y-101125000D01*
X259195000Y-101125000D02*
X257695000Y-101125000D01*
X259195000Y-95725000D02*
X257695000Y-95725000D01*
X258945000Y-97925000D02*
X257945000Y-97925000D01*
X257945000Y-97925000D02*
X258445000Y-98825000D01*
X258445000Y-98825000D02*
X258945000Y-97925000D01*
X258945000Y-98925000D02*
X257945000Y-98925000D01*
X238645000Y-101125000D02*
X238645000Y-95725000D01*
X240145000Y-95725000D02*
X240145000Y-101125000D01*
X240145000Y-101125000D02*
X238645000Y-101125000D01*
X240145000Y-95725000D02*
X238645000Y-95725000D01*
X239895000Y-97925000D02*
X238895000Y-97925000D01*
X238895000Y-97925000D02*
X239395000Y-98825000D01*
X239395000Y-98825000D02*
X239895000Y-97925000D01*
X239895000Y-98925000D02*
X238895000Y-98925000D01*
X219595000Y-101125000D02*
X219595000Y-95725000D01*
X221095000Y-95725000D02*
X221095000Y-101125000D01*
X221095000Y-101125000D02*
X219595000Y-101125000D01*
X221095000Y-95725000D02*
X219595000Y-95725000D01*
X220845000Y-97925000D02*
X219845000Y-97925000D01*
X219845000Y-97925000D02*
X220345000Y-98825000D01*
X220345000Y-98825000D02*
X220845000Y-97925000D01*
X220845000Y-98925000D02*
X219845000Y-98925000D01*
X200545000Y-101125000D02*
X200545000Y-95725000D01*
X202045000Y-95725000D02*
X202045000Y-101125000D01*
X202045000Y-101125000D02*
X200545000Y-101125000D01*
X202045000Y-95725000D02*
X200545000Y-95725000D01*
X201795000Y-97925000D02*
X200795000Y-97925000D01*
X200795000Y-97925000D02*
X201295000Y-98825000D01*
X201295000Y-98825000D02*
X201795000Y-97925000D01*
X201795000Y-98925000D02*
X200795000Y-98925000D01*
X181495000Y-101125000D02*
X181495000Y-95725000D01*
X182995000Y-95725000D02*
X182995000Y-101125000D01*
X182995000Y-101125000D02*
X181495000Y-101125000D01*
X182995000Y-95725000D02*
X181495000Y-95725000D01*
X182745000Y-97925000D02*
X181745000Y-97925000D01*
X181745000Y-97925000D02*
X182245000Y-98825000D01*
X182245000Y-98825000D02*
X182745000Y-97925000D01*
X182745000Y-98925000D02*
X181745000Y-98925000D01*
X124345000Y-101125000D02*
X124345000Y-95725000D01*
X125845000Y-95725000D02*
X125845000Y-101125000D01*
X125845000Y-101125000D02*
X124345000Y-101125000D01*
X125845000Y-95725000D02*
X124345000Y-95725000D01*
X125595000Y-97925000D02*
X124595000Y-97925000D01*
X124595000Y-97925000D02*
X125095000Y-98825000D01*
X125095000Y-98825000D02*
X125595000Y-97925000D01*
X125595000Y-98925000D02*
X124595000Y-98925000D01*
X105295000Y-101125000D02*
X105295000Y-95725000D01*
X106795000Y-95725000D02*
X106795000Y-101125000D01*
X106795000Y-101125000D02*
X105295000Y-101125000D01*
X106795000Y-95725000D02*
X105295000Y-95725000D01*
X106545000Y-97925000D02*
X105545000Y-97925000D01*
X105545000Y-97925000D02*
X106045000Y-98825000D01*
X106045000Y-98825000D02*
X106545000Y-97925000D01*
X106545000Y-98925000D02*
X105545000Y-98925000D01*
X86245000Y-101125000D02*
X86245000Y-95725000D01*
X87745000Y-95725000D02*
X87745000Y-101125000D01*
X87745000Y-101125000D02*
X86245000Y-101125000D01*
X87745000Y-95725000D02*
X86245000Y-95725000D01*
X87495000Y-97925000D02*
X86495000Y-97925000D01*
X86495000Y-97925000D02*
X86995000Y-98825000D01*
X86995000Y-98825000D02*
X87495000Y-97925000D01*
X87495000Y-98925000D02*
X86495000Y-98925000D01*
X67195000Y-101125000D02*
X67195000Y-95725000D01*
X68695000Y-95725000D02*
X68695000Y-101125000D01*
X68695000Y-101125000D02*
X67195000Y-101125000D01*
X68695000Y-95725000D02*
X67195000Y-95725000D01*
X68445000Y-97925000D02*
X67445000Y-97925000D01*
X67445000Y-97925000D02*
X67945000Y-98825000D01*
X67945000Y-98825000D02*
X68445000Y-97925000D01*
X68445000Y-98925000D02*
X67445000Y-98925000D01*
X48145000Y-101125000D02*
X48145000Y-95725000D01*
X49645000Y-95725000D02*
X49645000Y-101125000D01*
X49645000Y-101125000D02*
X48145000Y-101125000D01*
X49645000Y-95725000D02*
X48145000Y-95725000D01*
X49395000Y-97925000D02*
X48395000Y-97925000D01*
X48395000Y-97925000D02*
X48895000Y-98825000D01*
X48895000Y-98825000D02*
X49395000Y-97925000D01*
X49395000Y-98925000D02*
X48395000Y-98925000D01*
X257695000Y-82075000D02*
X257695000Y-76675000D01*
X259195000Y-76675000D02*
X259195000Y-82075000D01*
X259195000Y-82075000D02*
X257695000Y-82075000D01*
X259195000Y-76675000D02*
X257695000Y-76675000D01*
X258945000Y-78875000D02*
X257945000Y-78875000D01*
X257945000Y-78875000D02*
X258445000Y-79775000D01*
X258445000Y-79775000D02*
X258945000Y-78875000D01*
X258945000Y-79875000D02*
X257945000Y-79875000D01*
X238645000Y-82075000D02*
X238645000Y-76675000D01*
X240145000Y-76675000D02*
X240145000Y-82075000D01*
X240145000Y-82075000D02*
X238645000Y-82075000D01*
X240145000Y-76675000D02*
X238645000Y-76675000D01*
X239895000Y-78875000D02*
X238895000Y-78875000D01*
X238895000Y-78875000D02*
X239395000Y-79775000D01*
X239395000Y-79775000D02*
X239895000Y-78875000D01*
X239895000Y-79875000D02*
X238895000Y-79875000D01*
X219595000Y-82075000D02*
X219595000Y-76675000D01*
X221095000Y-76675000D02*
X221095000Y-82075000D01*
X221095000Y-82075000D02*
X219595000Y-82075000D01*
X221095000Y-76675000D02*
X219595000Y-76675000D01*
X220845000Y-78875000D02*
X219845000Y-78875000D01*
X219845000Y-78875000D02*
X220345000Y-79775000D01*
X220345000Y-79775000D02*
X220845000Y-78875000D01*
X220845000Y-79875000D02*
X219845000Y-79875000D01*
X200545000Y-82075000D02*
X200545000Y-76675000D01*
X202045000Y-76675000D02*
X202045000Y-82075000D01*
X202045000Y-82075000D02*
X200545000Y-82075000D01*
X202045000Y-76675000D02*
X200545000Y-76675000D01*
X201795000Y-78875000D02*
X200795000Y-78875000D01*
X200795000Y-78875000D02*
X201295000Y-79775000D01*
X201295000Y-79775000D02*
X201795000Y-78875000D01*
X201795000Y-79875000D02*
X200795000Y-79875000D01*
X181495000Y-82075000D02*
X181495000Y-76675000D01*
X182995000Y-76675000D02*
X182995000Y-82075000D01*
X182995000Y-82075000D02*
X181495000Y-82075000D01*
X182995000Y-76675000D02*
X181495000Y-76675000D01*
X182745000Y-78875000D02*
X181745000Y-78875000D01*
X181745000Y-78875000D02*
X182245000Y-79775000D01*
X182245000Y-79775000D02*
X182745000Y-78875000D01*
X182745000Y-79875000D02*
X181745000Y-79875000D01*
X124345000Y-82075000D02*
X124345000Y-76675000D01*
X125845000Y-76675000D02*
X125845000Y-82075000D01*
X125845000Y-82075000D02*
X124345000Y-82075000D01*
X125845000Y-76675000D02*
X124345000Y-76675000D01*
X125595000Y-78875000D02*
X124595000Y-78875000D01*
X124595000Y-78875000D02*
X125095000Y-79775000D01*
X125095000Y-79775000D02*
X125595000Y-78875000D01*
X125595000Y-79875000D02*
X124595000Y-79875000D01*
X105295000Y-82075000D02*
X105295000Y-76675000D01*
X106795000Y-76675000D02*
X106795000Y-82075000D01*
X106795000Y-82075000D02*
X105295000Y-82075000D01*
X106795000Y-76675000D02*
X105295000Y-76675000D01*
X106545000Y-78875000D02*
X105545000Y-78875000D01*
X105545000Y-78875000D02*
X106045000Y-79775000D01*
X106045000Y-79775000D02*
X106545000Y-78875000D01*
X106545000Y-79875000D02*
X105545000Y-79875000D01*
X86245000Y-82075000D02*
X86245000Y-76675000D01*
X87745000Y-76675000D02*
X87745000Y-82075000D01*
X87745000Y-82075000D02*
X86245000Y-82075000D01*
X87745000Y-76675000D02*
X86245000Y-76675000D01*
X87495000Y-78875000D02*
X86495000Y-78875000D01*
X86495000Y-78875000D02*
X86995000Y-79775000D01*
X86995000Y-79775000D02*
X87495000Y-78875000D01*
X87495000Y-79875000D02*
X86495000Y-79875000D01*
X67195000Y-82075000D02*
X67195000Y-76675000D01*
X68695000Y-76675000D02*
X68695000Y-82075000D01*
X68695000Y-82075000D02*
X67195000Y-82075000D01*
X68695000Y-76675000D02*
X67195000Y-76675000D01*
X68445000Y-78875000D02*
X67445000Y-78875000D01*
X67445000Y-78875000D02*
X67945000Y-79775000D01*
X67945000Y-79775000D02*
X68445000Y-78875000D01*
X68445000Y-79875000D02*
X67445000Y-79875000D01*
X48145000Y-82075000D02*
X48145000Y-76675000D01*
X49645000Y-76675000D02*
X49645000Y-82075000D01*
X49645000Y-82075000D02*
X48145000Y-82075000D01*
X49645000Y-76675000D02*
X48145000Y-76675000D01*
X49395000Y-78875000D02*
X48395000Y-78875000D01*
X48395000Y-78875000D02*
X48895000Y-79775000D01*
X48895000Y-79775000D02*
X49395000Y-78875000D01*
X49395000Y-79875000D02*
X48395000Y-79875000D01*
X257695000Y-63025000D02*
X257695000Y-57625000D01*
X259195000Y-57625000D02*
X259195000Y-63025000D01*
X259195000Y-63025000D02*
X257695000Y-63025000D01*
X259195000Y-57625000D02*
X257695000Y-57625000D01*
X258945000Y-59825000D02*
X257945000Y-59825000D01*
X257945000Y-59825000D02*
X258445000Y-60725000D01*
X258445000Y-60725000D02*
X258945000Y-59825000D01*
X258945000Y-60825000D02*
X257945000Y-60825000D01*
X238645000Y-63025000D02*
X238645000Y-57625000D01*
X240145000Y-57625000D02*
X240145000Y-63025000D01*
X240145000Y-63025000D02*
X238645000Y-63025000D01*
X240145000Y-57625000D02*
X238645000Y-57625000D01*
X239895000Y-59825000D02*
X238895000Y-59825000D01*
X238895000Y-59825000D02*
X239395000Y-60725000D01*
X239395000Y-60725000D02*
X239895000Y-59825000D01*
X239895000Y-60825000D02*
X238895000Y-60825000D01*
X219595000Y-63025000D02*
X219595000Y-57625000D01*
X221095000Y-57625000D02*
X221095000Y-63025000D01*
X221095000Y-63025000D02*
X219595000Y-63025000D01*
X221095000Y-57625000D02*
X219595000Y-57625000D01*
X220845000Y-59825000D02*
X219845000Y-59825000D01*
X219845000Y-59825000D02*
X220345000Y-60725000D01*
X220345000Y-60725000D02*
X220845000Y-59825000D01*
X220845000Y-60825000D02*
X219845000Y-60825000D01*
X200545000Y-63025000D02*
X200545000Y-57625000D01*
X202045000Y-57625000D02*
X202045000Y-63025000D01*
X202045000Y-63025000D02*
X200545000Y-63025000D01*
X202045000Y-57625000D02*
X200545000Y-57625000D01*
X201795000Y-59825000D02*
X200795000Y-59825000D01*
X200795000Y-59825000D02*
X201295000Y-60725000D01*
X201295000Y-60725000D02*
X201795000Y-59825000D01*
X201795000Y-60825000D02*
X200795000Y-60825000D01*
X181495000Y-63025000D02*
X181495000Y-57625000D01*
X182995000Y-57625000D02*
X182995000Y-63025000D01*
X182995000Y-63025000D02*
X181495000Y-63025000D01*
X182995000Y-57625000D02*
X181495000Y-57625000D01*
X182745000Y-59825000D02*
X181745000Y-59825000D01*
X181745000Y-59825000D02*
X182245000Y-60725000D01*
X182245000Y-60725000D02*
X182745000Y-59825000D01*
X182745000Y-60825000D02*
X181745000Y-60825000D01*
X124345000Y-63025000D02*
X124345000Y-57625000D01*
X125845000Y-57625000D02*
X125845000Y-63025000D01*
X125845000Y-63025000D02*
X124345000Y-63025000D01*
X125845000Y-57625000D02*
X124345000Y-57625000D01*
X125595000Y-59825000D02*
X124595000Y-59825000D01*
X124595000Y-59825000D02*
X125095000Y-60725000D01*
X125095000Y-60725000D02*
X125595000Y-59825000D01*
X125595000Y-60825000D02*
X124595000Y-60825000D01*
X105295000Y-63025000D02*
X105295000Y-57625000D01*
X106795000Y-57625000D02*
X106795000Y-63025000D01*
X106795000Y-63025000D02*
X105295000Y-63025000D01*
X106795000Y-57625000D02*
X105295000Y-57625000D01*
X106545000Y-59825000D02*
X105545000Y-59825000D01*
X105545000Y-59825000D02*
X106045000Y-60725000D01*
X106045000Y-60725000D02*
X106545000Y-59825000D01*
X106545000Y-60825000D02*
X105545000Y-60825000D01*
X86245000Y-63025000D02*
X86245000Y-57625000D01*
X87745000Y-57625000D02*
X87745000Y-63025000D01*
X87745000Y-63025000D02*
X86245000Y-63025000D01*
X87745000Y-57625000D02*
X86245000Y-57625000D01*
X87495000Y-59825000D02*
X86495000Y-59825000D01*
X86495000Y-59825000D02*
X86995000Y-60725000D01*
X86995000Y-60725000D02*
X87495000Y-59825000D01*
X87495000Y-60825000D02*
X86495000Y-60825000D01*
X67195000Y-63025000D02*
X67195000Y-57625000D01*
X68695000Y-57625000D02*
X68695000Y-63025000D01*
X68695000Y-63025000D02*
X67195000Y-63025000D01*
X68695000Y-57625000D02*
X67195000Y-57625000D01*
X68445000Y-59825000D02*
X67445000Y-59825000D01*
X67445000Y-59825000D02*
X67945000Y-60725000D01*
X67945000Y-60725000D02*
X68445000Y-59825000D01*
X68445000Y-60825000D02*
X67445000Y-60825000D01*
X48145000Y-63025000D02*
X48145000Y-57625000D01*
X49645000Y-57625000D02*
X49645000Y-63025000D01*
X49645000Y-63025000D02*
X48145000Y-63025000D01*
X49645000Y-57625000D02*
X48145000Y-57625000D01*
X49395000Y-59825000D02*
X48395000Y-59825000D01*
X48395000Y-59825000D02*
X48895000Y-60725000D01*
X48895000Y-60725000D02*
X49395000Y-59825000D01*
X49395000Y-60825000D02*
X48395000Y-60825000D01*
X257695000Y-43975000D02*
X257695000Y-38575000D01*
X259195000Y-38575000D02*
X259195000Y-43975000D01*
X259195000Y-43975000D02*
X257695000Y-43975000D01*
X259195000Y-38575000D02*
X257695000Y-38575000D01*
X258945000Y-40775000D02*
X257945000Y-40775000D01*
X257945000Y-40775000D02*
X258445000Y-41675000D01*
X258445000Y-41675000D02*
X258945000Y-40775000D01*
X258945000Y-41775000D02*
X257945000Y-41775000D01*
X238645000Y-43975000D02*
X238645000Y-38575000D01*
X240145000Y-38575000D02*
X240145000Y-43975000D01*
X240145000Y-43975000D02*
X238645000Y-43975000D01*
X240145000Y-38575000D02*
X238645000Y-38575000D01*
X239895000Y-40775000D02*
X238895000Y-40775000D01*
X238895000Y-40775000D02*
X239395000Y-41675000D01*
X239395000Y-41675000D02*
X239895000Y-40775000D01*
X239895000Y-41775000D02*
X238895000Y-41775000D01*
X219595000Y-43975000D02*
X219595000Y-38575000D01*
X221095000Y-38575000D02*
X221095000Y-43975000D01*
X221095000Y-43975000D02*
X219595000Y-43975000D01*
X221095000Y-38575000D02*
X219595000Y-38575000D01*
X220845000Y-40775000D02*
X219845000Y-40775000D01*
X219845000Y-40775000D02*
X220345000Y-41675000D01*
X220345000Y-41675000D02*
X220845000Y-40775000D01*
X220845000Y-41775000D02*
X219845000Y-41775000D01*
X200545000Y-43975000D02*
X200545000Y-38575000D01*
X202045000Y-38575000D02*
X202045000Y-43975000D01*
X202045000Y-43975000D02*
X200545000Y-43975000D01*
X202045000Y-38575000D02*
X200545000Y-38575000D01*
X201795000Y-40775000D02*
X200795000Y-40775000D01*
X200795000Y-40775000D02*
X201295000Y-41675000D01*
X201295000Y-41675000D02*
X201795000Y-40775000D01*
X201795000Y-41775000D02*
X200795000Y-41775000D01*
X181495000Y-43975000D02*
X181495000Y-38575000D01*
X182995000Y-38575000D02*
X182995000Y-43975000D01*
X182995000Y-43975000D02*
X181495000Y-43975000D01*
X182995000Y-38575000D02*
X181495000Y-38575000D01*
X182745000Y-40775000D02*
X181745000Y-40775000D01*
X181745000Y-40775000D02*
X182245000Y-41675000D01*
X182245000Y-41675000D02*
X182745000Y-40775000D01*
X182745000Y-41775000D02*
X181745000Y-41775000D01*
X124345000Y-43975000D02*
X124345000Y-38575000D01*
X125845000Y-38575000D02*
X125845000Y-43975000D01*
X125845000Y-43975000D02*
X124345000Y-43975000D01*
X125845000Y-38575000D02*
X124345000Y-38575000D01*
X125595000Y-40775000D02*
X124595000Y-40775000D01*
X124595000Y-40775000D02*
X125095000Y-41675000D01*
X125095000Y-41675000D02*
X125595000Y-40775000D01*
X125595000Y-41775000D02*
X124595000Y-41775000D01*
X105295000Y-43975000D02*
X105295000Y-38575000D01*
X106795000Y-38575000D02*
X106795000Y-43975000D01*
X106795000Y-43975000D02*
X105295000Y-43975000D01*
X106795000Y-38575000D02*
X105295000Y-38575000D01*
X106545000Y-40775000D02*
X105545000Y-40775000D01*
X105545000Y-40775000D02*
X106045000Y-41675000D01*
X106045000Y-41675000D02*
X106545000Y-40775000D01*
X106545000Y-41775000D02*
X105545000Y-41775000D01*
X86245000Y-43975000D02*
X86245000Y-38575000D01*
X87745000Y-38575000D02*
X87745000Y-43975000D01*
X87745000Y-43975000D02*
X86245000Y-43975000D01*
X87745000Y-38575000D02*
X86245000Y-38575000D01*
X87495000Y-40775000D02*
X86495000Y-40775000D01*
X86495000Y-40775000D02*
X86995000Y-41675000D01*
X86995000Y-41675000D02*
X87495000Y-40775000D01*
X87495000Y-41775000D02*
X86495000Y-41775000D01*
X67195000Y-43975000D02*
X67195000Y-38575000D01*
X68695000Y-38575000D02*
X68695000Y-43975000D01*
X68695000Y-43975000D02*
X67195000Y-43975000D01*
X68695000Y-38575000D02*
X67195000Y-38575000D01*
X68445000Y-40775000D02*
X67445000Y-40775000D01*
X67445000Y-40775000D02*
X67945000Y-41675000D01*
X67945000Y-41675000D02*
X68445000Y-40775000D01*
X68445000Y-41775000D02*
X67445000Y-41775000D01*
X48145000Y-43975000D02*
X48145000Y-38575000D01*
X49645000Y-38575000D02*
X49645000Y-43975000D01*
X49645000Y-43975000D02*
X48145000Y-43975000D01*
X49645000Y-38575000D02*
X48145000Y-38575000D01*
X49395000Y-40775000D02*
X48395000Y-40775000D01*
X48395000Y-40775000D02*
X48895000Y-41675000D01*
X48895000Y-41675000D02*
X49395000Y-40775000D01*
X49395000Y-41775000D02*
X48395000Y-41775000D01*
%LPC*%
D11*
X161390000Y-93345000D03*
X148490000Y-95885000D03*
D12*
X160655000Y-98425000D03*
X150495000Y-98425000D03*
D13*
X155575000Y-98425000D03*
D11*
X142340000Y-93345000D03*
X129440000Y-95885000D03*
D12*
X141605000Y-98425000D03*
X131445000Y-98425000D03*
D13*
X136525000Y-98425000D03*
D11*
X256640000Y-93345000D03*
X243740000Y-95885000D03*
D12*
X255905000Y-98425000D03*
X245745000Y-98425000D03*
D13*
X250825000Y-98425000D03*
D11*
X237590000Y-93345000D03*
X224690000Y-95885000D03*
D12*
X236855000Y-98425000D03*
X226695000Y-98425000D03*
D13*
X231775000Y-98425000D03*
D11*
X218540000Y-93345000D03*
X205640000Y-95885000D03*
D12*
X217805000Y-98425000D03*
X207645000Y-98425000D03*
D13*
X212725000Y-98425000D03*
D11*
X199490000Y-93345000D03*
X186590000Y-95885000D03*
D12*
X198755000Y-98425000D03*
X188595000Y-98425000D03*
D13*
X193675000Y-98425000D03*
D11*
X180440000Y-93345000D03*
X167540000Y-95885000D03*
D12*
X179705000Y-98425000D03*
X169545000Y-98425000D03*
D13*
X174625000Y-98425000D03*
D11*
X123290000Y-93345000D03*
X110390000Y-95885000D03*
D12*
X122555000Y-98425000D03*
X112395000Y-98425000D03*
D13*
X117475000Y-98425000D03*
D11*
X104240000Y-93345000D03*
X91340000Y-95885000D03*
D12*
X103505000Y-98425000D03*
X93345000Y-98425000D03*
D13*
X98425000Y-98425000D03*
D11*
X85190000Y-93345000D03*
X72290000Y-95885000D03*
D12*
X84455000Y-98425000D03*
X74295000Y-98425000D03*
D13*
X79375000Y-98425000D03*
D11*
X66140000Y-93345000D03*
X53240000Y-95885000D03*
D12*
X65405000Y-98425000D03*
X55245000Y-98425000D03*
D13*
X60325000Y-98425000D03*
D11*
X47090000Y-93345000D03*
X34190000Y-95885000D03*
D12*
X46355000Y-98425000D03*
X36195000Y-98425000D03*
D13*
X41275000Y-98425000D03*
D11*
X256640000Y-74295000D03*
X243740000Y-76835000D03*
D12*
X255905000Y-79375000D03*
X245745000Y-79375000D03*
D13*
X250825000Y-79375000D03*
D11*
X237590000Y-74295000D03*
X224690000Y-76835000D03*
D12*
X236855000Y-79375000D03*
X226695000Y-79375000D03*
D13*
X231775000Y-79375000D03*
D11*
X218540000Y-74295000D03*
X205640000Y-76835000D03*
D12*
X217805000Y-79375000D03*
X207645000Y-79375000D03*
D13*
X212725000Y-79375000D03*
D11*
X199490000Y-74295000D03*
X186590000Y-76835000D03*
D12*
X198755000Y-79375000D03*
X188595000Y-79375000D03*
D13*
X193675000Y-79375000D03*
D11*
X180440000Y-74295000D03*
X167540000Y-76835000D03*
D12*
X179705000Y-79375000D03*
X169545000Y-79375000D03*
D13*
X174625000Y-79375000D03*
D11*
X123290000Y-74295000D03*
X110390000Y-76835000D03*
D12*
X122555000Y-79375000D03*
X112395000Y-79375000D03*
D13*
X117475000Y-79375000D03*
D11*
X104240000Y-74295000D03*
X91340000Y-76835000D03*
D12*
X103505000Y-79375000D03*
X93345000Y-79375000D03*
D13*
X98425000Y-79375000D03*
D11*
X85190000Y-74295000D03*
X72290000Y-76835000D03*
D12*
X84455000Y-79375000D03*
X74295000Y-79375000D03*
D13*
X79375000Y-79375000D03*
D11*
X66140000Y-74295000D03*
X53240000Y-76835000D03*
D12*
X65405000Y-79375000D03*
X55245000Y-79375000D03*
D13*
X60325000Y-79375000D03*
D11*
X47090000Y-74295000D03*
X34190000Y-76835000D03*
D12*
X46355000Y-79375000D03*
X36195000Y-79375000D03*
D13*
X41275000Y-79375000D03*
D11*
X256640000Y-55245000D03*
X243740000Y-57785000D03*
D12*
X255905000Y-60325000D03*
X245745000Y-60325000D03*
D13*
X250825000Y-60325000D03*
D11*
X237590000Y-55245000D03*
X224690000Y-57785000D03*
D12*
X236855000Y-60325000D03*
X226695000Y-60325000D03*
D13*
X231775000Y-60325000D03*
D11*
X218540000Y-55245000D03*
X205640000Y-57785000D03*
D12*
X217805000Y-60325000D03*
X207645000Y-60325000D03*
D13*
X212725000Y-60325000D03*
D11*
X199490000Y-55245000D03*
X186590000Y-57785000D03*
D12*
X198755000Y-60325000D03*
X188595000Y-60325000D03*
D13*
X193675000Y-60325000D03*
D11*
X180440000Y-55245000D03*
X167540000Y-57785000D03*
D12*
X179705000Y-60325000D03*
X169545000Y-60325000D03*
D13*
X174625000Y-60325000D03*
D11*
X123290000Y-55245000D03*
X110390000Y-57785000D03*
D12*
X122555000Y-60325000D03*
X112395000Y-60325000D03*
D13*
X117475000Y-60325000D03*
D11*
X104240000Y-55245000D03*
X91340000Y-57785000D03*
D12*
X103505000Y-60325000D03*
X93345000Y-60325000D03*
D13*
X98425000Y-60325000D03*
D11*
X85190000Y-55245000D03*
X72290000Y-57785000D03*
D12*
X84455000Y-60325000D03*
X74295000Y-60325000D03*
D13*
X79375000Y-60325000D03*
D11*
X66140000Y-55245000D03*
X53240000Y-57785000D03*
D12*
X65405000Y-60325000D03*
X55245000Y-60325000D03*
D13*
X60325000Y-60325000D03*
D11*
X47090000Y-55245000D03*
X34190000Y-57785000D03*
D12*
X46355000Y-60325000D03*
X36195000Y-60325000D03*
D13*
X41275000Y-60325000D03*
D11*
X256640000Y-36195000D03*
X243740000Y-38735000D03*
D12*
X255905000Y-41275000D03*
X245745000Y-41275000D03*
D13*
X250825000Y-41275000D03*
D11*
X237590000Y-36195000D03*
X224690000Y-38735000D03*
D12*
X236855000Y-41275000D03*
X226695000Y-41275000D03*
D13*
X231775000Y-41275000D03*
D11*
X218540000Y-36195000D03*
X205640000Y-38735000D03*
D12*
X217805000Y-41275000D03*
X207645000Y-41275000D03*
D13*
X212725000Y-41275000D03*
D11*
X199490000Y-36195000D03*
X186590000Y-38735000D03*
D12*
X198755000Y-41275000D03*
X188595000Y-41275000D03*
D13*
X193675000Y-41275000D03*
D11*
X180440000Y-36195000D03*
X167540000Y-38735000D03*
D12*
X179705000Y-41275000D03*
X169545000Y-41275000D03*
D13*
X174625000Y-41275000D03*
D11*
X123290000Y-36195000D03*
X110390000Y-38735000D03*
D12*
X122555000Y-41275000D03*
X112395000Y-41275000D03*
D13*
X117475000Y-41275000D03*
D11*
X104240000Y-36195000D03*
X91340000Y-38735000D03*
D12*
X103505000Y-41275000D03*
X93345000Y-41275000D03*
D13*
X98425000Y-41275000D03*
D11*
X85190000Y-36195000D03*
X72290000Y-38735000D03*
D12*
X84455000Y-41275000D03*
X74295000Y-41275000D03*
D13*
X79375000Y-41275000D03*
D11*
X66140000Y-36195000D03*
X53240000Y-38735000D03*
D12*
X65405000Y-41275000D03*
X55245000Y-41275000D03*
D13*
X60325000Y-41275000D03*
D11*
X47090000Y-36195000D03*
X34190000Y-38735000D03*
D12*
X46355000Y-41275000D03*
X36195000Y-41275000D03*
D13*
X41275000Y-41275000D03*
D14*
X163195000Y-96650000D03*
X163195000Y-100200000D03*
X144145000Y-96650000D03*
X144145000Y-100200000D03*
X258445000Y-96650000D03*
X258445000Y-100200000D03*
X239395000Y-96650000D03*
X239395000Y-100200000D03*
X220345000Y-96650000D03*
X220345000Y-100200000D03*
X201295000Y-96650000D03*
X201295000Y-100200000D03*
X182245000Y-96650000D03*
X182245000Y-100200000D03*
X125095000Y-96650000D03*
X125095000Y-100200000D03*
X106045000Y-96650000D03*
X106045000Y-100200000D03*
X86995000Y-96650000D03*
X86995000Y-100200000D03*
X67945000Y-96650000D03*
X67945000Y-100200000D03*
X48895000Y-96650000D03*
X48895000Y-100200000D03*
X258445000Y-77600000D03*
X258445000Y-81150000D03*
X239395000Y-77600000D03*
X239395000Y-81150000D03*
X220345000Y-77600000D03*
X220345000Y-81150000D03*
X201295000Y-77600000D03*
X201295000Y-81150000D03*
X182245000Y-77600000D03*
X182245000Y-81150000D03*
X125095000Y-77600000D03*
X125095000Y-81150000D03*
X106045000Y-77600000D03*
X106045000Y-81150000D03*
X86995000Y-77600000D03*
X86995000Y-81150000D03*
X67945000Y-77600000D03*
X67945000Y-81150000D03*
X48895000Y-77600000D03*
X48895000Y-81150000D03*
X258445000Y-58550000D03*
X258445000Y-62100000D03*
X239395000Y-58550000D03*
X239395000Y-62100000D03*
X220345000Y-58550000D03*
X220345000Y-62100000D03*
X201295000Y-58550000D03*
X201295000Y-62100000D03*
X182245000Y-58550000D03*
X182245000Y-62100000D03*
X125095000Y-58550000D03*
X125095000Y-62100000D03*
X106045000Y-58550000D03*
X106045000Y-62100000D03*
X86995000Y-58550000D03*
X86995000Y-62100000D03*
X67945000Y-58550000D03*
X67945000Y-62100000D03*
X48895000Y-58550000D03*
X48895000Y-62100000D03*
X258445000Y-39500000D03*
X258445000Y-43050000D03*
X239395000Y-39500000D03*
X239395000Y-43050000D03*
X220345000Y-39500000D03*
X220345000Y-43050000D03*
X201295000Y-39500000D03*
X201295000Y-43050000D03*
X182245000Y-39500000D03*
X182245000Y-43050000D03*
X125095000Y-39500000D03*
X125095000Y-43050000D03*
X106045000Y-39500000D03*
X106045000Y-43050000D03*
X86995000Y-39500000D03*
X86995000Y-43050000D03*
X67945000Y-39500000D03*
X67945000Y-43050000D03*
X48895000Y-39500000D03*
X48895000Y-43050000D03*
D15*
X149300000Y-74612500D03*
X142800000Y-74612500D03*
D16*
X241300000Y-88900000D03*
X241300000Y-50800000D03*
X165100000Y-88900000D03*
X165100000Y-50800000D03*
X127000000Y-88900000D03*
X127000000Y-50800000D03*
X50800000Y-88900000D03*
D17*
X149860000Y-70643750D03*
X147320000Y-70643750D03*
X144780000Y-70643750D03*
X142240000Y-70643750D03*
D16*
X50800000Y-50800000D03*
D18*
X138441400Y-38703250D03*
X138441400Y-41243250D03*
X138441400Y-43783250D03*
X138441400Y-46323250D03*
X138441400Y-48863250D03*
X138441400Y-51403250D03*
X138441400Y-53943250D03*
X138441400Y-56483250D03*
X138441400Y-59023250D03*
X138441400Y-61563250D03*
X138441400Y-64103250D03*
X138441400Y-66643250D03*
X153661400Y-66643250D03*
X153661400Y-64103250D03*
X153661400Y-61563250D03*
X153661400Y-59023250D03*
X153661400Y-56483250D03*
X153661400Y-53943250D03*
X153661400Y-51403250D03*
X153661400Y-48863250D03*
X153661400Y-46323250D03*
X153661400Y-43783250D03*
X153661400Y-41243250D03*
X153661400Y-38703250D03*
M02*
