G04 #@! TF.GenerationSoftware,KiCad,Pcbnew,5.1.9+dfsg1-1*
G04 #@! TF.CreationDate,2022-03-28T16:06:31+02:00*
G04 #@! TF.ProjectId,la_nc,6c615f6e-632e-46b6-9963-61645f706362,rev?*
G04 #@! TF.SameCoordinates,Original*
G04 #@! TF.FileFunction,Copper,L2,Bot*
G04 #@! TF.FilePolarity,Positive*
%FSLAX46Y46*%
G04 Gerber Fmt 4.6, Leading zero omitted, Abs format (unit mm)*
G04 Created by KiCad (PCBNEW 5.1.9+dfsg1-1) date 2022-03-28 16:06:31*
%MOMM*%
%LPD*%
G01*
G04 APERTURE LIST*
G04 #@! TA.AperFunction,SMDPad,CuDef*
%ADD10R,4.500000X2.500000*%
G04 #@! TD*
G04 #@! TA.AperFunction,ComponentPad*
%ADD11C,0.800000*%
G04 #@! TD*
G04 #@! TA.AperFunction,ComponentPad*
%ADD12C,4.000000*%
G04 #@! TD*
G04 #@! TA.AperFunction,SMDPad,CuDef*
%ADD13R,1.000000X1.400000*%
G04 #@! TD*
G04 #@! TA.AperFunction,ComponentPad*
%ADD14C,2.000000*%
G04 #@! TD*
G04 #@! TA.AperFunction,WasherPad*
%ADD15C,5.000000*%
G04 #@! TD*
G04 #@! TA.AperFunction,ComponentPad*
%ADD16C,1.397000*%
G04 #@! TD*
G04 #@! TA.AperFunction,ComponentPad*
%ADD17C,1.524000*%
G04 #@! TD*
G04 #@! TA.AperFunction,ViaPad*
%ADD18C,0.800000*%
G04 #@! TD*
G04 #@! TA.AperFunction,Conductor*
%ADD19C,0.250000*%
G04 #@! TD*
G04 APERTURE END LIST*
D10*
X161417000Y-93345000D03*
X148490000Y-95885000D03*
D11*
X163195000Y-94107000D03*
X146685000Y-96647000D03*
X163195000Y-92583000D03*
X146685000Y-95123000D03*
D12*
X151765000Y-95885000D03*
X158115000Y-93345000D03*
D10*
X142367000Y-93345000D03*
X129440000Y-95885000D03*
D11*
X144145000Y-94107000D03*
X127635000Y-96647000D03*
X144145000Y-92583000D03*
X127635000Y-95123000D03*
D12*
X132715000Y-95885000D03*
X139065000Y-93345000D03*
D10*
X256667000Y-93345000D03*
X243740000Y-95885000D03*
D11*
X258445000Y-94107000D03*
X241935000Y-96647000D03*
X258445000Y-92583000D03*
X241935000Y-95123000D03*
D12*
X247015000Y-95885000D03*
X253365000Y-93345000D03*
D10*
X237617000Y-93345000D03*
X224690000Y-95885000D03*
D11*
X239395000Y-94107000D03*
X222885000Y-96647000D03*
X239395000Y-92583000D03*
X222885000Y-95123000D03*
D12*
X227965000Y-95885000D03*
X234315000Y-93345000D03*
D10*
X218567000Y-93345000D03*
X205640000Y-95885000D03*
D11*
X220345000Y-94107000D03*
X203835000Y-96647000D03*
X220345000Y-92583000D03*
X203835000Y-95123000D03*
D12*
X208915000Y-95885000D03*
X215265000Y-93345000D03*
D10*
X199517000Y-93345000D03*
X186590000Y-95885000D03*
D11*
X201295000Y-94107000D03*
X184785000Y-96647000D03*
X201295000Y-92583000D03*
X184785000Y-95123000D03*
D12*
X189865000Y-95885000D03*
X196215000Y-93345000D03*
D10*
X180467000Y-93345000D03*
X167540000Y-95885000D03*
D11*
X182245000Y-94107000D03*
X165735000Y-96647000D03*
X182245000Y-92583000D03*
X165735000Y-95123000D03*
D12*
X170815000Y-95885000D03*
X177165000Y-93345000D03*
D10*
X123317000Y-93345000D03*
X110390000Y-95885000D03*
D11*
X125095000Y-94107000D03*
X108585000Y-96647000D03*
X125095000Y-92583000D03*
X108585000Y-95123000D03*
D12*
X113665000Y-95885000D03*
X120015000Y-93345000D03*
D10*
X104267000Y-93345000D03*
X91340000Y-95885000D03*
D11*
X106045000Y-94107000D03*
X89535000Y-96647000D03*
X106045000Y-92583000D03*
X89535000Y-95123000D03*
D12*
X94615000Y-95885000D03*
X100965000Y-93345000D03*
D10*
X85217000Y-93345000D03*
X72290000Y-95885000D03*
D11*
X86995000Y-94107000D03*
X70485000Y-96647000D03*
X86995000Y-92583000D03*
X70485000Y-95123000D03*
D12*
X75565000Y-95885000D03*
X81915000Y-93345000D03*
D10*
X66167000Y-93345000D03*
X53240000Y-95885000D03*
D11*
X67945000Y-94107000D03*
X51435000Y-96647000D03*
X67945000Y-92583000D03*
X51435000Y-95123000D03*
D12*
X56515000Y-95885000D03*
X62865000Y-93345000D03*
D10*
X47117000Y-93345000D03*
X34190000Y-95885000D03*
D11*
X48895000Y-94107000D03*
X32385000Y-96647000D03*
X48895000Y-92583000D03*
X32385000Y-95123000D03*
D12*
X37465000Y-95885000D03*
X43815000Y-93345000D03*
D10*
X256667000Y-74295000D03*
X243740000Y-76835000D03*
D11*
X258445000Y-75057000D03*
X241935000Y-77597000D03*
X258445000Y-73533000D03*
X241935000Y-76073000D03*
D12*
X247015000Y-76835000D03*
X253365000Y-74295000D03*
D10*
X237617000Y-74295000D03*
X224690000Y-76835000D03*
D11*
X239395000Y-75057000D03*
X222885000Y-77597000D03*
X239395000Y-73533000D03*
X222885000Y-76073000D03*
D12*
X227965000Y-76835000D03*
X234315000Y-74295000D03*
D10*
X218567000Y-74295000D03*
X205640000Y-76835000D03*
D11*
X220345000Y-75057000D03*
X203835000Y-77597000D03*
X220345000Y-73533000D03*
X203835000Y-76073000D03*
D12*
X208915000Y-76835000D03*
X215265000Y-74295000D03*
D10*
X199517000Y-74295000D03*
X186590000Y-76835000D03*
D11*
X201295000Y-75057000D03*
X184785000Y-77597000D03*
X201295000Y-73533000D03*
X184785000Y-76073000D03*
D12*
X189865000Y-76835000D03*
X196215000Y-74295000D03*
D10*
X180467000Y-74295000D03*
X167540000Y-76835000D03*
D11*
X182245000Y-75057000D03*
X165735000Y-77597000D03*
X182245000Y-73533000D03*
X165735000Y-76073000D03*
D12*
X170815000Y-76835000D03*
X177165000Y-74295000D03*
D10*
X123317000Y-74295000D03*
X110390000Y-76835000D03*
D11*
X125095000Y-75057000D03*
X108585000Y-77597000D03*
X125095000Y-73533000D03*
X108585000Y-76073000D03*
D12*
X113665000Y-76835000D03*
X120015000Y-74295000D03*
D10*
X104267000Y-74295000D03*
X91340000Y-76835000D03*
D11*
X106045000Y-75057000D03*
X89535000Y-77597000D03*
X106045000Y-73533000D03*
X89535000Y-76073000D03*
D12*
X94615000Y-76835000D03*
X100965000Y-74295000D03*
D10*
X85217000Y-74295000D03*
X72290000Y-76835000D03*
D11*
X86995000Y-75057000D03*
X70485000Y-77597000D03*
X86995000Y-73533000D03*
X70485000Y-76073000D03*
D12*
X75565000Y-76835000D03*
X81915000Y-74295000D03*
D10*
X66167000Y-74295000D03*
X53240000Y-76835000D03*
D11*
X67945000Y-75057000D03*
X51435000Y-77597000D03*
X67945000Y-73533000D03*
X51435000Y-76073000D03*
D12*
X56515000Y-76835000D03*
X62865000Y-74295000D03*
D10*
X47117000Y-74295000D03*
X34190000Y-76835000D03*
D11*
X48895000Y-75057000D03*
X32385000Y-77597000D03*
X48895000Y-73533000D03*
X32385000Y-76073000D03*
D12*
X37465000Y-76835000D03*
X43815000Y-74295000D03*
D10*
X256667000Y-55245000D03*
X243740000Y-57785000D03*
D11*
X258445000Y-56007000D03*
X241935000Y-58547000D03*
X258445000Y-54483000D03*
X241935000Y-57023000D03*
D12*
X247015000Y-57785000D03*
X253365000Y-55245000D03*
D10*
X237617000Y-55245000D03*
X224690000Y-57785000D03*
D11*
X239395000Y-56007000D03*
X222885000Y-58547000D03*
X239395000Y-54483000D03*
X222885000Y-57023000D03*
D12*
X227965000Y-57785000D03*
X234315000Y-55245000D03*
D10*
X218567000Y-55245000D03*
X205640000Y-57785000D03*
D11*
X220345000Y-56007000D03*
X203835000Y-58547000D03*
X220345000Y-54483000D03*
X203835000Y-57023000D03*
D12*
X208915000Y-57785000D03*
X215265000Y-55245000D03*
D10*
X199517000Y-55245000D03*
X186590000Y-57785000D03*
D11*
X201295000Y-56007000D03*
X184785000Y-58547000D03*
X201295000Y-54483000D03*
X184785000Y-57023000D03*
D12*
X189865000Y-57785000D03*
X196215000Y-55245000D03*
D10*
X180467000Y-55245000D03*
X167540000Y-57785000D03*
D11*
X182245000Y-56007000D03*
X165735000Y-58547000D03*
X182245000Y-54483000D03*
X165735000Y-57023000D03*
D12*
X170815000Y-57785000D03*
X177165000Y-55245000D03*
D10*
X123317000Y-55245000D03*
X110390000Y-57785000D03*
D11*
X125095000Y-56007000D03*
X108585000Y-58547000D03*
X125095000Y-54483000D03*
X108585000Y-57023000D03*
D12*
X113665000Y-57785000D03*
X120015000Y-55245000D03*
D10*
X104267000Y-55245000D03*
X91340000Y-57785000D03*
D11*
X106045000Y-56007000D03*
X89535000Y-58547000D03*
X106045000Y-54483000D03*
X89535000Y-57023000D03*
D12*
X94615000Y-57785000D03*
X100965000Y-55245000D03*
D10*
X85217000Y-55245000D03*
X72290000Y-57785000D03*
D11*
X86995000Y-56007000D03*
X70485000Y-58547000D03*
X86995000Y-54483000D03*
X70485000Y-57023000D03*
D12*
X75565000Y-57785000D03*
X81915000Y-55245000D03*
D10*
X66167000Y-55245000D03*
X53240000Y-57785000D03*
D11*
X67945000Y-56007000D03*
X51435000Y-58547000D03*
X67945000Y-54483000D03*
X51435000Y-57023000D03*
D12*
X56515000Y-57785000D03*
X62865000Y-55245000D03*
D10*
X47117000Y-55245000D03*
X34190000Y-57785000D03*
D11*
X48895000Y-56007000D03*
X32385000Y-58547000D03*
X48895000Y-54483000D03*
X32385000Y-57023000D03*
D12*
X37465000Y-57785000D03*
X43815000Y-55245000D03*
D10*
X256667000Y-36195000D03*
X243740000Y-38735000D03*
D11*
X258445000Y-36957000D03*
X241935000Y-39497000D03*
X258445000Y-35433000D03*
X241935000Y-37973000D03*
D12*
X247015000Y-38735000D03*
X253365000Y-36195000D03*
D10*
X237617000Y-36195000D03*
X224690000Y-38735000D03*
D11*
X239395000Y-36957000D03*
X222885000Y-39497000D03*
X239395000Y-35433000D03*
X222885000Y-37973000D03*
D12*
X227965000Y-38735000D03*
X234315000Y-36195000D03*
D10*
X218567000Y-36195000D03*
X205640000Y-38735000D03*
D11*
X220345000Y-36957000D03*
X203835000Y-39497000D03*
X220345000Y-35433000D03*
X203835000Y-37973000D03*
D12*
X208915000Y-38735000D03*
X215265000Y-36195000D03*
D10*
X199517000Y-36195000D03*
X186590000Y-38735000D03*
D11*
X201295000Y-36957000D03*
X184785000Y-39497000D03*
X201295000Y-35433000D03*
X184785000Y-37973000D03*
D12*
X189865000Y-38735000D03*
X196215000Y-36195000D03*
D10*
X180467000Y-36195000D03*
X167540000Y-38735000D03*
D11*
X182245000Y-36957000D03*
X165735000Y-39497000D03*
X182245000Y-35433000D03*
X165735000Y-37973000D03*
D12*
X170815000Y-38735000D03*
X177165000Y-36195000D03*
D10*
X123317000Y-36195000D03*
X110390000Y-38735000D03*
D11*
X125095000Y-36957000D03*
X108585000Y-39497000D03*
X125095000Y-35433000D03*
X108585000Y-37973000D03*
D12*
X113665000Y-38735000D03*
X120015000Y-36195000D03*
D10*
X104267000Y-36195000D03*
X91340000Y-38735000D03*
D11*
X106045000Y-36957000D03*
X89535000Y-39497000D03*
X106045000Y-35433000D03*
X89535000Y-37973000D03*
D12*
X94615000Y-38735000D03*
X100965000Y-36195000D03*
D10*
X85217000Y-36195000D03*
X72290000Y-38735000D03*
D11*
X86995000Y-36957000D03*
X70485000Y-39497000D03*
X86995000Y-35433000D03*
X70485000Y-37973000D03*
D12*
X75565000Y-38735000D03*
X81915000Y-36195000D03*
D10*
X66167000Y-36195000D03*
X53240000Y-38735000D03*
D11*
X67945000Y-36957000D03*
X51435000Y-39497000D03*
X67945000Y-35433000D03*
X51435000Y-37973000D03*
D12*
X56515000Y-38735000D03*
X62865000Y-36195000D03*
D10*
X47117000Y-36195000D03*
X34190000Y-38735000D03*
D11*
X48895000Y-36957000D03*
X32385000Y-39497000D03*
X48895000Y-35433000D03*
X32385000Y-37973000D03*
D12*
X37465000Y-38735000D03*
X43815000Y-36195000D03*
D13*
X163195000Y-96650000D03*
X163195000Y-100200000D03*
X144145000Y-96650000D03*
X144145000Y-100200000D03*
X258445000Y-96650000D03*
X258445000Y-100200000D03*
X239395000Y-96650000D03*
X239395000Y-100200000D03*
X220345000Y-96650000D03*
X220345000Y-100200000D03*
X201295000Y-96650000D03*
X201295000Y-100200000D03*
X182245000Y-96650000D03*
X182245000Y-100200000D03*
X125095000Y-96650000D03*
X125095000Y-100200000D03*
X106045000Y-96650000D03*
X106045000Y-100200000D03*
X86995000Y-96650000D03*
X86995000Y-100200000D03*
X67945000Y-96650000D03*
X67945000Y-100200000D03*
X48895000Y-96650000D03*
X48895000Y-100200000D03*
X258445000Y-77600000D03*
X258445000Y-81150000D03*
X239395000Y-77600000D03*
X239395000Y-81150000D03*
X220345000Y-77600000D03*
X220345000Y-81150000D03*
X201295000Y-77600000D03*
X201295000Y-81150000D03*
X182245000Y-77600000D03*
X182245000Y-81150000D03*
X125095000Y-77600000D03*
X125095000Y-81150000D03*
X106045000Y-77600000D03*
X106045000Y-81150000D03*
X86995000Y-77600000D03*
X86995000Y-81150000D03*
X67945000Y-77600000D03*
X67945000Y-81150000D03*
X48895000Y-77600000D03*
X48895000Y-81150000D03*
X258445000Y-58550000D03*
X258445000Y-62100000D03*
X239395000Y-58550000D03*
X239395000Y-62100000D03*
X220345000Y-58550000D03*
X220345000Y-62100000D03*
X201295000Y-58550000D03*
X201295000Y-62100000D03*
X182245000Y-58550000D03*
X182245000Y-62100000D03*
X125095000Y-58550000D03*
X125095000Y-62100000D03*
X106045000Y-58550000D03*
X106045000Y-62100000D03*
X86995000Y-58550000D03*
X86995000Y-62100000D03*
X67945000Y-58550000D03*
X67945000Y-62100000D03*
X48895000Y-58550000D03*
X48895000Y-62100000D03*
X258445000Y-39500000D03*
X258445000Y-43050000D03*
X239395000Y-39500000D03*
X239395000Y-43050000D03*
X220345000Y-39500000D03*
X220345000Y-43050000D03*
X201295000Y-39500000D03*
X201295000Y-43050000D03*
X182245000Y-39500000D03*
X182245000Y-43050000D03*
X125095000Y-39500000D03*
X125095000Y-43050000D03*
X106045000Y-39500000D03*
X106045000Y-43050000D03*
X86995000Y-39500000D03*
X86995000Y-43050000D03*
X67945000Y-39500000D03*
X67945000Y-43050000D03*
X48895000Y-39500000D03*
X48895000Y-43050000D03*
D14*
X149300000Y-74612500D03*
X142800000Y-74612500D03*
D15*
X241300000Y-88900000D03*
X241300000Y-50800000D03*
X165100000Y-88900000D03*
X165100000Y-50800000D03*
X127000000Y-88900000D03*
X127000000Y-50800000D03*
X50800000Y-88900000D03*
D16*
X149860000Y-70643750D03*
X147320000Y-70643750D03*
X144780000Y-70643750D03*
X142240000Y-70643750D03*
D15*
X50800000Y-50800000D03*
D17*
X138441400Y-38703250D03*
X138441400Y-41243250D03*
X138441400Y-43783250D03*
X138441400Y-46323250D03*
X138441400Y-48863250D03*
X138441400Y-51403250D03*
X138441400Y-53943250D03*
X138441400Y-56483250D03*
X138441400Y-59023250D03*
X138441400Y-61563250D03*
X138441400Y-64103250D03*
X138441400Y-66643250D03*
X153661400Y-66643250D03*
X153661400Y-64103250D03*
X153661400Y-61563250D03*
X153661400Y-59023250D03*
X153661400Y-56483250D03*
X153661400Y-53943250D03*
X153661400Y-51403250D03*
X153661400Y-48863250D03*
X153661400Y-46323250D03*
X153661400Y-43783250D03*
X153661400Y-41243250D03*
X153661400Y-38703250D03*
D18*
X129381250Y-100806250D03*
X126206250Y-82550000D03*
X167481250Y-100806250D03*
X167481250Y-82550000D03*
X37306250Y-71437500D03*
X56356250Y-69850000D03*
X75406250Y-68262500D03*
X94456250Y-66675000D03*
X113506250Y-65087500D03*
X170656250Y-65087500D03*
X170815000Y-84772500D03*
X189706250Y-66675000D03*
X208756250Y-68262500D03*
X227806250Y-69850000D03*
X246856250Y-71437500D03*
X110331250Y-100806250D03*
X110331250Y-92075000D03*
D19*
X48895000Y-36957000D02*
X48895000Y-39500000D01*
X67945000Y-36957000D02*
X67945000Y-39500000D01*
X86995000Y-36957000D02*
X86995000Y-39500000D01*
X106045000Y-36957000D02*
X106045000Y-39500000D01*
X125095000Y-36957000D02*
X125095000Y-39500000D01*
X182245000Y-36957000D02*
X182245000Y-39500000D01*
X201295000Y-36957000D02*
X201295000Y-39500000D01*
X220345000Y-36957000D02*
X220345000Y-39500000D01*
X239395000Y-39500000D02*
X239395000Y-36957000D01*
X258445000Y-39500000D02*
X258445000Y-36957000D01*
X48895000Y-58550000D02*
X48895000Y-56007000D01*
X67945000Y-58550000D02*
X67945000Y-56007000D01*
X86995000Y-58550000D02*
X86995000Y-56007000D01*
X106045000Y-58550000D02*
X106045000Y-56007000D01*
X125095000Y-56007000D02*
X125095000Y-58550000D01*
X182245000Y-58550000D02*
X182245000Y-56007000D01*
X201295000Y-58550000D02*
X201295000Y-56007000D01*
X220345000Y-58550000D02*
X220345000Y-56007000D01*
X239395000Y-56007000D02*
X239395000Y-58550000D01*
X258445000Y-56007000D02*
X258445000Y-58550000D01*
X48895000Y-75057000D02*
X48895000Y-77600000D01*
X67945000Y-75057000D02*
X67945000Y-77600000D01*
X86995000Y-75057000D02*
X86995000Y-77600000D01*
X106045000Y-77600000D02*
X106045000Y-75057000D01*
X125095000Y-77600000D02*
X125095000Y-75057000D01*
X182245000Y-77600000D02*
X182245000Y-75057000D01*
X201295000Y-77600000D02*
X201295000Y-75057000D01*
X220345000Y-77600000D02*
X220345000Y-75057000D01*
X239395000Y-77600000D02*
X239395000Y-75057000D01*
X258445000Y-77600000D02*
X258445000Y-75057000D01*
X48895000Y-96650000D02*
X48895000Y-94107000D01*
X67945000Y-96650000D02*
X67945000Y-94107000D01*
X86995000Y-96650000D02*
X86995000Y-94107000D01*
X106045000Y-96650000D02*
X106045000Y-94107000D01*
X125095000Y-96650000D02*
X125095000Y-94107000D01*
X182245000Y-96650000D02*
X182245000Y-94107000D01*
X201295000Y-96650000D02*
X201295000Y-94107000D01*
X220345000Y-96650000D02*
X220345000Y-94107000D01*
X239395000Y-96650000D02*
X239395000Y-94107000D01*
X258445000Y-94107000D02*
X258445000Y-96650000D01*
X144145000Y-96650000D02*
X144145000Y-94107000D01*
X163195000Y-96650000D02*
X163195000Y-94107000D01*
X149860000Y-74052500D02*
X149300000Y-74612500D01*
X149860000Y-70643750D02*
X149860000Y-74052500D01*
X144780000Y-60284650D02*
X153661400Y-51403250D01*
X144780000Y-70643750D02*
X144780000Y-60284650D01*
X142240000Y-60284650D02*
X142240000Y-70643750D01*
X153661400Y-48863250D02*
X142240000Y-60284650D01*
X138441400Y-43783250D02*
X140493750Y-45835600D01*
X140493750Y-72306250D02*
X142800000Y-74612500D01*
X140493750Y-45835600D02*
X140493750Y-72306250D01*
X258445000Y-43050000D02*
X258445000Y-43973750D01*
X258445000Y-43973750D02*
X257968750Y-44450000D01*
X182245000Y-43973750D02*
X181768750Y-44450000D01*
X182245000Y-43050000D02*
X182245000Y-43973750D01*
X201295000Y-43973750D02*
X200818750Y-44450000D01*
X201295000Y-43050000D02*
X201295000Y-43973750D01*
X200818750Y-44450000D02*
X181768750Y-44450000D01*
X220345000Y-43973750D02*
X219868750Y-44450000D01*
X220345000Y-43050000D02*
X220345000Y-43973750D01*
X219868750Y-44450000D02*
X200818750Y-44450000D01*
X239395000Y-43973750D02*
X238918750Y-44450000D01*
X239395000Y-43050000D02*
X239395000Y-43973750D01*
X238918750Y-44450000D02*
X219868750Y-44450000D01*
X257968750Y-44450000D02*
X238918750Y-44450000D01*
X159408150Y-44450000D02*
X153661400Y-38703250D01*
X181768750Y-44450000D02*
X159408150Y-44450000D01*
X48895000Y-43050000D02*
X48895000Y-44132500D01*
X48895000Y-44132500D02*
X49212500Y-44450000D01*
X125095000Y-43050000D02*
X125095000Y-44132500D01*
X125095000Y-44132500D02*
X125412500Y-44450000D01*
X106045000Y-44132500D02*
X106362500Y-44450000D01*
X106045000Y-43050000D02*
X106045000Y-44132500D01*
X106362500Y-44450000D02*
X125412500Y-44450000D01*
X86995000Y-44132500D02*
X87312500Y-44450000D01*
X86995000Y-43050000D02*
X86995000Y-44132500D01*
X87312500Y-44450000D02*
X106362500Y-44450000D01*
X67945000Y-44132500D02*
X68262500Y-44450000D01*
X67945000Y-43050000D02*
X67945000Y-44132500D01*
X68262500Y-44450000D02*
X87312500Y-44450000D01*
X49212500Y-44450000D02*
X68262500Y-44450000D01*
X152332200Y-37374050D02*
X153661400Y-38703250D01*
X151470650Y-36512500D02*
X152332200Y-37374050D01*
X137318750Y-36512500D02*
X151470650Y-36512500D01*
X129381250Y-44450000D02*
X137318750Y-36512500D01*
X125412500Y-44450000D02*
X129381250Y-44450000D01*
X48895000Y-62100000D02*
X48895000Y-63182500D01*
X48895000Y-63182500D02*
X49212500Y-63500000D01*
X67945000Y-62100000D02*
X67945000Y-63182500D01*
X67945000Y-63182500D02*
X68262500Y-63500000D01*
X49212500Y-63500000D02*
X68262500Y-63500000D01*
X86995000Y-63182500D02*
X87312500Y-63500000D01*
X86995000Y-62100000D02*
X86995000Y-63182500D01*
X68262500Y-63500000D02*
X87312500Y-63500000D01*
X106045000Y-63182500D02*
X106362500Y-63500000D01*
X106045000Y-62100000D02*
X106045000Y-63182500D01*
X87312500Y-63500000D02*
X106362500Y-63500000D01*
X125095000Y-63182500D02*
X125412500Y-63500000D01*
X125095000Y-62100000D02*
X125095000Y-63182500D01*
X106362500Y-63500000D02*
X125412500Y-63500000D01*
X125412500Y-63500000D02*
X126206250Y-63500000D01*
X138441400Y-48863250D02*
X130968750Y-56335900D01*
X130968750Y-56335900D02*
X130968750Y-58737500D01*
X127793750Y-61912500D02*
X129778125Y-59928125D01*
X130968750Y-58737500D02*
X127793750Y-61912500D01*
X126206250Y-63500000D02*
X127793750Y-61912500D01*
X258445000Y-62100000D02*
X258445000Y-63023750D01*
X258445000Y-63023750D02*
X257968750Y-63500000D01*
X153661400Y-41243250D02*
X161131250Y-48713100D01*
X161131250Y-48713100D02*
X161131250Y-59531250D01*
X165100000Y-63500000D02*
X170656250Y-63500000D01*
X161131250Y-59531250D02*
X165100000Y-63500000D01*
X170656250Y-63500000D02*
X169068750Y-63500000D01*
X182245000Y-62100000D02*
X182245000Y-63023750D01*
X181768750Y-63500000D02*
X170656250Y-63500000D01*
X182245000Y-63023750D02*
X181768750Y-63500000D01*
X201295000Y-63023750D02*
X200818750Y-63500000D01*
X201295000Y-62100000D02*
X201295000Y-63023750D01*
X200818750Y-63500000D02*
X181768750Y-63500000D01*
X220345000Y-63023750D02*
X219868750Y-63500000D01*
X220345000Y-62100000D02*
X220345000Y-63023750D01*
X219868750Y-63500000D02*
X200818750Y-63500000D01*
X239395000Y-63023750D02*
X238918750Y-63500000D01*
X239395000Y-62100000D02*
X239395000Y-63023750D01*
X238918750Y-63500000D02*
X219868750Y-63500000D01*
X257968750Y-63500000D02*
X238918750Y-63500000D01*
X48895000Y-81150000D02*
X48895000Y-82232500D01*
X48895000Y-82232500D02*
X49212500Y-82550000D01*
X125095000Y-82232500D02*
X125412500Y-82550000D01*
X125095000Y-81150000D02*
X125095000Y-82232500D01*
X125412500Y-82550000D02*
X126206250Y-82550000D01*
X106045000Y-82232500D02*
X106362500Y-82550000D01*
X106045000Y-81150000D02*
X106045000Y-82232500D01*
X106362500Y-82550000D02*
X125412500Y-82550000D01*
X86995000Y-82232500D02*
X87312500Y-82550000D01*
X86995000Y-81150000D02*
X86995000Y-82232500D01*
X87312500Y-82550000D02*
X106362500Y-82550000D01*
X67945000Y-82232500D02*
X68262500Y-82550000D01*
X67945000Y-81150000D02*
X67945000Y-82232500D01*
X68262500Y-82550000D02*
X87312500Y-82550000D01*
X49212500Y-82550000D02*
X68262500Y-82550000D01*
X138441400Y-64103250D02*
X128587500Y-73957150D01*
X128587500Y-80168750D02*
X126206250Y-82550000D01*
X128587500Y-73957150D02*
X128587500Y-80168750D01*
X144145000Y-100200000D02*
X144145000Y-101123750D01*
X144145000Y-101123750D02*
X143668750Y-101600000D01*
X143668750Y-101600000D02*
X130175000Y-101600000D01*
X130175000Y-101600000D02*
X129381250Y-100806250D01*
X153661400Y-68730150D02*
X153661400Y-66643250D01*
X167481250Y-82550000D02*
X153661400Y-68730150D01*
X258445000Y-82073750D02*
X257968750Y-82550000D01*
X258445000Y-81150000D02*
X258445000Y-82073750D01*
X182245000Y-82073750D02*
X181768750Y-82550000D01*
X182245000Y-81150000D02*
X182245000Y-82073750D01*
X181768750Y-82550000D02*
X167481250Y-82550000D01*
X201295000Y-82073750D02*
X200818750Y-82550000D01*
X201295000Y-81150000D02*
X201295000Y-82073750D01*
X200818750Y-82550000D02*
X181768750Y-82550000D01*
X220345000Y-81150000D02*
X220345000Y-82073750D01*
X219868750Y-82550000D02*
X200818750Y-82550000D01*
X220345000Y-82073750D02*
X219868750Y-82550000D01*
X239395000Y-82073750D02*
X238918750Y-82550000D01*
X239395000Y-81150000D02*
X239395000Y-82073750D01*
X238918750Y-82550000D02*
X219868750Y-82550000D01*
X257968750Y-82550000D02*
X238918750Y-82550000D01*
X163195000Y-100200000D02*
X163195000Y-101282500D01*
X163195000Y-101282500D02*
X163512500Y-101600000D01*
X163512500Y-101600000D02*
X166687500Y-101600000D01*
X166687500Y-101600000D02*
X167481250Y-100806250D01*
X128567150Y-71437500D02*
X123825000Y-71437500D01*
X138441400Y-61563250D02*
X128567150Y-71437500D01*
X123825000Y-71437500D02*
X126206250Y-71437500D01*
X37306250Y-71437500D02*
X123825000Y-71437500D01*
X127614650Y-69850000D02*
X138441400Y-59023250D01*
X56356250Y-69850000D02*
X127614650Y-69850000D01*
X126662150Y-68262500D02*
X138441400Y-56483250D01*
X75406250Y-68262500D02*
X126662150Y-68262500D01*
X94456250Y-66675000D02*
X126206250Y-66675000D01*
X138441400Y-53943250D02*
X134143750Y-58240900D01*
X134143750Y-58737500D02*
X126206250Y-66675000D01*
X134143750Y-58240900D02*
X134143750Y-58737500D01*
X113506250Y-65087500D02*
X125412500Y-65087500D01*
X125412500Y-65087500D02*
X125688388Y-65087500D01*
X126206250Y-65087500D02*
X125412500Y-65087500D01*
X132556250Y-58737500D02*
X126206250Y-65087500D01*
X132556250Y-57288400D02*
X132556250Y-58737500D01*
X138441400Y-51403250D02*
X132556250Y-57288400D01*
X164805650Y-65087500D02*
X170656250Y-65087500D01*
X153661400Y-53943250D02*
X164805650Y-65087500D01*
X132715000Y-95885000D02*
X132715000Y-87153750D01*
X132715000Y-87153750D02*
X134937500Y-84931250D01*
X170656250Y-84931250D02*
X170815000Y-84772500D01*
X134937500Y-84931250D02*
X170656250Y-84931250D01*
X163853150Y-66675000D02*
X189706250Y-66675000D01*
X153661400Y-56483250D02*
X163853150Y-66675000D01*
X162900650Y-68262500D02*
X208756250Y-68262500D01*
X153661400Y-59023250D02*
X162900650Y-68262500D01*
X161948150Y-69850000D02*
X227806250Y-69850000D01*
X153661400Y-61563250D02*
X161948150Y-69850000D01*
X160995650Y-71437500D02*
X246856250Y-71437500D01*
X153661400Y-64103250D02*
X160995650Y-71437500D01*
X48895000Y-100200000D02*
X48895000Y-102870000D01*
X258445000Y-100200000D02*
X258445000Y-102711250D01*
X258445000Y-102711250D02*
X257968750Y-103187500D01*
X49212500Y-103187500D02*
X48895000Y-102870000D01*
X125095000Y-102870000D02*
X125412500Y-103187500D01*
X125095000Y-100200000D02*
X125095000Y-102870000D01*
X148431250Y-103187500D02*
X125412500Y-103187500D01*
X106045000Y-102870000D02*
X106362500Y-103187500D01*
X106045000Y-100200000D02*
X106045000Y-102870000D01*
X86995000Y-102870000D02*
X87312500Y-103187500D01*
X86995000Y-100200000D02*
X86995000Y-102870000D01*
X106362500Y-103187500D02*
X87312500Y-103187500D01*
X67945000Y-100200000D02*
X67945000Y-102870000D01*
X67945000Y-102870000D02*
X68262500Y-103187500D01*
X68262500Y-103187500D02*
X49212500Y-103187500D01*
X87312500Y-103187500D02*
X68262500Y-103187500D01*
X182245000Y-102711250D02*
X181768750Y-103187500D01*
X182245000Y-100200000D02*
X182245000Y-102711250D01*
X181768750Y-103187500D02*
X148431250Y-103187500D01*
X201295000Y-102711250D02*
X200818750Y-103187500D01*
X201295000Y-100200000D02*
X201295000Y-102711250D01*
X200818750Y-103187500D02*
X181768750Y-103187500D01*
X220345000Y-100200000D02*
X220345000Y-102711250D01*
X219868750Y-103187500D02*
X200818750Y-103187500D01*
X220345000Y-102711250D02*
X219868750Y-103187500D01*
X239395000Y-102711250D02*
X238918750Y-103187500D01*
X239395000Y-100200000D02*
X239395000Y-102711250D01*
X238918750Y-103187500D02*
X219868750Y-103187500D01*
X257968750Y-103187500D02*
X238918750Y-103187500D01*
X110331250Y-103187500D02*
X110331250Y-100806250D01*
X125412500Y-103187500D02*
X110331250Y-103187500D01*
X110331250Y-103187500D02*
X106362500Y-103187500D01*
X110331250Y-92075000D02*
X110331250Y-85725000D01*
X110331250Y-85725000D02*
X111918750Y-84137500D01*
X111918750Y-84137500D02*
X126206250Y-84137500D01*
X126206250Y-84137500D02*
X130175000Y-80168750D01*
X130175000Y-74909650D02*
X138441400Y-66643250D01*
X130175000Y-80168750D02*
X130175000Y-74909650D01*
M02*
