M48
; DRILL file {KiCad 5.1.9+dfsg1-1} date Mon Mar 28 16:07:03 2022
; FORMAT={-:-/ absolute / metric / decimal}
; #@! TF.CreationDate,2022-03-28T16:07:03+02:00
; #@! TF.GenerationSoftware,Kicad,Pcbnew,5.1.9+dfsg1-1
; #@! TF.FileFunction,NonPlated,1,2,NPTH
FMAT,2
METRIC
T1C1.750
T2C3.988
T3C4.800
%
G90
G05
T1
X36.195Y-41.275
X36.195Y-60.325
X36.195Y-79.375
X36.195Y-98.425
X46.355Y-41.275
X46.355Y-60.325
X46.355Y-79.375
X46.355Y-98.425
X55.245Y-41.275
X55.245Y-60.325
X55.245Y-79.375
X55.245Y-98.425
X65.405Y-41.275
X65.405Y-60.325
X65.405Y-79.375
X65.405Y-98.425
X74.295Y-41.275
X74.295Y-60.325
X74.295Y-79.375
X74.295Y-98.425
X84.455Y-41.275
X84.455Y-60.325
X84.455Y-79.375
X84.455Y-98.425
X93.345Y-41.275
X93.345Y-60.325
X93.345Y-79.375
X93.345Y-98.425
X103.505Y-41.275
X103.505Y-60.325
X103.505Y-79.375
X103.505Y-98.425
X112.395Y-41.275
X112.395Y-60.325
X112.395Y-79.375
X112.395Y-98.425
X122.555Y-41.275
X122.555Y-60.325
X122.555Y-79.375
X122.555Y-98.425
X131.445Y-98.425
X141.605Y-98.425
X150.495Y-98.425
X160.655Y-98.425
X169.545Y-41.275
X169.545Y-60.325
X169.545Y-79.375
X169.545Y-98.425
X179.705Y-41.275
X179.705Y-60.325
X179.705Y-79.375
X179.705Y-98.425
X188.595Y-41.275
X188.595Y-60.325
X188.595Y-79.375
X188.595Y-98.425
X198.755Y-41.275
X198.755Y-60.325
X198.755Y-79.375
X198.755Y-98.425
X207.645Y-41.275
X207.645Y-60.325
X207.645Y-79.375
X207.645Y-98.425
X217.805Y-41.275
X217.805Y-60.325
X217.805Y-79.375
X217.805Y-98.425
X226.695Y-41.275
X226.695Y-60.325
X226.695Y-79.375
X226.695Y-98.425
X236.855Y-41.275
X236.855Y-60.325
X236.855Y-79.375
X236.855Y-98.425
X245.745Y-41.275
X245.745Y-60.325
X245.745Y-79.375
X245.745Y-98.425
X255.905Y-41.275
X255.905Y-60.325
X255.905Y-79.375
X255.905Y-98.425
T2
X41.275Y-41.275
X41.275Y-60.325
X41.275Y-79.375
X41.275Y-98.425
X60.325Y-41.275
X60.325Y-60.325
X60.325Y-79.375
X60.325Y-98.425
X79.375Y-41.275
X79.375Y-60.325
X79.375Y-79.375
X79.375Y-98.425
X98.425Y-41.275
X98.425Y-60.325
X98.425Y-79.375
X98.425Y-98.425
X117.475Y-41.275
X117.475Y-60.325
X117.475Y-79.375
X117.475Y-98.425
X136.525Y-98.425
X155.575Y-98.425
X174.625Y-41.275
X174.625Y-60.325
X174.625Y-79.375
X174.625Y-98.425
X193.675Y-41.275
X193.675Y-60.325
X193.675Y-79.375
X193.675Y-98.425
X212.725Y-41.275
X212.725Y-60.325
X212.725Y-79.375
X212.725Y-98.425
X231.775Y-41.275
X231.775Y-60.325
X231.775Y-79.375
X231.775Y-98.425
X250.825Y-41.275
X250.825Y-60.325
X250.825Y-79.375
X250.825Y-98.425
T3
X50.8Y-50.8
X50.8Y-88.9
X127.0Y-50.8
X127.0Y-88.9
X165.1Y-50.8
X165.1Y-88.9
X241.3Y-50.8
X241.3Y-88.9
T0
M30
