G04 #@! TF.GenerationSoftware,KiCad,Pcbnew,5.1.9+dfsg1-1*
G04 #@! TF.CreationDate,2022-03-28T16:06:31+02:00*
G04 #@! TF.ProjectId,la_nc,6c615f6e-632e-46b6-9963-61645f706362,rev?*
G04 #@! TF.SameCoordinates,Original*
G04 #@! TF.FileFunction,Legend,Top*
G04 #@! TF.FilePolarity,Positive*
%FSLAX46Y46*%
G04 Gerber Fmt 4.6, Leading zero omitted, Abs format (unit mm)*
G04 Created by KiCad (PCBNEW 5.1.9+dfsg1-1) date 2022-03-28 16:06:31*
%MOMM*%
%LPD*%
G01*
G04 APERTURE LIST*
%ADD10C,0.150000*%
%ADD11C,0.250000*%
%ADD12C,0.200000*%
%ADD13C,0.700000*%
%ADD14C,0.125000*%
%ADD15C,0.120000*%
%ADD16C,1.750000*%
%ADD17C,3.987800*%
%ADD18C,5.000000*%
G04 APERTURE END LIST*
D10*
X143200000Y-76212500D02*
X143200000Y-75962500D01*
X148900000Y-76212500D02*
X143200000Y-76212500D01*
X148900000Y-76212500D02*
X148900000Y-75962500D01*
X148900000Y-73012500D02*
X148900000Y-73262500D01*
X143200000Y-73012500D02*
X143200000Y-73262500D01*
X148900000Y-73012500D02*
X143200000Y-73012500D01*
X145900000Y-32781250D02*
X146200000Y-32781250D01*
X145800000Y-32631250D02*
X146300000Y-32631250D01*
X145700000Y-32481250D02*
X146400000Y-32481250D01*
X146050000Y-32981250D02*
X145550000Y-32331250D01*
X146550000Y-32331250D02*
X146050000Y-32981250D01*
X145550000Y-32331250D02*
X146550000Y-32331250D01*
X149800000Y-31981250D02*
X142300000Y-31981250D01*
X149800000Y-33281250D02*
X149800000Y-31981250D01*
X142300000Y-33281250D02*
X149800000Y-33281250D01*
X142300000Y-31981250D02*
X142300000Y-33281250D01*
X137150000Y-34881250D02*
X137150000Y-35881250D01*
X154950000Y-34881250D02*
X154950000Y-35881250D01*
X137150000Y-34881250D02*
X138150000Y-34881250D01*
X154950000Y-34881250D02*
X154000000Y-34881250D01*
X137150000Y-66881250D02*
X137150000Y-67931250D01*
X154950000Y-66931250D02*
X154950000Y-67931250D01*
X137150000Y-67931250D02*
X138150000Y-67931250D01*
X154950000Y-67931250D02*
X153940000Y-67931250D01*
D11*
X155416607Y-83232678D02*
X155892797Y-84566011D01*
X156368988Y-83232678D01*
X158178511Y-84566011D02*
X157035654Y-84566011D01*
X157607083Y-84566011D02*
X157607083Y-82566011D01*
X157416607Y-82851726D01*
X157226130Y-83042202D01*
X157035654Y-83137440D01*
X159035654Y-84375535D02*
X159130892Y-84470773D01*
X159035654Y-84566011D01*
X158940416Y-84470773D01*
X159035654Y-84375535D01*
X159035654Y-84566011D01*
X160368988Y-82566011D02*
X160559464Y-82566011D01*
X160749940Y-82661250D01*
X160845178Y-82756488D01*
X160940416Y-82946964D01*
X161035654Y-83327916D01*
X161035654Y-83804107D01*
X160940416Y-84185059D01*
X160845178Y-84375535D01*
X160749940Y-84470773D01*
X160559464Y-84566011D01*
X160368988Y-84566011D01*
X160178511Y-84470773D01*
X160083273Y-84375535D01*
X159988035Y-84185059D01*
X159892797Y-83804107D01*
X159892797Y-83327916D01*
X159988035Y-82946964D01*
X160083273Y-82756488D01*
X160178511Y-82661250D01*
X160368988Y-82566011D01*
D12*
X132616607Y-84339821D02*
X132616607Y-82839821D01*
X132616607Y-83411250D02*
X132759464Y-83339821D01*
X133045178Y-83339821D01*
X133188035Y-83411250D01*
X133259464Y-83482678D01*
X133330892Y-83625535D01*
X133330892Y-84054107D01*
X133259464Y-84196964D01*
X133188035Y-84268392D01*
X133045178Y-84339821D01*
X132759464Y-84339821D01*
X132616607Y-84268392D01*
X133830892Y-83339821D02*
X134188035Y-84339821D01*
X134545178Y-83339821D02*
X134188035Y-84339821D01*
X134045178Y-84696964D01*
X133973750Y-84768392D01*
X133830892Y-84839821D01*
X136188035Y-84268392D02*
X136402321Y-84339821D01*
X136759464Y-84339821D01*
X136902321Y-84268392D01*
X136973750Y-84196964D01*
X137045178Y-84054107D01*
X137045178Y-83911250D01*
X136973750Y-83768392D01*
X136902321Y-83696964D01*
X136759464Y-83625535D01*
X136473750Y-83554107D01*
X136330892Y-83482678D01*
X136259464Y-83411250D01*
X136188035Y-83268392D01*
X136188035Y-83125535D01*
X136259464Y-82982678D01*
X136330892Y-82911250D01*
X136473750Y-82839821D01*
X136830892Y-82839821D01*
X137045178Y-82911250D01*
X138330892Y-83339821D02*
X138330892Y-84339821D01*
X137688035Y-83339821D02*
X137688035Y-84125535D01*
X137759464Y-84268392D01*
X137902321Y-84339821D01*
X138116607Y-84339821D01*
X138259464Y-84268392D01*
X138330892Y-84196964D01*
X139045178Y-84339821D02*
X139045178Y-82839821D01*
X139045178Y-83411250D02*
X139188035Y-83339821D01*
X139473750Y-83339821D01*
X139616607Y-83411250D01*
X139688035Y-83482678D01*
X139759464Y-83625535D01*
X139759464Y-84054107D01*
X139688035Y-84196964D01*
X139616607Y-84268392D01*
X139473750Y-84339821D01*
X139188035Y-84339821D01*
X139045178Y-84268392D01*
X140402321Y-84339821D02*
X140402321Y-83339821D01*
X140402321Y-83625535D02*
X140473750Y-83482678D01*
X140545178Y-83411250D01*
X140688035Y-83339821D01*
X140830892Y-83339821D01*
X141902321Y-84268392D02*
X141759464Y-84339821D01*
X141473750Y-84339821D01*
X141330892Y-84268392D01*
X141259464Y-84125535D01*
X141259464Y-83554107D01*
X141330892Y-83411250D01*
X141473750Y-83339821D01*
X141759464Y-83339821D01*
X141902321Y-83411250D01*
X141973750Y-83554107D01*
X141973750Y-83696964D01*
X141259464Y-83839821D01*
X142473750Y-83339821D02*
X143259464Y-83339821D01*
X142473750Y-84339821D01*
X143259464Y-84339821D01*
X144045178Y-84339821D02*
X143902321Y-84268392D01*
X143830892Y-84196964D01*
X143759464Y-84054107D01*
X143759464Y-83625535D01*
X143830892Y-83482678D01*
X143902321Y-83411250D01*
X144045178Y-83339821D01*
X144259464Y-83339821D01*
X144402321Y-83411250D01*
X144473750Y-83482678D01*
X144545178Y-83625535D01*
X144545178Y-84054107D01*
X144473750Y-84196964D01*
X144402321Y-84268392D01*
X144259464Y-84339821D01*
X144045178Y-84339821D01*
X145188035Y-83339821D02*
X145188035Y-84339821D01*
X145188035Y-83482678D02*
X145259464Y-83411250D01*
X145402321Y-83339821D01*
X145616607Y-83339821D01*
X145759464Y-83411250D01*
X145830892Y-83554107D01*
X145830892Y-84339821D01*
D13*
X134081845Y-80843154D02*
X133319940Y-80605059D01*
X132938988Y-80128869D01*
X132938988Y-75843154D01*
X140558035Y-80843154D02*
X140558035Y-78224107D01*
X140177083Y-77747916D01*
X139415178Y-77509821D01*
X137891369Y-77509821D01*
X137129464Y-77747916D01*
X140558035Y-80605059D02*
X139796130Y-80843154D01*
X137891369Y-80843154D01*
X137129464Y-80605059D01*
X136748511Y-80128869D01*
X136748511Y-79652678D01*
X137129464Y-79176488D01*
X137891369Y-78938392D01*
X139796130Y-78938392D01*
X140558035Y-78700297D01*
X142462797Y-81319345D02*
X148558035Y-81319345D01*
X150462797Y-77509821D02*
X150462797Y-80843154D01*
X150462797Y-77986011D02*
X150843750Y-77747916D01*
X151605654Y-77509821D01*
X152748511Y-77509821D01*
X153510416Y-77747916D01*
X153891369Y-78224107D01*
X153891369Y-80843154D01*
X161129464Y-80605059D02*
X160367559Y-80843154D01*
X158843750Y-80843154D01*
X158081845Y-80605059D01*
X157700892Y-80366964D01*
X157319940Y-79890773D01*
X157319940Y-78462202D01*
X157700892Y-77986011D01*
X158081845Y-77747916D01*
X158843750Y-77509821D01*
X160367559Y-77509821D01*
X161129464Y-77747916D01*
D10*
X144597619Y-75064880D02*
X144264285Y-74588690D01*
X144026190Y-75064880D02*
X144026190Y-74064880D01*
X144407142Y-74064880D01*
X144502380Y-74112500D01*
X144550000Y-74160119D01*
X144597619Y-74255357D01*
X144597619Y-74398214D01*
X144550000Y-74493452D01*
X144502380Y-74541071D01*
X144407142Y-74588690D01*
X144026190Y-74588690D01*
X145026190Y-74541071D02*
X145359523Y-74541071D01*
X145502380Y-75064880D02*
X145026190Y-75064880D01*
X145026190Y-74064880D01*
X145502380Y-74064880D01*
X145883333Y-75017261D02*
X146026190Y-75064880D01*
X146264285Y-75064880D01*
X146359523Y-75017261D01*
X146407142Y-74969642D01*
X146454761Y-74874404D01*
X146454761Y-74779166D01*
X146407142Y-74683928D01*
X146359523Y-74636309D01*
X146264285Y-74588690D01*
X146073809Y-74541071D01*
X145978571Y-74493452D01*
X145930952Y-74445833D01*
X145883333Y-74350595D01*
X145883333Y-74255357D01*
X145930952Y-74160119D01*
X145978571Y-74112500D01*
X146073809Y-74064880D01*
X146311904Y-74064880D01*
X146454761Y-74112500D01*
X146883333Y-74541071D02*
X147216666Y-74541071D01*
X147359523Y-75064880D02*
X146883333Y-75064880D01*
X146883333Y-74064880D01*
X147359523Y-74064880D01*
X147645238Y-74064880D02*
X148216666Y-74064880D01*
X147930952Y-75064880D02*
X147930952Y-74064880D01*
X144597619Y-68546130D02*
X144788095Y-68546130D01*
X144883333Y-68593750D01*
X144978571Y-68688988D01*
X145026190Y-68879464D01*
X145026190Y-69212797D01*
X144978571Y-69403273D01*
X144883333Y-69498511D01*
X144788095Y-69546130D01*
X144597619Y-69546130D01*
X144502380Y-69498511D01*
X144407142Y-69403273D01*
X144359523Y-69212797D01*
X144359523Y-68879464D01*
X144407142Y-68688988D01*
X144502380Y-68593750D01*
X144597619Y-68546130D01*
X145930952Y-69546130D02*
X145454761Y-69546130D01*
X145454761Y-68546130D01*
X146264285Y-69022321D02*
X146597619Y-69022321D01*
X146740476Y-69546130D02*
X146264285Y-69546130D01*
X146264285Y-68546130D01*
X146740476Y-68546130D01*
X147169047Y-69546130D02*
X147169047Y-68546130D01*
X147407142Y-68546130D01*
X147550000Y-68593750D01*
X147645238Y-68688988D01*
X147692857Y-68784226D01*
X147740476Y-68974702D01*
X147740476Y-69117559D01*
X147692857Y-69308035D01*
X147645238Y-69403273D01*
X147550000Y-69498511D01*
X147407142Y-69546130D01*
X147169047Y-69546130D01*
D14*
X135392380Y-39020535D02*
X135169047Y-38663392D01*
X135009523Y-39020535D02*
X135009523Y-38270535D01*
X135264761Y-38270535D01*
X135328571Y-38306250D01*
X135360476Y-38341964D01*
X135392380Y-38413392D01*
X135392380Y-38520535D01*
X135360476Y-38591964D01*
X135328571Y-38627678D01*
X135264761Y-38663392D01*
X135009523Y-38663392D01*
X135647619Y-38806250D02*
X135966666Y-38806250D01*
X135583809Y-39020535D02*
X135807142Y-38270535D01*
X136030476Y-39020535D01*
X136190000Y-38270535D02*
X136349523Y-39020535D01*
X136477142Y-38484821D01*
X136604761Y-39020535D01*
X136764285Y-38270535D01*
X135344523Y-40856250D02*
X135280714Y-40820535D01*
X135185000Y-40820535D01*
X135089285Y-40856250D01*
X135025476Y-40927678D01*
X134993571Y-40999107D01*
X134961666Y-41141964D01*
X134961666Y-41249107D01*
X134993571Y-41391964D01*
X135025476Y-41463392D01*
X135089285Y-41534821D01*
X135185000Y-41570535D01*
X135248809Y-41570535D01*
X135344523Y-41534821D01*
X135376428Y-41499107D01*
X135376428Y-41249107D01*
X135248809Y-41249107D01*
X135663571Y-41570535D02*
X135663571Y-40820535D01*
X136046428Y-41570535D01*
X136046428Y-40820535D01*
X136365476Y-41570535D02*
X136365476Y-40820535D01*
X136525000Y-40820535D01*
X136620714Y-40856250D01*
X136684523Y-40927678D01*
X136716428Y-40999107D01*
X136748333Y-41141964D01*
X136748333Y-41249107D01*
X136716428Y-41391964D01*
X136684523Y-41463392D01*
X136620714Y-41534821D01*
X136525000Y-41570535D01*
X136365476Y-41570535D01*
X135488095Y-44120535D02*
X135264761Y-43763392D01*
X135105238Y-44120535D02*
X135105238Y-43370535D01*
X135360476Y-43370535D01*
X135424285Y-43406250D01*
X135456190Y-43441964D01*
X135488095Y-43513392D01*
X135488095Y-43620535D01*
X135456190Y-43691964D01*
X135424285Y-43727678D01*
X135360476Y-43763392D01*
X135105238Y-43763392D01*
X135743333Y-44084821D02*
X135839047Y-44120535D01*
X135998571Y-44120535D01*
X136062380Y-44084821D01*
X136094285Y-44049107D01*
X136126190Y-43977678D01*
X136126190Y-43906250D01*
X136094285Y-43834821D01*
X136062380Y-43799107D01*
X135998571Y-43763392D01*
X135870952Y-43727678D01*
X135807142Y-43691964D01*
X135775238Y-43656250D01*
X135743333Y-43584821D01*
X135743333Y-43513392D01*
X135775238Y-43441964D01*
X135807142Y-43406250D01*
X135870952Y-43370535D01*
X136030476Y-43370535D01*
X136126190Y-43406250D01*
X136317619Y-43370535D02*
X136700476Y-43370535D01*
X136509047Y-44120535D02*
X136509047Y-43370535D01*
X134961666Y-45820535D02*
X135185000Y-46570535D01*
X135408333Y-45820535D01*
X136014523Y-46499107D02*
X135982619Y-46534821D01*
X135886904Y-46570535D01*
X135823095Y-46570535D01*
X135727380Y-46534821D01*
X135663571Y-46463392D01*
X135631666Y-46391964D01*
X135599761Y-46249107D01*
X135599761Y-46141964D01*
X135631666Y-45999107D01*
X135663571Y-45927678D01*
X135727380Y-45856250D01*
X135823095Y-45820535D01*
X135886904Y-45820535D01*
X135982619Y-45856250D01*
X136014523Y-45891964D01*
X136684523Y-46499107D02*
X136652619Y-46534821D01*
X136556904Y-46570535D01*
X136493095Y-46570535D01*
X136397380Y-46534821D01*
X136333571Y-46463392D01*
X136301666Y-46391964D01*
X136269761Y-46249107D01*
X136269761Y-46141964D01*
X136301666Y-45999107D01*
X136333571Y-45927678D01*
X136397380Y-45856250D01*
X136493095Y-45820535D01*
X136556904Y-45820535D01*
X136652619Y-45856250D01*
X136684523Y-45891964D01*
X133769285Y-49056250D02*
X134088333Y-49056250D01*
X133705476Y-49270535D02*
X133928809Y-48520535D01*
X134152142Y-49270535D01*
X134311666Y-48520535D02*
X134726428Y-48520535D01*
X134503095Y-48806250D01*
X134598809Y-48806250D01*
X134662619Y-48841964D01*
X134694523Y-48877678D01*
X134726428Y-48949107D01*
X134726428Y-49127678D01*
X134694523Y-49199107D01*
X134662619Y-49234821D01*
X134598809Y-49270535D01*
X134407380Y-49270535D01*
X134343571Y-49234821D01*
X134311666Y-49199107D01*
X135492142Y-48484821D02*
X134917857Y-49449107D01*
X135938809Y-48877678D02*
X135715476Y-48877678D01*
X135715476Y-49270535D02*
X135715476Y-48520535D01*
X136034523Y-48520535D01*
X136576904Y-48770535D02*
X136576904Y-49270535D01*
X136417380Y-48484821D02*
X136257857Y-49020535D01*
X136672619Y-49020535D01*
X133769285Y-51556250D02*
X134088333Y-51556250D01*
X133705476Y-51770535D02*
X133928809Y-51020535D01*
X134152142Y-51770535D01*
X134343571Y-51091964D02*
X134375476Y-51056250D01*
X134439285Y-51020535D01*
X134598809Y-51020535D01*
X134662619Y-51056250D01*
X134694523Y-51091964D01*
X134726428Y-51163392D01*
X134726428Y-51234821D01*
X134694523Y-51341964D01*
X134311666Y-51770535D01*
X134726428Y-51770535D01*
X135492142Y-50984821D02*
X134917857Y-51949107D01*
X135938809Y-51377678D02*
X135715476Y-51377678D01*
X135715476Y-51770535D02*
X135715476Y-51020535D01*
X136034523Y-51020535D01*
X136608809Y-51020535D02*
X136289761Y-51020535D01*
X136257857Y-51377678D01*
X136289761Y-51341964D01*
X136353571Y-51306250D01*
X136513095Y-51306250D01*
X136576904Y-51341964D01*
X136608809Y-51377678D01*
X136640714Y-51449107D01*
X136640714Y-51627678D01*
X136608809Y-51699107D01*
X136576904Y-51734821D01*
X136513095Y-51770535D01*
X136353571Y-51770535D01*
X136289761Y-51734821D01*
X136257857Y-51699107D01*
X133769285Y-54056250D02*
X134088333Y-54056250D01*
X133705476Y-54270535D02*
X133928809Y-53520535D01*
X134152142Y-54270535D01*
X134726428Y-54270535D02*
X134343571Y-54270535D01*
X134535000Y-54270535D02*
X134535000Y-53520535D01*
X134471190Y-53627678D01*
X134407380Y-53699107D01*
X134343571Y-53734821D01*
X135492142Y-53484821D02*
X134917857Y-54449107D01*
X135938809Y-53877678D02*
X135715476Y-53877678D01*
X135715476Y-54270535D02*
X135715476Y-53520535D01*
X136034523Y-53520535D01*
X136576904Y-53520535D02*
X136449285Y-53520535D01*
X136385476Y-53556250D01*
X136353571Y-53591964D01*
X136289761Y-53699107D01*
X136257857Y-53841964D01*
X136257857Y-54127678D01*
X136289761Y-54199107D01*
X136321666Y-54234821D01*
X136385476Y-54270535D01*
X136513095Y-54270535D01*
X136576904Y-54234821D01*
X136608809Y-54199107D01*
X136640714Y-54127678D01*
X136640714Y-53949107D01*
X136608809Y-53877678D01*
X136576904Y-53841964D01*
X136513095Y-53806250D01*
X136385476Y-53806250D01*
X136321666Y-53841964D01*
X136289761Y-53877678D01*
X136257857Y-53949107D01*
X133769285Y-56606250D02*
X134088333Y-56606250D01*
X133705476Y-56820535D02*
X133928809Y-56070535D01*
X134152142Y-56820535D01*
X134503095Y-56070535D02*
X134566904Y-56070535D01*
X134630714Y-56106250D01*
X134662619Y-56141964D01*
X134694523Y-56213392D01*
X134726428Y-56356250D01*
X134726428Y-56534821D01*
X134694523Y-56677678D01*
X134662619Y-56749107D01*
X134630714Y-56784821D01*
X134566904Y-56820535D01*
X134503095Y-56820535D01*
X134439285Y-56784821D01*
X134407380Y-56749107D01*
X134375476Y-56677678D01*
X134343571Y-56534821D01*
X134343571Y-56356250D01*
X134375476Y-56213392D01*
X134407380Y-56141964D01*
X134439285Y-56106250D01*
X134503095Y-56070535D01*
X135492142Y-56034821D02*
X134917857Y-56999107D01*
X135938809Y-56427678D02*
X135715476Y-56427678D01*
X135715476Y-56820535D02*
X135715476Y-56070535D01*
X136034523Y-56070535D01*
X136225952Y-56070535D02*
X136672619Y-56070535D01*
X136385476Y-56820535D01*
X134072380Y-59370535D02*
X133689523Y-59370535D01*
X133880952Y-59370535D02*
X133880952Y-58620535D01*
X133817142Y-58727678D01*
X133753333Y-58799107D01*
X133689523Y-58834821D01*
X134678571Y-58620535D02*
X134359523Y-58620535D01*
X134327619Y-58977678D01*
X134359523Y-58941964D01*
X134423333Y-58906250D01*
X134582857Y-58906250D01*
X134646666Y-58941964D01*
X134678571Y-58977678D01*
X134710476Y-59049107D01*
X134710476Y-59227678D01*
X134678571Y-59299107D01*
X134646666Y-59334821D01*
X134582857Y-59370535D01*
X134423333Y-59370535D01*
X134359523Y-59334821D01*
X134327619Y-59299107D01*
X135476190Y-58584821D02*
X134901904Y-59549107D01*
X135922857Y-58977678D02*
X136018571Y-59013392D01*
X136050476Y-59049107D01*
X136082380Y-59120535D01*
X136082380Y-59227678D01*
X136050476Y-59299107D01*
X136018571Y-59334821D01*
X135954761Y-59370535D01*
X135699523Y-59370535D01*
X135699523Y-58620535D01*
X135922857Y-58620535D01*
X135986666Y-58656250D01*
X136018571Y-58691964D01*
X136050476Y-58763392D01*
X136050476Y-58834821D01*
X136018571Y-58906250D01*
X135986666Y-58941964D01*
X135922857Y-58977678D01*
X135699523Y-58977678D01*
X136720476Y-59370535D02*
X136337619Y-59370535D01*
X136529047Y-59370535D02*
X136529047Y-58620535D01*
X136465238Y-58727678D01*
X136401428Y-58799107D01*
X136337619Y-58834821D01*
X134072380Y-61920535D02*
X133689523Y-61920535D01*
X133880952Y-61920535D02*
X133880952Y-61170535D01*
X133817142Y-61277678D01*
X133753333Y-61349107D01*
X133689523Y-61384821D01*
X134646666Y-61420535D02*
X134646666Y-61920535D01*
X134487142Y-61134821D02*
X134327619Y-61670535D01*
X134742380Y-61670535D01*
X135476190Y-61134821D02*
X134901904Y-62099107D01*
X135922857Y-61527678D02*
X136018571Y-61563392D01*
X136050476Y-61599107D01*
X136082380Y-61670535D01*
X136082380Y-61777678D01*
X136050476Y-61849107D01*
X136018571Y-61884821D01*
X135954761Y-61920535D01*
X135699523Y-61920535D01*
X135699523Y-61170535D01*
X135922857Y-61170535D01*
X135986666Y-61206250D01*
X136018571Y-61241964D01*
X136050476Y-61313392D01*
X136050476Y-61384821D01*
X136018571Y-61456250D01*
X135986666Y-61491964D01*
X135922857Y-61527678D01*
X135699523Y-61527678D01*
X136305714Y-61170535D02*
X136720476Y-61170535D01*
X136497142Y-61456250D01*
X136592857Y-61456250D01*
X136656666Y-61491964D01*
X136688571Y-61527678D01*
X136720476Y-61599107D01*
X136720476Y-61777678D01*
X136688571Y-61849107D01*
X136656666Y-61884821D01*
X136592857Y-61920535D01*
X136401428Y-61920535D01*
X136337619Y-61884821D01*
X136305714Y-61849107D01*
X134072380Y-66970535D02*
X133689523Y-66970535D01*
X133880952Y-66970535D02*
X133880952Y-66220535D01*
X133817142Y-66327678D01*
X133753333Y-66399107D01*
X133689523Y-66434821D01*
X134487142Y-66220535D02*
X134550952Y-66220535D01*
X134614761Y-66256250D01*
X134646666Y-66291964D01*
X134678571Y-66363392D01*
X134710476Y-66506250D01*
X134710476Y-66684821D01*
X134678571Y-66827678D01*
X134646666Y-66899107D01*
X134614761Y-66934821D01*
X134550952Y-66970535D01*
X134487142Y-66970535D01*
X134423333Y-66934821D01*
X134391428Y-66899107D01*
X134359523Y-66827678D01*
X134327619Y-66684821D01*
X134327619Y-66506250D01*
X134359523Y-66363392D01*
X134391428Y-66291964D01*
X134423333Y-66256250D01*
X134487142Y-66220535D01*
X135476190Y-66184821D02*
X134901904Y-67149107D01*
X135922857Y-66577678D02*
X136018571Y-66613392D01*
X136050476Y-66649107D01*
X136082380Y-66720535D01*
X136082380Y-66827678D01*
X136050476Y-66899107D01*
X136018571Y-66934821D01*
X135954761Y-66970535D01*
X135699523Y-66970535D01*
X135699523Y-66220535D01*
X135922857Y-66220535D01*
X135986666Y-66256250D01*
X136018571Y-66291964D01*
X136050476Y-66363392D01*
X136050476Y-66434821D01*
X136018571Y-66506250D01*
X135986666Y-66541964D01*
X135922857Y-66577678D01*
X135699523Y-66577678D01*
X136656666Y-66220535D02*
X136529047Y-66220535D01*
X136465238Y-66256250D01*
X136433333Y-66291964D01*
X136369523Y-66399107D01*
X136337619Y-66541964D01*
X136337619Y-66827678D01*
X136369523Y-66899107D01*
X136401428Y-66934821D01*
X136465238Y-66970535D01*
X136592857Y-66970535D01*
X136656666Y-66934821D01*
X136688571Y-66899107D01*
X136720476Y-66827678D01*
X136720476Y-66649107D01*
X136688571Y-66577678D01*
X136656666Y-66541964D01*
X136592857Y-66506250D01*
X136465238Y-66506250D01*
X136401428Y-66541964D01*
X136369523Y-66577678D01*
X136337619Y-66649107D01*
X134072380Y-64470535D02*
X133689523Y-64470535D01*
X133880952Y-64470535D02*
X133880952Y-63720535D01*
X133817142Y-63827678D01*
X133753333Y-63899107D01*
X133689523Y-63934821D01*
X134646666Y-63720535D02*
X134519047Y-63720535D01*
X134455238Y-63756250D01*
X134423333Y-63791964D01*
X134359523Y-63899107D01*
X134327619Y-64041964D01*
X134327619Y-64327678D01*
X134359523Y-64399107D01*
X134391428Y-64434821D01*
X134455238Y-64470535D01*
X134582857Y-64470535D01*
X134646666Y-64434821D01*
X134678571Y-64399107D01*
X134710476Y-64327678D01*
X134710476Y-64149107D01*
X134678571Y-64077678D01*
X134646666Y-64041964D01*
X134582857Y-64006250D01*
X134455238Y-64006250D01*
X134391428Y-64041964D01*
X134359523Y-64077678D01*
X134327619Y-64149107D01*
X135476190Y-63684821D02*
X134901904Y-64649107D01*
X135922857Y-64077678D02*
X136018571Y-64113392D01*
X136050476Y-64149107D01*
X136082380Y-64220535D01*
X136082380Y-64327678D01*
X136050476Y-64399107D01*
X136018571Y-64434821D01*
X135954761Y-64470535D01*
X135699523Y-64470535D01*
X135699523Y-63720535D01*
X135922857Y-63720535D01*
X135986666Y-63756250D01*
X136018571Y-63791964D01*
X136050476Y-63863392D01*
X136050476Y-63934821D01*
X136018571Y-64006250D01*
X135986666Y-64041964D01*
X135922857Y-64077678D01*
X135699523Y-64077678D01*
X136337619Y-63791964D02*
X136369523Y-63756250D01*
X136433333Y-63720535D01*
X136592857Y-63720535D01*
X136656666Y-63756250D01*
X136688571Y-63791964D01*
X136720476Y-63863392D01*
X136720476Y-63934821D01*
X136688571Y-64041964D01*
X136305714Y-64470535D01*
X136720476Y-64470535D01*
X155522380Y-61477678D02*
X155745714Y-61477678D01*
X155841428Y-61870535D02*
X155522380Y-61870535D01*
X155522380Y-61120535D01*
X155841428Y-61120535D01*
X156415714Y-61120535D02*
X156288095Y-61120535D01*
X156224285Y-61156250D01*
X156192380Y-61191964D01*
X156128571Y-61299107D01*
X156096666Y-61441964D01*
X156096666Y-61727678D01*
X156128571Y-61799107D01*
X156160476Y-61834821D01*
X156224285Y-61870535D01*
X156351904Y-61870535D01*
X156415714Y-61834821D01*
X156447619Y-61799107D01*
X156479523Y-61727678D01*
X156479523Y-61549107D01*
X156447619Y-61477678D01*
X156415714Y-61441964D01*
X156351904Y-61406250D01*
X156224285Y-61406250D01*
X156160476Y-61441964D01*
X156128571Y-61477678D01*
X156096666Y-61549107D01*
X157245238Y-61084821D02*
X156670952Y-62049107D01*
X157404761Y-61120535D02*
X157851428Y-61120535D01*
X157564285Y-61870535D01*
X155490476Y-59320535D02*
X155490476Y-58570535D01*
X155650000Y-58570535D01*
X155745714Y-58606250D01*
X155809523Y-58677678D01*
X155841428Y-58749107D01*
X155873333Y-58891964D01*
X155873333Y-58999107D01*
X155841428Y-59141964D01*
X155809523Y-59213392D01*
X155745714Y-59284821D01*
X155650000Y-59320535D01*
X155490476Y-59320535D01*
X156096666Y-58570535D02*
X156543333Y-58570535D01*
X156256190Y-59320535D01*
X157277142Y-58534821D02*
X156702857Y-59499107D01*
X157787619Y-58570535D02*
X157660000Y-58570535D01*
X157596190Y-58606250D01*
X157564285Y-58641964D01*
X157500476Y-58749107D01*
X157468571Y-58891964D01*
X157468571Y-59177678D01*
X157500476Y-59249107D01*
X157532380Y-59284821D01*
X157596190Y-59320535D01*
X157723809Y-59320535D01*
X157787619Y-59284821D01*
X157819523Y-59249107D01*
X157851428Y-59177678D01*
X157851428Y-58999107D01*
X157819523Y-58927678D01*
X157787619Y-58891964D01*
X157723809Y-58856250D01*
X157596190Y-58856250D01*
X157532380Y-58891964D01*
X157500476Y-58927678D01*
X157468571Y-58999107D01*
X155644523Y-43506250D02*
X155580714Y-43470535D01*
X155485000Y-43470535D01*
X155389285Y-43506250D01*
X155325476Y-43577678D01*
X155293571Y-43649107D01*
X155261666Y-43791964D01*
X155261666Y-43899107D01*
X155293571Y-44041964D01*
X155325476Y-44113392D01*
X155389285Y-44184821D01*
X155485000Y-44220535D01*
X155548809Y-44220535D01*
X155644523Y-44184821D01*
X155676428Y-44149107D01*
X155676428Y-43899107D01*
X155548809Y-43899107D01*
X155963571Y-44220535D02*
X155963571Y-43470535D01*
X156346428Y-44220535D01*
X156346428Y-43470535D01*
X156665476Y-44220535D02*
X156665476Y-43470535D01*
X156825000Y-43470535D01*
X156920714Y-43506250D01*
X156984523Y-43577678D01*
X157016428Y-43649107D01*
X157048333Y-43791964D01*
X157048333Y-43899107D01*
X157016428Y-44041964D01*
X156984523Y-44113392D01*
X156920714Y-44184821D01*
X156825000Y-44220535D01*
X156665476Y-44220535D01*
X155644523Y-45956250D02*
X155580714Y-45920535D01*
X155485000Y-45920535D01*
X155389285Y-45956250D01*
X155325476Y-46027678D01*
X155293571Y-46099107D01*
X155261666Y-46241964D01*
X155261666Y-46349107D01*
X155293571Y-46491964D01*
X155325476Y-46563392D01*
X155389285Y-46634821D01*
X155485000Y-46670535D01*
X155548809Y-46670535D01*
X155644523Y-46634821D01*
X155676428Y-46599107D01*
X155676428Y-46349107D01*
X155548809Y-46349107D01*
X155963571Y-46670535D02*
X155963571Y-45920535D01*
X156346428Y-46670535D01*
X156346428Y-45920535D01*
X156665476Y-46670535D02*
X156665476Y-45920535D01*
X156825000Y-45920535D01*
X156920714Y-45956250D01*
X156984523Y-46027678D01*
X157016428Y-46099107D01*
X157048333Y-46241964D01*
X157048333Y-46349107D01*
X157016428Y-46491964D01*
X156984523Y-46563392D01*
X156920714Y-46634821D01*
X156825000Y-46670535D01*
X156665476Y-46670535D01*
X155366190Y-39070535D02*
X155366190Y-38320535D01*
X155525714Y-38320535D01*
X155621428Y-38356250D01*
X155685238Y-38427678D01*
X155717142Y-38499107D01*
X155749047Y-38641964D01*
X155749047Y-38749107D01*
X155717142Y-38891964D01*
X155685238Y-38963392D01*
X155621428Y-39034821D01*
X155525714Y-39070535D01*
X155366190Y-39070535D01*
X155972380Y-38320535D02*
X156387142Y-38320535D01*
X156163809Y-38606250D01*
X156259523Y-38606250D01*
X156323333Y-38641964D01*
X156355238Y-38677678D01*
X156387142Y-38749107D01*
X156387142Y-38927678D01*
X156355238Y-38999107D01*
X156323333Y-39034821D01*
X156259523Y-39070535D01*
X156068095Y-39070535D01*
X156004285Y-39034821D01*
X155972380Y-38999107D01*
X157152857Y-38284821D02*
X156578571Y-39249107D01*
X157280476Y-38320535D02*
X157663333Y-38320535D01*
X157471904Y-39070535D02*
X157471904Y-38320535D01*
X157822857Y-38320535D02*
X158269523Y-39070535D01*
X158269523Y-38320535D02*
X157822857Y-39070535D01*
X158652380Y-38320535D02*
X158716190Y-38320535D01*
X158780000Y-38356250D01*
X158811904Y-38391964D01*
X158843809Y-38463392D01*
X158875714Y-38606250D01*
X158875714Y-38784821D01*
X158843809Y-38927678D01*
X158811904Y-38999107D01*
X158780000Y-39034821D01*
X158716190Y-39070535D01*
X158652380Y-39070535D01*
X158588571Y-39034821D01*
X158556666Y-38999107D01*
X158524761Y-38927678D01*
X158492857Y-38784821D01*
X158492857Y-38606250D01*
X158524761Y-38463392D01*
X158556666Y-38391964D01*
X158588571Y-38356250D01*
X158652380Y-38320535D01*
X155490476Y-54220535D02*
X155490476Y-53470535D01*
X155650000Y-53470535D01*
X155745714Y-53506250D01*
X155809523Y-53577678D01*
X155841428Y-53649107D01*
X155873333Y-53791964D01*
X155873333Y-53899107D01*
X155841428Y-54041964D01*
X155809523Y-54113392D01*
X155745714Y-54184821D01*
X155650000Y-54220535D01*
X155490476Y-54220535D01*
X156447619Y-53720535D02*
X156447619Y-54220535D01*
X156288095Y-53434821D02*
X156128571Y-53970535D01*
X156543333Y-53970535D01*
X157277142Y-53434821D02*
X156702857Y-54399107D01*
X157787619Y-53720535D02*
X157787619Y-54220535D01*
X157628095Y-53434821D02*
X157468571Y-53970535D01*
X157883333Y-53970535D01*
X155316428Y-49284821D02*
X155412142Y-49320535D01*
X155571666Y-49320535D01*
X155635476Y-49284821D01*
X155667380Y-49249107D01*
X155699285Y-49177678D01*
X155699285Y-49106250D01*
X155667380Y-49034821D01*
X155635476Y-48999107D01*
X155571666Y-48963392D01*
X155444047Y-48927678D01*
X155380238Y-48891964D01*
X155348333Y-48856250D01*
X155316428Y-48784821D01*
X155316428Y-48713392D01*
X155348333Y-48641964D01*
X155380238Y-48606250D01*
X155444047Y-48570535D01*
X155603571Y-48570535D01*
X155699285Y-48606250D01*
X155986428Y-49320535D02*
X155986428Y-48570535D01*
X156145952Y-48570535D01*
X156241666Y-48606250D01*
X156305476Y-48677678D01*
X156337380Y-48749107D01*
X156369285Y-48891964D01*
X156369285Y-48999107D01*
X156337380Y-49141964D01*
X156305476Y-49213392D01*
X156241666Y-49284821D01*
X156145952Y-49320535D01*
X155986428Y-49320535D01*
X156624523Y-49106250D02*
X156943571Y-49106250D01*
X156560714Y-49320535D02*
X156784047Y-48570535D01*
X157007380Y-49320535D01*
X157709285Y-48534821D02*
X157135000Y-49499107D01*
X157932619Y-49320535D02*
X157932619Y-48570535D01*
X158092142Y-48570535D01*
X158187857Y-48606250D01*
X158251666Y-48677678D01*
X158283571Y-48749107D01*
X158315476Y-48891964D01*
X158315476Y-48999107D01*
X158283571Y-49141964D01*
X158251666Y-49213392D01*
X158187857Y-49284821D01*
X158092142Y-49320535D01*
X157932619Y-49320535D01*
X158953571Y-49320535D02*
X158570714Y-49320535D01*
X158762142Y-49320535D02*
X158762142Y-48570535D01*
X158698333Y-48677678D01*
X158634523Y-48749107D01*
X158570714Y-48784821D01*
X159719285Y-48534821D02*
X159145000Y-49499107D01*
X159910714Y-48641964D02*
X159942619Y-48606250D01*
X160006428Y-48570535D01*
X160165952Y-48570535D01*
X160229761Y-48606250D01*
X160261666Y-48641964D01*
X160293571Y-48713392D01*
X160293571Y-48784821D01*
X160261666Y-48891964D01*
X159878809Y-49320535D01*
X160293571Y-49320535D01*
X155332380Y-51784821D02*
X155428095Y-51820535D01*
X155587619Y-51820535D01*
X155651428Y-51784821D01*
X155683333Y-51749107D01*
X155715238Y-51677678D01*
X155715238Y-51606250D01*
X155683333Y-51534821D01*
X155651428Y-51499107D01*
X155587619Y-51463392D01*
X155460000Y-51427678D01*
X155396190Y-51391964D01*
X155364285Y-51356250D01*
X155332380Y-51284821D01*
X155332380Y-51213392D01*
X155364285Y-51141964D01*
X155396190Y-51106250D01*
X155460000Y-51070535D01*
X155619523Y-51070535D01*
X155715238Y-51106250D01*
X156385238Y-51749107D02*
X156353333Y-51784821D01*
X156257619Y-51820535D01*
X156193809Y-51820535D01*
X156098095Y-51784821D01*
X156034285Y-51713392D01*
X156002380Y-51641964D01*
X155970476Y-51499107D01*
X155970476Y-51391964D01*
X156002380Y-51249107D01*
X156034285Y-51177678D01*
X156098095Y-51106250D01*
X156193809Y-51070535D01*
X156257619Y-51070535D01*
X156353333Y-51106250D01*
X156385238Y-51141964D01*
X156991428Y-51820535D02*
X156672380Y-51820535D01*
X156672380Y-51070535D01*
X157693333Y-51034821D02*
X157119047Y-51999107D01*
X157916666Y-51820535D02*
X157916666Y-51070535D01*
X158076190Y-51070535D01*
X158171904Y-51106250D01*
X158235714Y-51177678D01*
X158267619Y-51249107D01*
X158299523Y-51391964D01*
X158299523Y-51499107D01*
X158267619Y-51641964D01*
X158235714Y-51713392D01*
X158171904Y-51784821D01*
X158076190Y-51820535D01*
X157916666Y-51820535D01*
X158714285Y-51070535D02*
X158778095Y-51070535D01*
X158841904Y-51106250D01*
X158873809Y-51141964D01*
X158905714Y-51213392D01*
X158937619Y-51356250D01*
X158937619Y-51534821D01*
X158905714Y-51677678D01*
X158873809Y-51749107D01*
X158841904Y-51784821D01*
X158778095Y-51820535D01*
X158714285Y-51820535D01*
X158650476Y-51784821D01*
X158618571Y-51749107D01*
X158586666Y-51677678D01*
X158554761Y-51534821D01*
X158554761Y-51356250D01*
X158586666Y-51213392D01*
X158618571Y-51141964D01*
X158650476Y-51106250D01*
X158714285Y-51070535D01*
X159703333Y-51034821D02*
X159129047Y-51999107D01*
X159862857Y-51070535D02*
X160277619Y-51070535D01*
X160054285Y-51356250D01*
X160150000Y-51356250D01*
X160213809Y-51391964D01*
X160245714Y-51427678D01*
X160277619Y-51499107D01*
X160277619Y-51677678D01*
X160245714Y-51749107D01*
X160213809Y-51784821D01*
X160150000Y-51820535D01*
X159958571Y-51820535D01*
X159894761Y-51784821D01*
X159862857Y-51749107D01*
X155873333Y-56699107D02*
X155841428Y-56734821D01*
X155745714Y-56770535D01*
X155681904Y-56770535D01*
X155586190Y-56734821D01*
X155522380Y-56663392D01*
X155490476Y-56591964D01*
X155458571Y-56449107D01*
X155458571Y-56341964D01*
X155490476Y-56199107D01*
X155522380Y-56127678D01*
X155586190Y-56056250D01*
X155681904Y-56020535D01*
X155745714Y-56020535D01*
X155841428Y-56056250D01*
X155873333Y-56091964D01*
X156447619Y-56020535D02*
X156320000Y-56020535D01*
X156256190Y-56056250D01*
X156224285Y-56091964D01*
X156160476Y-56199107D01*
X156128571Y-56341964D01*
X156128571Y-56627678D01*
X156160476Y-56699107D01*
X156192380Y-56734821D01*
X156256190Y-56770535D01*
X156383809Y-56770535D01*
X156447619Y-56734821D01*
X156479523Y-56699107D01*
X156511428Y-56627678D01*
X156511428Y-56449107D01*
X156479523Y-56377678D01*
X156447619Y-56341964D01*
X156383809Y-56306250D01*
X156256190Y-56306250D01*
X156192380Y-56341964D01*
X156160476Y-56377678D01*
X156128571Y-56449107D01*
X157277142Y-55984821D02*
X156702857Y-56949107D01*
X157819523Y-56020535D02*
X157500476Y-56020535D01*
X157468571Y-56377678D01*
X157500476Y-56341964D01*
X157564285Y-56306250D01*
X157723809Y-56306250D01*
X157787619Y-56341964D01*
X157819523Y-56377678D01*
X157851428Y-56449107D01*
X157851428Y-56627678D01*
X157819523Y-56699107D01*
X157787619Y-56734821D01*
X157723809Y-56770535D01*
X157564285Y-56770535D01*
X157500476Y-56734821D01*
X157468571Y-56699107D01*
X155713809Y-66527678D02*
X155809523Y-66563392D01*
X155841428Y-66599107D01*
X155873333Y-66670535D01*
X155873333Y-66777678D01*
X155841428Y-66849107D01*
X155809523Y-66884821D01*
X155745714Y-66920535D01*
X155490476Y-66920535D01*
X155490476Y-66170535D01*
X155713809Y-66170535D01*
X155777619Y-66206250D01*
X155809523Y-66241964D01*
X155841428Y-66313392D01*
X155841428Y-66384821D01*
X155809523Y-66456250D01*
X155777619Y-66491964D01*
X155713809Y-66527678D01*
X155490476Y-66527678D01*
X156479523Y-66170535D02*
X156160476Y-66170535D01*
X156128571Y-66527678D01*
X156160476Y-66491964D01*
X156224285Y-66456250D01*
X156383809Y-66456250D01*
X156447619Y-66491964D01*
X156479523Y-66527678D01*
X156511428Y-66599107D01*
X156511428Y-66777678D01*
X156479523Y-66849107D01*
X156447619Y-66884821D01*
X156383809Y-66920535D01*
X156224285Y-66920535D01*
X156160476Y-66884821D01*
X156128571Y-66849107D01*
X157277142Y-66134821D02*
X156702857Y-67099107D01*
X157532380Y-66920535D02*
X157660000Y-66920535D01*
X157723809Y-66884821D01*
X157755714Y-66849107D01*
X157819523Y-66741964D01*
X157851428Y-66599107D01*
X157851428Y-66313392D01*
X157819523Y-66241964D01*
X157787619Y-66206250D01*
X157723809Y-66170535D01*
X157596190Y-66170535D01*
X157532380Y-66206250D01*
X157500476Y-66241964D01*
X157468571Y-66313392D01*
X157468571Y-66491964D01*
X157500476Y-66563392D01*
X157532380Y-66599107D01*
X157596190Y-66634821D01*
X157723809Y-66634821D01*
X157787619Y-66599107D01*
X157819523Y-66563392D01*
X157851428Y-66491964D01*
X155286428Y-41620535D02*
X155286428Y-40870535D01*
X155445952Y-40870535D01*
X155541666Y-40906250D01*
X155605476Y-40977678D01*
X155637380Y-41049107D01*
X155669285Y-41191964D01*
X155669285Y-41299107D01*
X155637380Y-41441964D01*
X155605476Y-41513392D01*
X155541666Y-41584821D01*
X155445952Y-41620535D01*
X155286428Y-41620535D01*
X155924523Y-40941964D02*
X155956428Y-40906250D01*
X156020238Y-40870535D01*
X156179761Y-40870535D01*
X156243571Y-40906250D01*
X156275476Y-40941964D01*
X156307380Y-41013392D01*
X156307380Y-41084821D01*
X156275476Y-41191964D01*
X155892619Y-41620535D01*
X156307380Y-41620535D01*
X157073095Y-40834821D02*
X156498809Y-41799107D01*
X157679285Y-41620535D02*
X157455952Y-41263392D01*
X157296428Y-41620535D02*
X157296428Y-40870535D01*
X157551666Y-40870535D01*
X157615476Y-40906250D01*
X157647380Y-40941964D01*
X157679285Y-41013392D01*
X157679285Y-41120535D01*
X157647380Y-41191964D01*
X157615476Y-41227678D01*
X157551666Y-41263392D01*
X157296428Y-41263392D01*
X157902619Y-40870535D02*
X158349285Y-41620535D01*
X158349285Y-40870535D02*
X157902619Y-41620535D01*
X158955476Y-41620535D02*
X158572619Y-41620535D01*
X158764047Y-41620535D02*
X158764047Y-40870535D01*
X158700238Y-40977678D01*
X158636428Y-41049107D01*
X158572619Y-41084821D01*
X155713809Y-64027678D02*
X155809523Y-64063392D01*
X155841428Y-64099107D01*
X155873333Y-64170535D01*
X155873333Y-64277678D01*
X155841428Y-64349107D01*
X155809523Y-64384821D01*
X155745714Y-64420535D01*
X155490476Y-64420535D01*
X155490476Y-63670535D01*
X155713809Y-63670535D01*
X155777619Y-63706250D01*
X155809523Y-63741964D01*
X155841428Y-63813392D01*
X155841428Y-63884821D01*
X155809523Y-63956250D01*
X155777619Y-63991964D01*
X155713809Y-64027678D01*
X155490476Y-64027678D01*
X156447619Y-63920535D02*
X156447619Y-64420535D01*
X156288095Y-63634821D02*
X156128571Y-64170535D01*
X156543333Y-64170535D01*
X157277142Y-63634821D02*
X156702857Y-64599107D01*
X157596190Y-63991964D02*
X157532380Y-63956250D01*
X157500476Y-63920535D01*
X157468571Y-63849107D01*
X157468571Y-63813392D01*
X157500476Y-63741964D01*
X157532380Y-63706250D01*
X157596190Y-63670535D01*
X157723809Y-63670535D01*
X157787619Y-63706250D01*
X157819523Y-63741964D01*
X157851428Y-63813392D01*
X157851428Y-63849107D01*
X157819523Y-63920535D01*
X157787619Y-63956250D01*
X157723809Y-63991964D01*
X157596190Y-63991964D01*
X157532380Y-64027678D01*
X157500476Y-64063392D01*
X157468571Y-64134821D01*
X157468571Y-64277678D01*
X157500476Y-64349107D01*
X157532380Y-64384821D01*
X157596190Y-64420535D01*
X157723809Y-64420535D01*
X157787619Y-64384821D01*
X157819523Y-64349107D01*
X157851428Y-64277678D01*
X157851428Y-64134821D01*
X157819523Y-64063392D01*
X157787619Y-64027678D01*
X157723809Y-63991964D01*
D15*
X143553571Y-34570535D02*
X143553571Y-33820535D01*
X143803571Y-34356250D01*
X144053571Y-33820535D01*
X144053571Y-34570535D01*
X144410714Y-34570535D02*
X144410714Y-34070535D01*
X144410714Y-33820535D02*
X144375000Y-33856250D01*
X144410714Y-33891964D01*
X144446428Y-33856250D01*
X144410714Y-33820535D01*
X144410714Y-33891964D01*
X145089285Y-34534821D02*
X145017857Y-34570535D01*
X144875000Y-34570535D01*
X144803571Y-34534821D01*
X144767857Y-34499107D01*
X144732142Y-34427678D01*
X144732142Y-34213392D01*
X144767857Y-34141964D01*
X144803571Y-34106250D01*
X144875000Y-34070535D01*
X145017857Y-34070535D01*
X145089285Y-34106250D01*
X145410714Y-34570535D02*
X145410714Y-34070535D01*
X145410714Y-34213392D02*
X145446428Y-34141964D01*
X145482142Y-34106250D01*
X145553571Y-34070535D01*
X145625000Y-34070535D01*
X145982142Y-34570535D02*
X145910714Y-34534821D01*
X145875000Y-34499107D01*
X145839285Y-34427678D01*
X145839285Y-34213392D01*
X145875000Y-34141964D01*
X145910714Y-34106250D01*
X145982142Y-34070535D01*
X146089285Y-34070535D01*
X146160714Y-34106250D01*
X146196428Y-34141964D01*
X146232142Y-34213392D01*
X146232142Y-34427678D01*
X146196428Y-34499107D01*
X146160714Y-34534821D01*
X146089285Y-34570535D01*
X145982142Y-34570535D01*
X146553571Y-33820535D02*
X146553571Y-34427678D01*
X146589285Y-34499107D01*
X146625000Y-34534821D01*
X146696428Y-34570535D01*
X146839285Y-34570535D01*
X146910714Y-34534821D01*
X146946428Y-34499107D01*
X146982142Y-34427678D01*
X146982142Y-33820535D01*
X147303571Y-34534821D02*
X147410714Y-34570535D01*
X147589285Y-34570535D01*
X147660714Y-34534821D01*
X147696428Y-34499107D01*
X147732142Y-34427678D01*
X147732142Y-34356250D01*
X147696428Y-34284821D01*
X147660714Y-34249107D01*
X147589285Y-34213392D01*
X147446428Y-34177678D01*
X147375000Y-34141964D01*
X147339285Y-34106250D01*
X147303571Y-34034821D01*
X147303571Y-33963392D01*
X147339285Y-33891964D01*
X147375000Y-33856250D01*
X147446428Y-33820535D01*
X147625000Y-33820535D01*
X147732142Y-33856250D01*
X148303571Y-34177678D02*
X148410714Y-34213392D01*
X148446428Y-34249107D01*
X148482142Y-34320535D01*
X148482142Y-34427678D01*
X148446428Y-34499107D01*
X148410714Y-34534821D01*
X148339285Y-34570535D01*
X148053571Y-34570535D01*
X148053571Y-33820535D01*
X148303571Y-33820535D01*
X148375000Y-33856250D01*
X148410714Y-33891964D01*
X148446428Y-33963392D01*
X148446428Y-34034821D01*
X148410714Y-34106250D01*
X148375000Y-34141964D01*
X148303571Y-34177678D01*
X148053571Y-34177678D01*
%LPC*%
D16*
X160655000Y-98425000D03*
X150495000Y-98425000D03*
D17*
X155575000Y-98425000D03*
D16*
X141605000Y-98425000D03*
X131445000Y-98425000D03*
D17*
X136525000Y-98425000D03*
D16*
X255905000Y-98425000D03*
X245745000Y-98425000D03*
D17*
X250825000Y-98425000D03*
D16*
X236855000Y-98425000D03*
X226695000Y-98425000D03*
D17*
X231775000Y-98425000D03*
D16*
X217805000Y-98425000D03*
X207645000Y-98425000D03*
D17*
X212725000Y-98425000D03*
D16*
X198755000Y-98425000D03*
X188595000Y-98425000D03*
D17*
X193675000Y-98425000D03*
D16*
X179705000Y-98425000D03*
X169545000Y-98425000D03*
D17*
X174625000Y-98425000D03*
D16*
X122555000Y-98425000D03*
X112395000Y-98425000D03*
D17*
X117475000Y-98425000D03*
D16*
X103505000Y-98425000D03*
X93345000Y-98425000D03*
D17*
X98425000Y-98425000D03*
D16*
X84455000Y-98425000D03*
X74295000Y-98425000D03*
D17*
X79375000Y-98425000D03*
D16*
X65405000Y-98425000D03*
X55245000Y-98425000D03*
D17*
X60325000Y-98425000D03*
D16*
X46355000Y-98425000D03*
X36195000Y-98425000D03*
D17*
X41275000Y-98425000D03*
D16*
X255905000Y-79375000D03*
X245745000Y-79375000D03*
D17*
X250825000Y-79375000D03*
D16*
X236855000Y-79375000D03*
X226695000Y-79375000D03*
D17*
X231775000Y-79375000D03*
D16*
X217805000Y-79375000D03*
X207645000Y-79375000D03*
D17*
X212725000Y-79375000D03*
D16*
X198755000Y-79375000D03*
X188595000Y-79375000D03*
D17*
X193675000Y-79375000D03*
D16*
X179705000Y-79375000D03*
X169545000Y-79375000D03*
D17*
X174625000Y-79375000D03*
D16*
X122555000Y-79375000D03*
X112395000Y-79375000D03*
D17*
X117475000Y-79375000D03*
D16*
X103505000Y-79375000D03*
X93345000Y-79375000D03*
D17*
X98425000Y-79375000D03*
D16*
X84455000Y-79375000D03*
X74295000Y-79375000D03*
D17*
X79375000Y-79375000D03*
D16*
X65405000Y-79375000D03*
X55245000Y-79375000D03*
D17*
X60325000Y-79375000D03*
D16*
X46355000Y-79375000D03*
X36195000Y-79375000D03*
D17*
X41275000Y-79375000D03*
D16*
X255905000Y-60325000D03*
X245745000Y-60325000D03*
D17*
X250825000Y-60325000D03*
D16*
X236855000Y-60325000D03*
X226695000Y-60325000D03*
D17*
X231775000Y-60325000D03*
D16*
X217805000Y-60325000D03*
X207645000Y-60325000D03*
D17*
X212725000Y-60325000D03*
D16*
X198755000Y-60325000D03*
X188595000Y-60325000D03*
D17*
X193675000Y-60325000D03*
D16*
X179705000Y-60325000D03*
X169545000Y-60325000D03*
D17*
X174625000Y-60325000D03*
D16*
X122555000Y-60325000D03*
X112395000Y-60325000D03*
D17*
X117475000Y-60325000D03*
D16*
X103505000Y-60325000D03*
X93345000Y-60325000D03*
D17*
X98425000Y-60325000D03*
D16*
X84455000Y-60325000D03*
X74295000Y-60325000D03*
D17*
X79375000Y-60325000D03*
D16*
X65405000Y-60325000D03*
X55245000Y-60325000D03*
D17*
X60325000Y-60325000D03*
D16*
X46355000Y-60325000D03*
X36195000Y-60325000D03*
D17*
X41275000Y-60325000D03*
D16*
X255905000Y-41275000D03*
X245745000Y-41275000D03*
D17*
X250825000Y-41275000D03*
D16*
X236855000Y-41275000D03*
X226695000Y-41275000D03*
D17*
X231775000Y-41275000D03*
D16*
X217805000Y-41275000D03*
X207645000Y-41275000D03*
D17*
X212725000Y-41275000D03*
D16*
X198755000Y-41275000D03*
X188595000Y-41275000D03*
D17*
X193675000Y-41275000D03*
D16*
X179705000Y-41275000D03*
X169545000Y-41275000D03*
D17*
X174625000Y-41275000D03*
D16*
X122555000Y-41275000D03*
X112395000Y-41275000D03*
D17*
X117475000Y-41275000D03*
D16*
X103505000Y-41275000D03*
X93345000Y-41275000D03*
D17*
X98425000Y-41275000D03*
D16*
X84455000Y-41275000D03*
X74295000Y-41275000D03*
D17*
X79375000Y-41275000D03*
D16*
X65405000Y-41275000D03*
X55245000Y-41275000D03*
D17*
X60325000Y-41275000D03*
D16*
X46355000Y-41275000D03*
X36195000Y-41275000D03*
D17*
X41275000Y-41275000D03*
D18*
X241300000Y-88900000D03*
X241300000Y-50800000D03*
X165100000Y-88900000D03*
X165100000Y-50800000D03*
X127000000Y-88900000D03*
X127000000Y-50800000D03*
X50800000Y-88900000D03*
X50800000Y-50800000D03*
M02*
