M48
; DRILL file {KiCad 5.1.9+dfsg1-1} date Mon Mar 28 16:07:03 2022
; FORMAT={-:-/ absolute / metric / decimal}
; #@! TF.CreationDate,2022-03-28T16:07:03+02:00
; #@! TF.GenerationSoftware,Kicad,Pcbnew,5.1.9+dfsg1-1
; #@! TF.FileFunction,Plated,1,2,PTH
FMAT,2
METRIC
T1C0.400
T2C0.813
T3C1.300
T4C3.000
%
G90
G05
T1
X32.385Y-37.973
X32.385Y-39.497
X32.385Y-57.023
X32.385Y-58.547
X32.385Y-76.073
X32.385Y-77.597
X32.385Y-95.123
X32.385Y-96.647
X37.306Y-71.438
X48.895Y-35.433
X48.895Y-36.957
X48.895Y-54.483
X48.895Y-56.007
X48.895Y-73.533
X48.895Y-75.057
X48.895Y-92.583
X48.895Y-94.107
X51.435Y-37.973
X51.435Y-39.497
X51.435Y-57.023
X51.435Y-58.547
X51.435Y-76.073
X51.435Y-77.597
X51.435Y-95.123
X51.435Y-96.647
X56.356Y-69.85
X67.945Y-35.433
X67.945Y-36.957
X67.945Y-54.483
X67.945Y-56.007
X67.945Y-73.533
X67.945Y-75.057
X67.945Y-92.583
X67.945Y-94.107
X70.485Y-37.973
X70.485Y-39.497
X70.485Y-57.023
X70.485Y-58.547
X70.485Y-76.073
X70.485Y-77.597
X70.485Y-95.123
X70.485Y-96.647
X75.406Y-68.263
X86.995Y-35.433
X86.995Y-36.957
X86.995Y-54.483
X86.995Y-56.007
X86.995Y-73.533
X86.995Y-75.057
X86.995Y-92.583
X86.995Y-94.107
X89.535Y-37.973
X89.535Y-39.497
X89.535Y-57.023
X89.535Y-58.547
X89.535Y-76.073
X89.535Y-77.597
X89.535Y-95.123
X89.535Y-96.647
X94.456Y-66.675
X106.045Y-35.433
X106.045Y-36.957
X106.045Y-54.483
X106.045Y-56.007
X106.045Y-73.533
X106.045Y-75.057
X106.045Y-92.583
X106.045Y-94.107
X108.585Y-37.973
X108.585Y-39.497
X108.585Y-57.023
X108.585Y-58.547
X108.585Y-76.073
X108.585Y-77.597
X108.585Y-95.123
X108.585Y-96.647
X110.331Y-92.075
X110.331Y-100.806
X113.506Y-65.087
X125.095Y-35.433
X125.095Y-36.957
X125.095Y-54.483
X125.095Y-56.007
X125.095Y-73.533
X125.095Y-75.057
X125.095Y-92.583
X125.095Y-94.107
X126.206Y-82.55
X127.635Y-95.123
X127.635Y-96.647
X129.381Y-100.806
X144.145Y-92.583
X144.145Y-94.107
X146.685Y-95.123
X146.685Y-96.647
X163.195Y-92.583
X163.195Y-94.107
X165.735Y-37.973
X165.735Y-39.497
X165.735Y-57.023
X165.735Y-58.547
X165.735Y-76.073
X165.735Y-77.597
X165.735Y-95.123
X165.735Y-96.647
X167.481Y-82.55
X167.481Y-100.806
X170.656Y-65.087
X170.815Y-84.772
X182.245Y-35.433
X182.245Y-36.957
X182.245Y-54.483
X182.245Y-56.007
X182.245Y-73.533
X182.245Y-75.057
X182.245Y-92.583
X182.245Y-94.107
X184.785Y-37.973
X184.785Y-39.497
X184.785Y-57.023
X184.785Y-58.547
X184.785Y-76.073
X184.785Y-77.597
X184.785Y-95.123
X184.785Y-96.647
X189.706Y-66.675
X201.295Y-35.433
X201.295Y-36.957
X201.295Y-54.483
X201.295Y-56.007
X201.295Y-73.533
X201.295Y-75.057
X201.295Y-92.583
X201.295Y-94.107
X203.835Y-37.973
X203.835Y-39.497
X203.835Y-57.023
X203.835Y-58.547
X203.835Y-76.073
X203.835Y-77.597
X203.835Y-95.123
X203.835Y-96.647
X208.756Y-68.263
X220.345Y-35.433
X220.345Y-36.957
X220.345Y-54.483
X220.345Y-56.007
X220.345Y-73.533
X220.345Y-75.057
X220.345Y-92.583
X220.345Y-94.107
X222.885Y-37.973
X222.885Y-39.497
X222.885Y-57.023
X222.885Y-58.547
X222.885Y-76.073
X222.885Y-77.597
X222.885Y-95.123
X222.885Y-96.647
X227.806Y-69.85
X239.395Y-35.433
X239.395Y-36.957
X239.395Y-54.483
X239.395Y-56.007
X239.395Y-73.533
X239.395Y-75.057
X239.395Y-92.583
X239.395Y-94.107
X241.935Y-37.973
X241.935Y-39.497
X241.935Y-57.023
X241.935Y-58.547
X241.935Y-76.073
X241.935Y-77.597
X241.935Y-95.123
X241.935Y-96.647
X246.856Y-71.438
X258.445Y-35.433
X258.445Y-36.957
X258.445Y-54.483
X258.445Y-56.007
X258.445Y-73.533
X258.445Y-75.057
X258.445Y-92.583
X258.445Y-94.107
T2
X138.441Y-38.703
X138.441Y-41.243
X138.441Y-43.783
X138.441Y-46.323
X138.441Y-48.863
X138.441Y-51.403
X138.441Y-53.943
X138.441Y-56.483
X138.441Y-59.023
X138.441Y-61.563
X138.441Y-64.103
X138.441Y-66.643
X142.24Y-70.644
X144.78Y-70.644
X147.32Y-70.644
X149.86Y-70.644
X153.661Y-38.703
X153.661Y-41.243
X153.661Y-43.783
X153.661Y-46.323
X153.661Y-48.863
X153.661Y-51.403
X153.661Y-53.943
X153.661Y-56.483
X153.661Y-59.023
X153.661Y-61.563
X153.661Y-64.103
X153.661Y-66.643
T3
X142.8Y-74.612
X149.3Y-74.612
T4
X37.465Y-38.735
X37.465Y-57.785
X37.465Y-76.835
X37.465Y-95.885
X43.815Y-36.195
X43.815Y-55.245
X43.815Y-74.295
X43.815Y-93.345
X56.515Y-38.735
X56.515Y-57.785
X56.515Y-76.835
X56.515Y-95.885
X62.865Y-36.195
X62.865Y-55.245
X62.865Y-74.295
X62.865Y-93.345
X75.565Y-38.735
X75.565Y-57.785
X75.565Y-76.835
X75.565Y-95.885
X81.915Y-36.195
X81.915Y-55.245
X81.915Y-74.295
X81.915Y-93.345
X94.615Y-38.735
X94.615Y-57.785
X94.615Y-76.835
X94.615Y-95.885
X100.965Y-36.195
X100.965Y-55.245
X100.965Y-74.295
X100.965Y-93.345
X113.665Y-38.735
X113.665Y-57.785
X113.665Y-76.835
X113.665Y-95.885
X120.015Y-36.195
X120.015Y-55.245
X120.015Y-74.295
X120.015Y-93.345
X132.715Y-95.885
X139.065Y-93.345
X151.765Y-95.885
X158.115Y-93.345
X170.815Y-38.735
X170.815Y-57.785
X170.815Y-76.835
X170.815Y-95.885
X177.165Y-36.195
X177.165Y-55.245
X177.165Y-74.295
X177.165Y-93.345
X189.865Y-38.735
X189.865Y-57.785
X189.865Y-76.835
X189.865Y-95.885
X196.215Y-36.195
X196.215Y-55.245
X196.215Y-74.295
X196.215Y-93.345
X208.915Y-38.735
X208.915Y-57.785
X208.915Y-76.835
X208.915Y-95.885
X215.265Y-36.195
X215.265Y-55.245
X215.265Y-74.295
X215.265Y-93.345
X227.965Y-38.735
X227.965Y-57.785
X227.965Y-76.835
X227.965Y-95.885
X234.315Y-36.195
X234.315Y-55.245
X234.315Y-74.295
X234.315Y-93.345
X247.015Y-38.735
X247.015Y-57.785
X247.015Y-76.835
X247.015Y-95.885
X253.365Y-36.195
X253.365Y-55.245
X253.365Y-74.295
X253.365Y-93.345
T0
M30
